%TF.GenerationSoftware,KiCad,Pcbnew,8.0.8*%
%TF.CreationDate,2025-01-31T11:20:25+01:00*%
%TF.ProjectId,RP2040_Template,52503230-3430-45f5-9465-6d706c617465,rev?*%
%TF.SameCoordinates,Original*%
%TF.FileFunction,Copper,L1,Top*%
%TF.FilePolarity,Positive*%
%FSLAX46Y46*%
G04 Gerber Fmt 4.6, Leading zero omitted, Abs format (unit mm)*
G04 Created by KiCad (PCBNEW 8.0.8) date 2025-01-31 11:20:25*
%MOMM*%
%LPD*%
G01*
G04 APERTURE LIST*
G04 Aperture macros list*
%AMRoundRect*
0 Rectangle with rounded corners*
0 $1 Rounding radius*
0 $2 $3 $4 $5 $6 $7 $8 $9 X,Y pos of 4 corners*
0 Add a 4 corners polygon primitive as box body*
4,1,4,$2,$3,$4,$5,$6,$7,$8,$9,$2,$3,0*
0 Add four circle primitives for the rounded corners*
1,1,$1+$1,$2,$3*
1,1,$1+$1,$4,$5*
1,1,$1+$1,$6,$7*
1,1,$1+$1,$8,$9*
0 Add four rect primitives between the rounded corners*
20,1,$1+$1,$2,$3,$4,$5,0*
20,1,$1+$1,$4,$5,$6,$7,0*
20,1,$1+$1,$6,$7,$8,$9,0*
20,1,$1+$1,$8,$9,$2,$3,0*%
G04 Aperture macros list end*
%TA.AperFunction,SMDPad,CuDef*%
%ADD10RoundRect,0.140000X-0.170000X0.140000X-0.170000X-0.140000X0.170000X-0.140000X0.170000X0.140000X0*%
%TD*%
%TA.AperFunction,SMDPad,CuDef*%
%ADD11RoundRect,0.135000X0.135000X0.185000X-0.135000X0.185000X-0.135000X-0.185000X0.135000X-0.185000X0*%
%TD*%
%TA.AperFunction,SMDPad,CuDef*%
%ADD12RoundRect,0.140000X0.140000X0.170000X-0.140000X0.170000X-0.140000X-0.170000X0.140000X-0.170000X0*%
%TD*%
%TA.AperFunction,SMDPad,CuDef*%
%ADD13RoundRect,0.225000X0.375000X-0.225000X0.375000X0.225000X-0.375000X0.225000X-0.375000X-0.225000X0*%
%TD*%
%TA.AperFunction,SMDPad,CuDef*%
%ADD14RoundRect,0.140000X-0.140000X-0.170000X0.140000X-0.170000X0.140000X0.170000X-0.140000X0.170000X0*%
%TD*%
%TA.AperFunction,SMDPad,CuDef*%
%ADD15RoundRect,0.250000X0.350000X0.450000X-0.350000X0.450000X-0.350000X-0.450000X0.350000X-0.450000X0*%
%TD*%
%TA.AperFunction,SMDPad,CuDef*%
%ADD16R,1.000000X0.750000*%
%TD*%
%TA.AperFunction,SMDPad,CuDef*%
%ADD17R,1.400000X1.200000*%
%TD*%
%TA.AperFunction,SMDPad,CuDef*%
%ADD18RoundRect,0.140000X0.170000X-0.140000X0.170000X0.140000X-0.170000X0.140000X-0.170000X-0.140000X0*%
%TD*%
%TA.AperFunction,SMDPad,CuDef*%
%ADD19RoundRect,0.375000X0.625000X0.375000X-0.625000X0.375000X-0.625000X-0.375000X0.625000X-0.375000X0*%
%TD*%
%TA.AperFunction,SMDPad,CuDef*%
%ADD20RoundRect,0.500000X0.500000X1.400000X-0.500000X1.400000X-0.500000X-1.400000X0.500000X-1.400000X0*%
%TD*%
%TA.AperFunction,SMDPad,CuDef*%
%ADD21RoundRect,0.135000X0.185000X-0.135000X0.185000X0.135000X-0.185000X0.135000X-0.185000X-0.135000X0*%
%TD*%
%TA.AperFunction,SMDPad,CuDef*%
%ADD22RoundRect,0.050000X-0.050000X0.330000X-0.050000X-0.330000X0.050000X-0.330000X0.050000X0.330000X0*%
%TD*%
%TA.AperFunction,SMDPad,CuDef*%
%ADD23RoundRect,0.050000X0.330000X0.050000X-0.330000X0.050000X-0.330000X-0.050000X0.330000X-0.050000X0*%
%TD*%
%TA.AperFunction,SMDPad,CuDef*%
%ADD24R,1.550000X1.550000*%
%TD*%
%TA.AperFunction,SMDPad,CuDef*%
%ADD25RoundRect,0.135000X-0.135000X-0.185000X0.135000X-0.185000X0.135000X0.185000X-0.135000X0.185000X0*%
%TD*%
%TA.AperFunction,SMDPad,CuDef*%
%ADD26RoundRect,0.150000X-0.650000X-0.150000X0.650000X-0.150000X0.650000X0.150000X-0.650000X0.150000X0*%
%TD*%
%TA.AperFunction,SMDPad,CuDef*%
%ADD27RoundRect,0.135000X-0.185000X0.135000X-0.185000X-0.135000X0.185000X-0.135000X0.185000X0.135000X0*%
%TD*%
%TA.AperFunction,SMDPad,CuDef*%
%ADD28RoundRect,0.150000X0.500000X-0.150000X0.500000X0.150000X-0.500000X0.150000X-0.500000X-0.150000X0*%
%TD*%
%TA.AperFunction,SMDPad,CuDef*%
%ADD29RoundRect,0.075000X0.575000X-0.075000X0.575000X0.075000X-0.575000X0.075000X-0.575000X-0.075000X0*%
%TD*%
%TA.AperFunction,HeatsinkPad*%
%ADD30O,2.100000X1.000000*%
%TD*%
%TA.AperFunction,HeatsinkPad*%
%ADD31O,1.600000X1.000000*%
%TD*%
%TA.AperFunction,ComponentPad*%
%ADD32R,1.700000X1.700000*%
%TD*%
%TA.AperFunction,ComponentPad*%
%ADD33O,1.700000X1.700000*%
%TD*%
%TA.AperFunction,ViaPad*%
%ADD34C,0.650000*%
%TD*%
%TA.AperFunction,ViaPad*%
%ADD35C,0.600000*%
%TD*%
%TA.AperFunction,ViaPad*%
%ADD36C,0.450000*%
%TD*%
%TA.AperFunction,Conductor*%
%ADD37C,0.150000*%
%TD*%
%TA.AperFunction,Conductor*%
%ADD38C,0.500000*%
%TD*%
%TA.AperFunction,Conductor*%
%ADD39C,0.200000*%
%TD*%
%TA.AperFunction,Conductor*%
%ADD40C,0.400000*%
%TD*%
%TA.AperFunction,Conductor*%
%ADD41C,0.250000*%
%TD*%
%TA.AperFunction,Conductor*%
%ADD42C,0.800000*%
%TD*%
G04 APERTURE END LIST*
D10*
%TO.P,C11,1*%
%TO.N,3.3V*%
X105100000Y-95090000D03*
%TO.P,C11,2*%
%TO.N,GND*%
X105100000Y-96050000D03*
%TD*%
D11*
%TO.P,R2,1*%
%TO.N,/RP2040/XOUT_R*%
X101465200Y-89879000D03*
%TO.P,R2,2*%
%TO.N,/RP2040/XOUT*%
X100445200Y-89879000D03*
%TD*%
D12*
%TO.P,C12,1*%
%TO.N,3.3V*%
X101415200Y-90879000D03*
%TO.P,C12,2*%
%TO.N,GND*%
X100455200Y-90879000D03*
%TD*%
D11*
%TO.P,R4,1*%
%TO.N,/RP2040/USB_D-*%
X112450200Y-92774000D03*
%TO.P,R4,2*%
%TO.N,/RP2040/USB_D_R-*%
X111430200Y-92774000D03*
%TD*%
D13*
%TO.P,D1,1,K*%
%TO.N,VIN*%
X124950000Y-87350000D03*
%TO.P,D1,2,A*%
%TO.N,RAW*%
X124950000Y-84050000D03*
%TD*%
D14*
%TO.P,C14,1*%
%TO.N,3.3V*%
X111500000Y-86750000D03*
%TO.P,C14,2*%
%TO.N,GND*%
X112460000Y-86750000D03*
%TD*%
D15*
%TO.P,R5,1*%
%TO.N,/RP2040/QSPI_SS*%
X113370000Y-84260000D03*
%TO.P,R5,2*%
%TO.N,3.3V*%
X111370000Y-84260000D03*
%TD*%
D16*
%TO.P,SW2,1,1*%
%TO.N,RST*%
X94520000Y-93635000D03*
X88520000Y-93635000D03*
%TO.P,SW2,2,2*%
%TO.N,GND*%
X94520000Y-89885000D03*
X88520000Y-89885000D03*
%TD*%
D10*
%TO.P,C9,1*%
%TO.N,3.3V*%
X108980200Y-95194000D03*
%TO.P,C9,2*%
%TO.N,GND*%
X108980200Y-96154000D03*
%TD*%
D14*
%TO.P,C6,1*%
%TO.N,+1V1*%
X111470200Y-89799000D03*
%TO.P,C6,2*%
%TO.N,GND*%
X112430200Y-89799000D03*
%TD*%
D17*
%TO.P,Y1,1,1*%
%TO.N,/RP2040/XOUT*%
X96705200Y-92484000D03*
%TO.P,Y1,2,2*%
%TO.N,GND*%
X98905200Y-92484000D03*
%TO.P,Y1,3,3*%
%TO.N,/RP2040/XIN*%
X98905200Y-90784000D03*
%TO.P,Y1,4,4*%
%TO.N,GND*%
X96705200Y-90784000D03*
%TD*%
D10*
%TO.P,C10,1*%
%TO.N,3.3V*%
X110025200Y-95200000D03*
%TO.P,C10,2*%
%TO.N,GND*%
X110025200Y-96160000D03*
%TD*%
D18*
%TO.P,C13,1*%
%TO.N,3.3V*%
X104915200Y-85679000D03*
%TO.P,C13,2*%
%TO.N,GND*%
X104915200Y-84719000D03*
%TD*%
D19*
%TO.P,U2,1,GND*%
%TO.N,GND*%
X122370000Y-95092500D03*
%TO.P,U2,2,VO*%
%TO.N,3.3V*%
X122370000Y-92792500D03*
D20*
X116070000Y-92792500D03*
D19*
%TO.P,U2,3,VI*%
%TO.N,VIN*%
X122370000Y-90492500D03*
%TD*%
D21*
%TO.P,R7,1*%
%TO.N,GND*%
X131200000Y-92990000D03*
%TO.P,R7,2*%
%TO.N,Net-(J3-CC1)*%
X131200000Y-91970000D03*
%TD*%
D10*
%TO.P,C2,1*%
%TO.N,3.3V*%
X114150000Y-95160000D03*
%TO.P,C2,2*%
%TO.N,GND*%
X114150000Y-96120000D03*
%TD*%
D16*
%TO.P,SW1,1,1*%
%TO.N,BOOT_SEL*%
X88460000Y-84105000D03*
X94460000Y-84105000D03*
%TO.P,SW1,2,2*%
%TO.N,GND*%
X88460000Y-87855000D03*
X94460000Y-87855000D03*
%TD*%
D22*
%TO.P,U1,1,IOVDD*%
%TO.N,3.3V*%
X108700000Y-86990000D03*
%TO.P,U1,2,GPIO0*%
%TO.N,D0*%
X108300000Y-86990000D03*
%TO.P,U1,3,GPIO1*%
%TO.N,D1*%
X107900000Y-86990000D03*
%TO.P,U1,4,GPIO2*%
%TO.N,D2*%
X107500000Y-86990000D03*
%TO.P,U1,5,GPIO3*%
%TO.N,D3*%
X107100000Y-86990000D03*
%TO.P,U1,6,GPIO4*%
%TO.N,D4*%
X106700000Y-86990000D03*
%TO.P,U1,7,GPIO5*%
%TO.N,D5*%
X106300000Y-86990000D03*
%TO.P,U1,8,GPIO6*%
%TO.N,D6*%
X105900000Y-86990000D03*
%TO.P,U1,9,GPIO7*%
%TO.N,D7*%
X105500000Y-86990000D03*
%TO.P,U1,10,IOVDD*%
%TO.N,3.3V*%
X105100000Y-86990000D03*
%TO.P,U1,11,GPIO8*%
%TO.N,D8*%
X104700000Y-86990000D03*
%TO.P,U1,12,GPIO9*%
%TO.N,D9*%
X104300000Y-86990000D03*
%TO.P,U1,13,GPIO10*%
%TO.N,D10*%
X103900000Y-86990000D03*
%TO.P,U1,14,GPIO11*%
%TO.N,D11*%
X103500000Y-86990000D03*
D23*
%TO.P,U1,15,GPIO12*%
%TO.N,D12*%
X102715000Y-87775000D03*
%TO.P,U1,16,GPIO13*%
%TO.N,D13*%
X102715000Y-88175000D03*
%TO.P,U1,17,GPIO14*%
%TO.N,D14*%
X102715000Y-88575000D03*
%TO.P,U1,18,GPIO15*%
%TO.N,D15*%
X102715000Y-88975000D03*
%TO.P,U1,19,TESTEN*%
%TO.N,GND*%
X102715000Y-89375000D03*
%TO.P,U1,20,XIN*%
%TO.N,/RP2040/XIN*%
X102715000Y-89775000D03*
%TO.P,U1,21,XOUT*%
%TO.N,/RP2040/XOUT_R*%
X102715000Y-90175000D03*
%TO.P,U1,22,IOVDD*%
%TO.N,3.3V*%
X102715000Y-90575000D03*
%TO.P,U1,23,DVDD*%
%TO.N,+1V1*%
X102715000Y-90975000D03*
%TO.P,U1,24,SWCLK*%
%TO.N,/RP2040/SWD*%
X102715000Y-91375000D03*
%TO.P,U1,25,SWD*%
%TO.N,/RP2040/SWCLK*%
X102715000Y-91775000D03*
%TO.P,U1,26,RUN*%
%TO.N,RST*%
X102715000Y-92175000D03*
%TO.P,U1,27,GPIO16*%
%TO.N,D16*%
X102715000Y-92575000D03*
%TO.P,U1,28,GPIO17*%
%TO.N,D17*%
X102715000Y-92975000D03*
D22*
%TO.P,U1,29,GPIO18*%
%TO.N,D18*%
X103500000Y-93760000D03*
%TO.P,U1,30,GPIO19*%
%TO.N,D19*%
X103900000Y-93760000D03*
%TO.P,U1,31,GPIO20*%
%TO.N,D20*%
X104300000Y-93760000D03*
%TO.P,U1,32,GPIO21*%
%TO.N,D21*%
X104700000Y-93760000D03*
%TO.P,U1,33,IOVDD*%
%TO.N,3.3V*%
X105100000Y-93760000D03*
%TO.P,U1,34,GPIO22*%
%TO.N,D22*%
X105500000Y-93760000D03*
%TO.P,U1,35,GPIO23*%
%TO.N,D23*%
X105900000Y-93760000D03*
%TO.P,U1,36,GPIO24*%
%TO.N,D24*%
X106300000Y-93760000D03*
%TO.P,U1,37,GPIO25*%
%TO.N,D25*%
X106700000Y-93760000D03*
%TO.P,U1,38,GPIO26_ADC0*%
%TO.N,A0*%
X107100000Y-93760000D03*
%TO.P,U1,39,GPIO27_ADC1*%
%TO.N,A1*%
X107500000Y-93760000D03*
%TO.P,U1,40,GPIO28_ADC2*%
%TO.N,A2*%
X107900000Y-93760000D03*
%TO.P,U1,41,GPIO29_ADC3*%
%TO.N,A3*%
X108300000Y-93760000D03*
%TO.P,U1,42,IOVDD*%
%TO.N,3.3V*%
X108700000Y-93760000D03*
D23*
%TO.P,U1,43,ADC_AVDD*%
X109485000Y-92975000D03*
%TO.P,U1,44,VREG_IN*%
X109485000Y-92575000D03*
%TO.P,U1,45,VREG_VOUT*%
%TO.N,+1V1*%
X109485000Y-92175000D03*
%TO.P,U1,46,USB_DM*%
%TO.N,/RP2040/USB_D_R-*%
X109485000Y-91775000D03*
%TO.P,U1,47,USB_DP*%
%TO.N,/RP2040/USB_D_R+*%
X109485000Y-91375000D03*
%TO.P,U1,48,USB_VDD*%
%TO.N,3.3V*%
X109485000Y-90975000D03*
%TO.P,U1,49,IOVDD*%
X109485000Y-90575000D03*
%TO.P,U1,50,DVDD*%
%TO.N,+1V1*%
X109485000Y-90175000D03*
%TO.P,U1,51,QSPI_SD3*%
%TO.N,/RP2040/QSPI_SD3*%
X109485000Y-89775000D03*
%TO.P,U1,52,QSPI_SCLK*%
%TO.N,/RP2040/QSPI_SCLK*%
X109485000Y-89375000D03*
%TO.P,U1,53,QSPI_SD0*%
%TO.N,/RP2040/QSPI_SD0*%
X109485000Y-88975000D03*
%TO.P,U1,54,QSPI_SD2*%
%TO.N,/RP2040/QSPI_SD2*%
X109485000Y-88575000D03*
%TO.P,U1,55,QSPI_SD1*%
%TO.N,/RP2040/QSPI_SD1*%
X109485000Y-88175000D03*
%TO.P,U1,56,QSPI_SS*%
%TO.N,/RP2040/QSPI_SS*%
X109485000Y-87775000D03*
D24*
%TO.P,U1,57,GND*%
%TO.N,GND*%
X106875000Y-91150000D03*
X106875000Y-89600000D03*
X105325000Y-91150000D03*
X105325000Y-89600000D03*
%TD*%
D14*
%TO.P,C5,1*%
%TO.N,/RP2040/XOUT*%
X96375200Y-89394000D03*
%TO.P,C5,2*%
%TO.N,GND*%
X97335200Y-89394000D03*
%TD*%
%TO.P,C8,1*%
%TO.N,+1V1*%
X111475200Y-93774000D03*
%TO.P,C8,2*%
%TO.N,GND*%
X112435200Y-93774000D03*
%TD*%
D12*
%TO.P,C4,1*%
%TO.N,/RP2040/XIN*%
X99265200Y-89404000D03*
%TO.P,C4,2*%
%TO.N,GND*%
X98305200Y-89404000D03*
%TD*%
D25*
%TO.P,R6,1*%
%TO.N,3.3V*%
X100415200Y-92854000D03*
%TO.P,R6,2*%
%TO.N,RST*%
X101435200Y-92854000D03*
%TD*%
D14*
%TO.P,C1,1*%
%TO.N,VIN*%
X124330000Y-88800000D03*
%TO.P,C1,2*%
%TO.N,GND*%
X125290000Y-88800000D03*
%TD*%
D11*
%TO.P,R3,1*%
%TO.N,/RP2040/USB_D+*%
X112450200Y-91774000D03*
%TO.P,R3,2*%
%TO.N,/RP2040/USB_D_R+*%
X111430200Y-91774000D03*
%TD*%
D26*
%TO.P,U4,1,~{CS}*%
%TO.N,/RP2040/QSPI_SS*%
X115380000Y-84275000D03*
%TO.P,U4,2,DO(IO1)*%
%TO.N,/RP2040/QSPI_SD1*%
X115380000Y-85545000D03*
%TO.P,U4,3,IO2*%
%TO.N,/RP2040/QSPI_SD2*%
X115380000Y-86815000D03*
%TO.P,U4,4,GND*%
%TO.N,GND*%
X115380000Y-88085000D03*
%TO.P,U4,5,DI(IO0)*%
%TO.N,/RP2040/QSPI_SD0*%
X122580000Y-88085000D03*
%TO.P,U4,6,CLK*%
%TO.N,/RP2040/QSPI_SCLK*%
X122580000Y-86815000D03*
%TO.P,U4,7,IO3*%
%TO.N,/RP2040/QSPI_SD3*%
X122580000Y-85545000D03*
%TO.P,U4,8,VCC*%
%TO.N,3.3V*%
X122580000Y-84275000D03*
%TD*%
D14*
%TO.P,C15,1*%
%TO.N,3.3V*%
X111475200Y-90774000D03*
%TO.P,C15,2*%
%TO.N,GND*%
X112435200Y-90774000D03*
%TD*%
D11*
%TO.P,R1,1*%
%TO.N,/RP2040/QSPI_SS*%
X112520000Y-85740000D03*
%TO.P,R1,2*%
%TO.N,BOOT_SEL*%
X111500000Y-85740000D03*
%TD*%
D12*
%TO.P,C7,1*%
%TO.N,+1V1*%
X101415200Y-91854000D03*
%TO.P,C7,2*%
%TO.N,GND*%
X100455200Y-91854000D03*
%TD*%
D10*
%TO.P,C3,1*%
%TO.N,3.3V*%
X113160000Y-95150000D03*
%TO.P,C3,2*%
%TO.N,GND*%
X113160000Y-96110000D03*
%TD*%
D27*
%TO.P,R8,1*%
%TO.N,GND*%
X131175000Y-88190000D03*
%TO.P,R8,2*%
%TO.N,Net-(J3-CC2)*%
X131175000Y-89210000D03*
%TD*%
D28*
%TO.P,J3,A1,GND*%
%TO.N,GND*%
X133330000Y-93830000D03*
%TO.P,J3,A4,VBUS*%
%TO.N,RAW*%
X133330000Y-93030000D03*
D29*
%TO.P,J3,A5,CC1*%
%TO.N,Net-(J3-CC1)*%
X133330000Y-91880000D03*
%TO.P,J3,A6,D+*%
%TO.N,/RP2040/USB_D+*%
X133330000Y-90880000D03*
%TO.P,J3,A7,D-*%
%TO.N,/RP2040/USB_D-*%
X133330000Y-90380000D03*
%TO.P,J3,A8,SBU1*%
%TO.N,unconnected-(J3-SBU1-PadA8)*%
X133330000Y-89380000D03*
D28*
%TO.P,J3,A9,VBUS*%
%TO.N,RAW*%
X133330000Y-88230000D03*
%TO.P,J3,A12,GND*%
%TO.N,GND*%
X133330000Y-87430000D03*
%TO.P,J3,B1,GND*%
X133330000Y-87430000D03*
%TO.P,J3,B4,VBUS*%
%TO.N,RAW*%
X133330000Y-88230000D03*
D29*
%TO.P,J3,B5,CC2*%
%TO.N,Net-(J3-CC2)*%
X133330000Y-88880000D03*
%TO.P,J3,B6,D+*%
%TO.N,/RP2040/USB_D+*%
X133330000Y-89880000D03*
%TO.P,J3,B7,D-*%
%TO.N,/RP2040/USB_D-*%
X133330000Y-91380000D03*
%TO.P,J3,B8,SBU2*%
%TO.N,unconnected-(J3-SBU2-PadB8)*%
X133330000Y-92380000D03*
D28*
%TO.P,J3,B9,VBUS*%
%TO.N,RAW*%
X133330000Y-93030000D03*
%TO.P,J3,B12,GND*%
%TO.N,GND*%
X133330000Y-93830000D03*
D30*
%TO.P,J3,S1,SHIELD*%
X133970000Y-94950000D03*
D31*
X138150000Y-94950000D03*
D30*
X133970000Y-86310000D03*
D31*
X138150000Y-86310000D03*
%TD*%
D32*
%TO.P,J5,1,Pin_1*%
%TO.N,GND*%
X129940000Y-99870000D03*
D33*
%TO.P,J5,2,Pin_2*%
%TO.N,3.3V*%
X132480000Y-99870000D03*
%TO.P,J5,3,Pin_3*%
%TO.N,VIN*%
X135020000Y-99870000D03*
%TO.P,J5,4,Pin_4*%
%TO.N,RAW*%
X137560000Y-99870000D03*
%TD*%
D32*
%TO.P,J2,1,Pin_1*%
%TO.N,A3*%
X124270000Y-99800000D03*
D33*
%TO.P,J2,2,Pin_2*%
%TO.N,A2*%
X121730000Y-99800000D03*
%TO.P,J2,3,Pin_3*%
%TO.N,A1*%
X119190000Y-99800000D03*
%TO.P,J2,4,Pin_4*%
%TO.N,A0*%
X116650000Y-99800000D03*
%TO.P,J2,5,Pin_5*%
%TO.N,D25*%
X114110000Y-99800000D03*
%TO.P,J2,6,Pin_6*%
%TO.N,D24*%
X111570000Y-99800000D03*
%TO.P,J2,7,Pin_7*%
%TO.N,D23*%
X109030000Y-99800000D03*
%TO.P,J2,8,Pin_8*%
%TO.N,D22*%
X106490000Y-99800000D03*
%TO.P,J2,9,Pin_9*%
%TO.N,D21*%
X103950000Y-99800000D03*
%TO.P,J2,10,Pin_10*%
%TO.N,D20*%
X101410000Y-99800000D03*
%TO.P,J2,11,Pin_11*%
%TO.N,D19*%
X98870000Y-99800000D03*
%TO.P,J2,12,Pin_12*%
%TO.N,D18*%
X96330000Y-99800000D03*
%TO.P,J2,13,Pin_13*%
%TO.N,D17*%
X93790000Y-99800000D03*
%TO.P,J2,14,Pin_14*%
%TO.N,D16*%
X91250000Y-99800000D03*
%TO.P,J2,15,Pin_15*%
%TO.N,D15*%
X88710000Y-99800000D03*
%TD*%
D32*
%TO.P,J1,1,Pin_1*%
%TO.N,D14*%
X88720000Y-79200000D03*
D33*
%TO.P,J1,2,Pin_2*%
%TO.N,D13*%
X91260000Y-79200000D03*
%TO.P,J1,3,Pin_3*%
%TO.N,D12*%
X93800000Y-79200000D03*
%TO.P,J1,4,Pin_4*%
%TO.N,D11*%
X96340000Y-79200000D03*
%TO.P,J1,5,Pin_5*%
%TO.N,D10*%
X98880000Y-79200000D03*
%TO.P,J1,6,Pin_6*%
%TO.N,D9*%
X101420000Y-79200000D03*
%TO.P,J1,7,Pin_7*%
%TO.N,D8*%
X103960000Y-79200000D03*
%TO.P,J1,8,Pin_8*%
%TO.N,D7*%
X106500000Y-79200000D03*
%TO.P,J1,9,Pin_9*%
%TO.N,D6*%
X109040000Y-79200000D03*
%TO.P,J1,10,Pin_10*%
%TO.N,D5*%
X111580000Y-79200000D03*
%TO.P,J1,11,Pin_11*%
%TO.N,D4*%
X114120000Y-79200000D03*
%TO.P,J1,12,Pin_12*%
%TO.N,D3*%
X116660000Y-79200000D03*
%TO.P,J1,13,Pin_13*%
%TO.N,D2*%
X119200000Y-79200000D03*
%TO.P,J1,14,Pin_14*%
%TO.N,D1*%
X121740000Y-79200000D03*
%TO.P,J1,15,Pin_15*%
%TO.N,D0*%
X124280000Y-79200000D03*
%TD*%
D34*
%TO.N,GND*%
X113360000Y-86410000D03*
X97875200Y-92514000D03*
X106085200Y-88234000D03*
X108315200Y-89654000D03*
X108305200Y-88224000D03*
D35*
X103855200Y-88114000D03*
D34*
X113275200Y-93754000D03*
X103795200Y-89494000D03*
X103965200Y-84564000D03*
D35*
%TO.N,3.3V*%
X105100000Y-87704092D03*
X105160200Y-92991200D03*
X103604200Y-90450000D03*
X114465000Y-90175000D03*
X111631200Y-95150000D03*
X116045000Y-90175000D03*
X111000000Y-95150000D03*
X109430200Y-87199000D03*
X110305200Y-93374000D03*
X115275000Y-90175000D03*
X110305200Y-94044000D03*
X110655200Y-90824000D03*
D36*
%TO.N,/RP2040/USB_D-*%
X130575000Y-91350000D03*
D35*
X113410200Y-92799000D03*
%TO.N,/RP2040/USB_D+*%
X113305200Y-91784000D03*
D36*
X130375000Y-90350000D03*
%TO.N,/RP2040/QSPI_SCLK*%
X111200000Y-88620000D03*
X121050000Y-86815000D03*
%TO.N,/RP2040/QSPI_SD0*%
X121090000Y-88085000D03*
X110520000Y-88950000D03*
%TO.N,BOOT_SEL*%
X94530000Y-85099000D03*
X110670000Y-85780000D03*
%TD*%
D37*
%TO.N,/RP2040/XIN*%
X98905200Y-90784000D02*
X98905200Y-90264000D01*
X102123348Y-89775000D02*
X101732348Y-89384000D01*
X99265200Y-89584000D02*
X99265200Y-90424000D01*
X98905200Y-90264000D02*
X98915200Y-90254000D01*
X101732348Y-89384000D02*
X99465200Y-89384000D01*
X99465200Y-89384000D02*
X99265200Y-89584000D01*
X99265200Y-90424000D02*
X98905200Y-90784000D01*
X102715000Y-89775000D02*
X102123348Y-89775000D01*
%TO.N,/RP2040/XOUT*%
X97765200Y-91624000D02*
X97765200Y-90194000D01*
X96860200Y-89879000D02*
X96375200Y-89394000D01*
X99845200Y-91404000D02*
X99615200Y-91634000D01*
X97765200Y-90194000D02*
X97450200Y-89879000D01*
X97450200Y-89879000D02*
X96860200Y-89879000D01*
X99845200Y-90479000D02*
X99845200Y-91404000D01*
X97035200Y-91634000D02*
X96675200Y-91994000D01*
X99615200Y-91634000D02*
X97035200Y-91634000D01*
X97755200Y-91634000D02*
X97765200Y-91624000D01*
X100445200Y-89879000D02*
X99845200Y-90479000D01*
%TO.N,3.3V*%
X116638554Y-90175000D02*
X116045000Y-90175000D01*
D38*
X113979200Y-95150000D02*
X114155200Y-94974000D01*
X116045000Y-90175000D02*
X114465000Y-90175000D01*
D39*
X101719200Y-90575000D02*
X101415200Y-90879000D01*
D37*
X109160000Y-85530000D02*
X109160000Y-86399000D01*
D39*
X109430200Y-86499000D02*
X109330200Y-86399000D01*
X102715000Y-90575000D02*
X101719200Y-90575000D01*
D37*
X100925200Y-91369000D02*
X101415200Y-90879000D01*
D38*
X110031200Y-95194000D02*
X108980200Y-95194000D01*
D39*
X110504200Y-90975000D02*
X109485000Y-90975000D01*
X105100000Y-93760000D02*
X105100000Y-95090000D01*
D37*
X103604200Y-90450000D02*
X103604200Y-90575000D01*
D40*
X111455200Y-90824000D02*
X111480200Y-90849000D01*
X105100000Y-87704092D02*
X105019892Y-87784200D01*
D39*
X105100000Y-93760000D02*
X105100000Y-92975200D01*
D37*
X110430000Y-84260000D02*
X109160000Y-85530000D01*
D38*
X114155200Y-94974000D02*
X114155200Y-93904800D01*
X111000000Y-95150000D02*
X111631200Y-95150000D01*
D37*
X104959200Y-95090000D02*
X104905200Y-95144000D01*
X100925200Y-92194000D02*
X100925200Y-91369000D01*
D39*
X110305200Y-93374000D02*
X110305200Y-92624000D01*
D37*
X100415200Y-92704000D02*
X100925200Y-92194000D01*
D38*
X115047500Y-93012500D02*
X119700000Y-93012500D01*
D37*
X122580000Y-84275000D02*
X123475000Y-84275000D01*
D38*
X111000000Y-95150000D02*
X110305200Y-95150000D01*
X132480000Y-99270000D02*
X126002500Y-92792500D01*
X116095200Y-93012500D02*
X122150000Y-93012500D01*
X114155200Y-94974000D02*
X114155200Y-94634000D01*
D37*
X132480000Y-99870000D02*
X132480000Y-99270000D01*
D38*
X116045000Y-90175000D02*
X116095200Y-90225200D01*
D40*
X111051000Y-87199000D02*
X111500000Y-86750000D01*
D38*
X116095200Y-90225200D02*
X116095200Y-93012500D01*
D39*
X109330200Y-86399000D02*
X108830200Y-86399000D01*
X110655200Y-90824000D02*
X110406200Y-90575000D01*
D38*
X110305200Y-95150000D02*
X110305200Y-93374000D01*
D39*
X110406200Y-90575000D02*
X109485000Y-90575000D01*
D38*
X111631200Y-95150000D02*
X113979200Y-95150000D01*
D39*
X109485000Y-92975000D02*
X110305200Y-92975000D01*
X105100000Y-86990000D02*
X105100000Y-87704092D01*
X108700000Y-86529200D02*
X108700000Y-86990000D01*
D38*
X126002500Y-92792500D02*
X122370000Y-92792500D01*
D39*
X110655200Y-90824000D02*
X110504200Y-90975000D01*
D40*
X110655200Y-90824000D02*
X111455200Y-90824000D01*
D37*
X111370000Y-84260000D02*
X110430000Y-84260000D01*
D38*
X114155200Y-93904800D02*
X115047500Y-93012500D01*
D37*
X123770000Y-84570000D02*
X123770000Y-85850000D01*
X100415200Y-92854000D02*
X100415200Y-92704000D01*
X120483554Y-86330000D02*
X116638554Y-90175000D01*
D39*
X109430200Y-87199000D02*
X109430200Y-86499000D01*
X108830200Y-86399000D02*
X108700000Y-86529200D01*
X102715000Y-90575000D02*
X103604200Y-90575000D01*
D40*
X109430200Y-87199000D02*
X111051000Y-87199000D01*
D37*
X123770000Y-85850000D02*
X123290000Y-86330000D01*
D38*
X122150000Y-93012500D02*
X122370000Y-92792500D01*
D39*
X108700000Y-93760000D02*
X108700000Y-94913800D01*
X110305200Y-92624000D02*
X110256200Y-92575000D01*
X105109400Y-86954600D02*
X105109400Y-85694800D01*
X110256200Y-92575000D02*
X109485000Y-92575000D01*
D37*
X123290000Y-86330000D02*
X120483554Y-86330000D01*
X123475000Y-84275000D02*
X123770000Y-84570000D01*
D39*
X108700000Y-94913800D02*
X108980200Y-95194000D01*
%TO.N,+1V1*%
X102715000Y-90975000D02*
X102184200Y-90975000D01*
D41*
X108979200Y-90175000D02*
X109485000Y-90175000D01*
X111204200Y-90175000D02*
X111555200Y-89824000D01*
X108338000Y-92466200D02*
X104641200Y-92466200D01*
D39*
X101415200Y-91744000D02*
X101415200Y-91854000D01*
D41*
X104080200Y-91299000D02*
X103756200Y-90975000D01*
X108630200Y-92174000D02*
X108630200Y-90524000D01*
X109434978Y-92174000D02*
X108630200Y-92174000D01*
X110315820Y-92175000D02*
X110830200Y-92689380D01*
X104080200Y-91905200D02*
X104080200Y-91299000D01*
X108630200Y-90524000D02*
X108979200Y-90175000D01*
X109485000Y-90175000D02*
X111204200Y-90175000D01*
X104641200Y-92466200D02*
X104080200Y-91905200D01*
X110830200Y-92689380D02*
X110830200Y-93129000D01*
X109485000Y-92175000D02*
X110315820Y-92175000D01*
D39*
X102184200Y-90975000D02*
X101415200Y-91744000D01*
D41*
X108630200Y-92174000D02*
X108338000Y-92466200D01*
X103756200Y-90975000D02*
X102715000Y-90975000D01*
X110830200Y-93129000D02*
X111475200Y-93774000D01*
D39*
%TO.N,/RP2040/USB_D-*%
X134280000Y-90380000D02*
X133330000Y-90380000D01*
D40*
X112580200Y-92849000D02*
X112450200Y-92849000D01*
D39*
X134600000Y-90700000D02*
X134280000Y-90380000D01*
D40*
X112630200Y-92799000D02*
X112580200Y-92849000D01*
D39*
X134600000Y-91125000D02*
X134600000Y-90700000D01*
X130605000Y-91380000D02*
X134345000Y-91380000D01*
D40*
X113410200Y-92799000D02*
X112630200Y-92799000D01*
D39*
X134345000Y-91380000D02*
X134600000Y-91125000D01*
X130575000Y-91350000D02*
X130605000Y-91380000D01*
%TO.N,/RP2040/USB_D+*%
X130375000Y-90375000D02*
X130880000Y-90880000D01*
X130845000Y-89880000D02*
X133330000Y-89880000D01*
D40*
X113265200Y-91824000D02*
X112450200Y-91824000D01*
D39*
X130880000Y-90880000D02*
X133330000Y-90880000D01*
X130375000Y-90350000D02*
X130375000Y-90375000D01*
D40*
X113305200Y-91784000D02*
X113265200Y-91824000D01*
D39*
X130375000Y-90350000D02*
X130845000Y-89880000D01*
D37*
%TO.N,D11*%
X103500000Y-86360000D02*
X96340000Y-79200000D01*
X103500000Y-86990000D02*
X103500000Y-86360000D01*
%TO.N,/RP2040/QSPI_SS*%
X112005000Y-85975000D02*
X112240000Y-85740000D01*
X112005000Y-87004358D02*
X112005000Y-85975000D01*
X112240000Y-85740000D02*
X112520000Y-85740000D01*
X113370000Y-84260000D02*
X112520000Y-85110000D01*
X113385000Y-84275000D02*
X113370000Y-84260000D01*
X111369358Y-87640000D02*
X112005000Y-87004358D01*
X109486000Y-87774000D02*
X109485000Y-87775000D01*
X112520000Y-85110000D02*
X112520000Y-85740000D01*
X110097092Y-87775000D02*
X110232092Y-87640000D01*
X109485000Y-87775000D02*
X110097092Y-87775000D01*
X115380000Y-84275000D02*
X113385000Y-84275000D01*
X110232092Y-87640000D02*
X111369358Y-87640000D01*
%TO.N,/RP2040/XOUT_R*%
X101761200Y-90175000D02*
X101465200Y-89879000D01*
X102715000Y-90175000D02*
X101761200Y-90175000D01*
D39*
%TO.N,/RP2040/USB_D_R+*%
X109485000Y-91375000D02*
X111031200Y-91375000D01*
X111031200Y-91375000D02*
X111430200Y-91774000D01*
%TO.N,/RP2040/USB_D_R-*%
X109485000Y-91775000D02*
X110431200Y-91775000D01*
X111430200Y-92774000D02*
X111430200Y-92849000D01*
X110431200Y-91775000D02*
X111430200Y-92774000D01*
D37*
%TO.N,D9*%
X101420000Y-83572892D02*
X101420000Y-79200000D01*
X104300000Y-86990000D02*
X104300000Y-86452892D01*
X104300000Y-86452892D02*
X101420000Y-83572892D01*
%TO.N,D4*%
X112645000Y-80675000D02*
X114120000Y-79200000D01*
X106700000Y-84433554D02*
X110458554Y-80675000D01*
X106700000Y-86990000D02*
X106700000Y-84433554D01*
X110458554Y-80675000D02*
X112645000Y-80675000D01*
%TO.N,D3*%
X107100000Y-86990000D02*
X107100000Y-84387108D01*
X110562108Y-80925000D02*
X114935000Y-80925000D01*
X107100000Y-84387108D02*
X110562108Y-80925000D01*
X114935000Y-80925000D02*
X116660000Y-79200000D01*
%TO.N,D1*%
X107900000Y-86990000D02*
X107900000Y-84294216D01*
X110769216Y-81425000D02*
X119515000Y-81425000D01*
X107900000Y-84294216D02*
X110769216Y-81425000D01*
X119515000Y-81425000D02*
X121740000Y-79200000D01*
%TO.N,D7*%
X105500000Y-86990000D02*
X105500000Y-80200000D01*
X105500000Y-80200000D02*
X106500000Y-79200000D01*
%TO.N,D0*%
X121805000Y-81675000D02*
X124280000Y-79200000D01*
X108300000Y-84247770D02*
X110872770Y-81675000D01*
X110872770Y-81675000D02*
X121805000Y-81675000D01*
X108300000Y-86990000D02*
X108300000Y-84247770D01*
%TO.N,D2*%
X117225000Y-81175000D02*
X119200000Y-79200000D01*
X110665662Y-81175000D02*
X117225000Y-81175000D01*
X107500000Y-86990000D02*
X107500000Y-84340662D01*
X119200000Y-79210000D02*
X119200000Y-79200000D01*
X107500000Y-84340662D02*
X110665662Y-81175000D01*
%TO.N,D10*%
X103900000Y-86406446D02*
X98880000Y-81386446D01*
X103900000Y-86990000D02*
X103900000Y-86406446D01*
X98880000Y-81386446D02*
X98880000Y-79200000D01*
%TO.N,D8*%
X104700000Y-86278800D02*
X103465200Y-85044000D01*
X104700000Y-86990000D02*
X104700000Y-86278800D01*
X103465200Y-85044000D02*
X103465200Y-79694800D01*
X103465200Y-79694800D02*
X103960000Y-79200000D01*
%TO.N,D5*%
X106300000Y-84480000D02*
X111580000Y-79200000D01*
X106300000Y-86990000D02*
X106300000Y-84480000D01*
X111731466Y-79200000D02*
X111580000Y-79200000D01*
%TO.N,D6*%
X109040000Y-79200000D02*
X105900000Y-82340000D01*
X105900000Y-82340000D02*
X105900000Y-86990000D01*
%TO.N,D13*%
X91260000Y-80760000D02*
X91260000Y-79200000D01*
X95433308Y-82475000D02*
X92975000Y-82475000D01*
X102715000Y-88175000D02*
X101133308Y-88175000D01*
X92975000Y-82475000D02*
X91260000Y-80760000D01*
X101133308Y-88175000D02*
X95433308Y-82475000D01*
%TO.N,D12*%
X101086862Y-87775000D02*
X93800000Y-80488138D01*
X93800000Y-80488138D02*
X93800000Y-79200000D01*
X102715000Y-87775000D02*
X101086862Y-87775000D01*
%TO.N,/RP2040/QSPI_SD3*%
X112009200Y-88470000D02*
X113090000Y-88470000D01*
X119010000Y-87450000D02*
X120915000Y-85545000D01*
X114110000Y-87450000D02*
X119010000Y-87450000D01*
X120915000Y-85545000D02*
X122580000Y-85545000D01*
X110704200Y-89775000D02*
X112009200Y-88470000D01*
X113090000Y-88470000D02*
X114110000Y-87450000D01*
X109485000Y-89775000D02*
X110704200Y-89775000D01*
%TO.N,/RP2040/QSPI_SCLK*%
X121050000Y-86815000D02*
X122580000Y-86815000D01*
X110750646Y-89375000D02*
X109485000Y-89375000D01*
X111200000Y-88620000D02*
X111200000Y-88925646D01*
X111200000Y-88925646D02*
X110750646Y-89375000D01*
%TO.N,/RP2040/QSPI_SD0*%
X110520000Y-88950000D02*
X110495000Y-88975000D01*
X121090000Y-88085000D02*
X122580000Y-88085000D01*
X110495000Y-88975000D02*
X109485000Y-88975000D01*
%TO.N,/RP2040/QSPI_SD2*%
X112980000Y-88220000D02*
X110530000Y-88220000D01*
X110530000Y-88220000D02*
X110175000Y-88575000D01*
X114385000Y-86815000D02*
X112980000Y-88220000D01*
X110175000Y-88575000D02*
X109485000Y-88575000D01*
X115380000Y-86815000D02*
X114385000Y-86815000D01*
%TO.N,/RP2040/QSPI_SD1*%
X112860000Y-87970000D02*
X110370000Y-87970000D01*
X110370000Y-87970000D02*
X110165000Y-88175000D01*
X114375000Y-85545000D02*
X114130000Y-85790000D01*
X115380000Y-85545000D02*
X114375000Y-85545000D01*
X114130000Y-85790000D02*
X114130000Y-86700000D01*
X114130000Y-86700000D02*
X112860000Y-87970000D01*
X110165000Y-88175000D02*
X109485000Y-88175000D01*
%TO.N,A3*%
X108300000Y-96531691D02*
X109243309Y-97475000D01*
X121945000Y-97475000D02*
X124270000Y-99800000D01*
X108300000Y-93760000D02*
X108300000Y-96531691D01*
X109243309Y-97475000D02*
X121945000Y-97475000D01*
%TO.N,A1*%
X107500000Y-93760000D02*
X107500000Y-96438799D01*
X109036201Y-97975000D02*
X117365000Y-97975000D01*
X107500000Y-96438799D02*
X109036201Y-97975000D01*
X117365000Y-97975000D02*
X119190000Y-99800000D01*
%TO.N,A2*%
X107900000Y-96485245D02*
X109139755Y-97725000D01*
X107900000Y-93760000D02*
X107900000Y-96485245D01*
X109139755Y-97725000D02*
X119655000Y-97725000D01*
X119655000Y-97725000D02*
X121730000Y-99800000D01*
%TO.N,A0*%
X107100000Y-93760000D02*
X107100000Y-96392353D01*
X115075000Y-98225000D02*
X116650000Y-99800000D01*
X108932647Y-98225000D02*
X115075000Y-98225000D01*
X107100000Y-96392353D02*
X108932647Y-98225000D01*
%TO.N,D15*%
X87680000Y-92890000D02*
X87680000Y-98770000D01*
X93670000Y-86900000D02*
X87680000Y-92890000D01*
X98930000Y-86900000D02*
X93670000Y-86900000D01*
X101005000Y-88975000D02*
X98930000Y-86900000D01*
X87680000Y-98770000D02*
X88710000Y-99800000D01*
X102715000Y-88975000D02*
X101005000Y-88975000D01*
%TO.N,D14*%
X101179754Y-88575000D02*
X95329754Y-82725000D01*
X88720000Y-81645000D02*
X88720000Y-79200000D01*
X102281200Y-88575000D02*
X102715000Y-88575000D01*
X89800000Y-82725000D02*
X88720000Y-81645000D01*
X102715000Y-88575000D02*
X101179754Y-88575000D01*
X95329754Y-82725000D02*
X89800000Y-82725000D01*
%TO.N,D19*%
X103900000Y-93760000D02*
X103900000Y-94706446D01*
X98870000Y-99736446D02*
X98870000Y-99800000D01*
X103900000Y-94706446D02*
X98870000Y-99736446D01*
%TO.N,D23*%
X109030000Y-99390000D02*
X105900000Y-96260000D01*
X105900000Y-96260000D02*
X105900000Y-93760000D01*
X109030000Y-99800000D02*
X109030000Y-99390000D01*
%TO.N,D16*%
X101880200Y-92809000D02*
X102114200Y-92575000D01*
X96760000Y-94290000D02*
X100761348Y-94290000D01*
X91250000Y-99800000D02*
X96760000Y-94290000D01*
X101880200Y-93171148D02*
X101880200Y-92809000D01*
X102114200Y-92575000D02*
X102715000Y-92575000D01*
X100761348Y-94290000D02*
X101880200Y-93171148D01*
%TO.N,D21*%
X104700000Y-94640000D02*
X103950000Y-95390000D01*
X104700000Y-93760000D02*
X104700000Y-94640000D01*
X103950000Y-95390000D02*
X103950000Y-99800000D01*
%TO.N,D18*%
X100430000Y-95700000D02*
X96330000Y-99800000D01*
X103500000Y-94752892D02*
X102552892Y-95700000D01*
X102552892Y-95700000D02*
X100430000Y-95700000D01*
X103500000Y-93760000D02*
X103500000Y-94752892D01*
X96680000Y-99800000D02*
X96330000Y-99800000D01*
X103505200Y-93765200D02*
X103500000Y-93760000D01*
%TO.N,BOOT_SEL*%
X88490000Y-84075000D02*
X88460000Y-84105000D01*
X94430000Y-84075000D02*
X88490000Y-84075000D01*
X94530000Y-84175000D02*
X94430000Y-84075000D01*
X110670000Y-85780000D02*
X110710000Y-85740000D01*
X110710000Y-85740000D02*
X111500000Y-85740000D01*
X94530000Y-85099000D02*
X94530000Y-84175000D01*
%TO.N,D25*%
X112785000Y-98475000D02*
X108829093Y-98475000D01*
X114110000Y-99800000D02*
X112785000Y-98475000D01*
X114110000Y-99800000D02*
X114730000Y-99800000D01*
X108829093Y-98475000D02*
X106700000Y-96345907D01*
X106700000Y-96345907D02*
X106700000Y-93760000D01*
%TO.N,D22*%
X105500000Y-93760000D02*
X105500000Y-94470000D01*
X105650000Y-96363554D02*
X106490000Y-97203554D01*
X105650000Y-94620000D02*
X105650000Y-96363554D01*
X105500000Y-94470000D02*
X105650000Y-94620000D01*
X106490000Y-97203554D02*
X106490000Y-99800000D01*
%TO.N,D24*%
X111570000Y-99800000D02*
X110545000Y-98775000D01*
X110545000Y-98775000D02*
X108775539Y-98775000D01*
X108775539Y-98775000D02*
X106300000Y-96299461D01*
X106300000Y-96299461D02*
X106300000Y-93760000D01*
%TO.N,D17*%
X101150000Y-94540000D02*
X102715000Y-92975000D01*
X93790000Y-99800000D02*
X93790000Y-98900000D01*
X93790000Y-98900000D02*
X98150000Y-94540000D01*
X98150000Y-94540000D02*
X101150000Y-94540000D01*
D40*
%TO.N,RAW*%
X133330000Y-93030000D02*
X134076116Y-93030000D01*
X135520000Y-93220000D02*
X135520000Y-97850000D01*
X133330000Y-88230000D02*
X132580000Y-88230000D01*
X134076116Y-93030000D02*
X134703058Y-92403058D01*
X134703058Y-92403058D02*
X135520000Y-93220000D01*
X133330000Y-88230000D02*
X134076117Y-88230000D01*
X133348058Y-93048058D02*
X133330000Y-93030000D01*
X137540000Y-99870000D02*
X137560000Y-99870000D01*
X135155000Y-89292537D02*
X135155000Y-91951117D01*
X132580000Y-88230000D02*
X128400000Y-84050000D01*
X134227463Y-88365000D02*
X135155000Y-89292537D01*
X135520000Y-97850000D02*
X137540000Y-99870000D01*
X128400000Y-84050000D02*
X124950000Y-84050000D01*
X135155000Y-91951117D02*
X134058059Y-93048058D01*
D42*
%TO.N,VIN*%
X129465000Y-94245000D02*
X129475000Y-94245000D01*
X125712500Y-90492500D02*
X129465000Y-94245000D01*
X129475000Y-94245000D02*
X135020000Y-99790000D01*
X122370000Y-90492500D02*
X125712500Y-90492500D01*
D38*
X124360000Y-87940000D02*
X124950000Y-87350000D01*
X124360000Y-90492500D02*
X124360000Y-87940000D01*
D42*
X135020000Y-99790000D02*
X135020000Y-99870000D01*
D37*
%TO.N,D20*%
X101410000Y-97550000D02*
X101410000Y-99800000D01*
X104300000Y-93760000D02*
X104300000Y-94660000D01*
X104300000Y-94660000D02*
X101410000Y-97550000D01*
%TO.N,RST*%
X102054200Y-92175000D02*
X101435200Y-92794000D01*
X101435200Y-92794000D02*
X101435200Y-92854000D01*
X94520000Y-93635000D02*
X94925000Y-94040000D01*
X100329200Y-93960000D02*
X100399600Y-93889600D01*
X100399600Y-93889600D02*
X101435200Y-92854000D01*
X102715000Y-92175000D02*
X102054200Y-92175000D01*
X88520000Y-93635000D02*
X94520000Y-93635000D01*
X94925000Y-94040000D02*
X100249200Y-94040000D01*
X100249200Y-94040000D02*
X100399600Y-93889600D01*
%TO.N,Net-(J3-CC2)*%
X131505000Y-88880000D02*
X133330000Y-88880000D01*
X131175000Y-89210000D02*
X131505000Y-88880000D01*
%TO.N,Net-(J3-CC1)*%
X133330000Y-91880000D02*
X131290000Y-91880000D01*
X131290000Y-91880000D02*
X131200000Y-91970000D01*
%TD*%
%TA.AperFunction,Conductor*%
%TO.N,GND*%
G36*
X118517621Y-87744407D02*
G01*
X118553585Y-87793907D01*
X118553585Y-87855093D01*
X118529434Y-87894504D01*
X116569676Y-89854262D01*
X116515159Y-89882039D01*
X116454727Y-89872468D01*
X116424854Y-89849091D01*
X116376128Y-89792857D01*
X116376127Y-89792856D01*
X116376126Y-89792855D01*
X116255057Y-89715049D01*
X116255054Y-89715047D01*
X116255053Y-89715047D01*
X116255050Y-89715046D01*
X116116964Y-89674500D01*
X116116961Y-89674500D01*
X115973039Y-89674500D01*
X115973035Y-89674500D01*
X115834943Y-89715048D01*
X115833838Y-89715553D01*
X115831468Y-89716068D01*
X115828153Y-89717042D01*
X115828083Y-89716804D01*
X115792712Y-89724500D01*
X115527288Y-89724500D01*
X115491916Y-89716804D01*
X115491847Y-89717042D01*
X115488531Y-89716068D01*
X115486162Y-89715553D01*
X115485056Y-89715048D01*
X115485049Y-89715046D01*
X115457807Y-89707047D01*
X115346964Y-89674500D01*
X115346961Y-89674500D01*
X115203039Y-89674500D01*
X115203035Y-89674500D01*
X115064943Y-89715048D01*
X115063838Y-89715553D01*
X115061468Y-89716068D01*
X115058153Y-89717042D01*
X115058083Y-89716804D01*
X115022712Y-89724500D01*
X114717288Y-89724500D01*
X114681916Y-89716804D01*
X114681847Y-89717042D01*
X114678531Y-89716068D01*
X114676162Y-89715553D01*
X114675056Y-89715048D01*
X114675049Y-89715046D01*
X114647807Y-89707047D01*
X114536964Y-89674500D01*
X114536961Y-89674500D01*
X114393039Y-89674500D01*
X114393035Y-89674500D01*
X114254949Y-89715046D01*
X114254942Y-89715049D01*
X114133873Y-89792855D01*
X114039622Y-89901628D01*
X113979834Y-90032543D01*
X113959353Y-90174997D01*
X113959353Y-90175002D01*
X113979834Y-90317456D01*
X114016783Y-90398361D01*
X114039623Y-90448373D01*
X114128119Y-90550504D01*
X114133873Y-90557144D01*
X114254942Y-90634950D01*
X114254947Y-90634953D01*
X114361403Y-90666211D01*
X114393035Y-90675499D01*
X114393036Y-90675499D01*
X114393039Y-90675500D01*
X114393041Y-90675500D01*
X114536959Y-90675500D01*
X114536961Y-90675500D01*
X114675053Y-90634953D01*
X114675056Y-90634950D01*
X114676162Y-90634447D01*
X114678531Y-90633931D01*
X114681847Y-90632958D01*
X114681916Y-90633195D01*
X114717288Y-90625500D01*
X115022712Y-90625500D01*
X115058083Y-90633195D01*
X115058153Y-90632958D01*
X115061468Y-90633931D01*
X115063838Y-90634447D01*
X115064943Y-90634951D01*
X115064944Y-90634951D01*
X115064947Y-90634953D01*
X115118470Y-90650668D01*
X115121172Y-90651462D01*
X115171679Y-90685998D01*
X115192241Y-90743625D01*
X115175003Y-90802332D01*
X115144501Y-90831172D01*
X115134817Y-90837026D01*
X115014527Y-90957316D01*
X114926522Y-91102892D01*
X114926521Y-91102894D01*
X114875913Y-91265305D01*
X114869500Y-91335879D01*
X114869500Y-92537917D01*
X114850593Y-92596108D01*
X114820000Y-92623653D01*
X114770890Y-92652006D01*
X114770889Y-92652007D01*
X113794708Y-93628189D01*
X113794707Y-93628190D01*
X113735403Y-93730907D01*
X113735399Y-93730917D01*
X113729167Y-93754179D01*
X113729167Y-93754180D01*
X113704700Y-93845491D01*
X113704700Y-94600500D01*
X113685793Y-94658691D01*
X113636293Y-94694655D01*
X113605700Y-94699500D01*
X113491772Y-94699500D01*
X113449933Y-94690224D01*
X113419493Y-94676029D01*
X113419490Y-94676028D01*
X113389735Y-94672111D01*
X113369901Y-94669500D01*
X113369899Y-94669500D01*
X112950103Y-94669500D01*
X112950092Y-94669501D01*
X112900513Y-94676027D01*
X112870066Y-94690225D01*
X112828228Y-94699500D01*
X111883488Y-94699500D01*
X111848116Y-94691804D01*
X111848047Y-94692042D01*
X111844731Y-94691068D01*
X111842362Y-94690553D01*
X111841256Y-94690048D01*
X111703164Y-94649500D01*
X111703161Y-94649500D01*
X111559239Y-94649500D01*
X111559235Y-94649500D01*
X111421143Y-94690048D01*
X111420038Y-94690553D01*
X111417668Y-94691068D01*
X111414353Y-94692042D01*
X111414283Y-94691804D01*
X111378912Y-94699500D01*
X111252288Y-94699500D01*
X111216916Y-94691804D01*
X111216847Y-94692042D01*
X111213531Y-94691068D01*
X111211162Y-94690553D01*
X111210056Y-94690048D01*
X111071964Y-94649500D01*
X111071961Y-94649500D01*
X110928039Y-94649500D01*
X110928037Y-94649500D01*
X110928033Y-94649501D01*
X110882590Y-94662844D01*
X110821430Y-94661096D01*
X110772978Y-94623733D01*
X110755700Y-94567854D01*
X110755700Y-94283897D01*
X110764646Y-94242771D01*
X110790365Y-94186457D01*
X110790365Y-94186455D01*
X110790366Y-94186454D01*
X110809671Y-94052180D01*
X110836667Y-93997273D01*
X110890781Y-93968719D01*
X110951343Y-93977426D01*
X110995222Y-94020068D01*
X110997898Y-94026681D01*
X110998026Y-94026622D01*
X111051974Y-94142313D01*
X111051975Y-94142314D01*
X111051976Y-94142316D01*
X111136884Y-94227224D01*
X111245713Y-94277972D01*
X111295299Y-94284500D01*
X111655100Y-94284499D01*
X111704687Y-94277972D01*
X111704688Y-94277972D01*
X111766579Y-94249111D01*
X111813516Y-94227224D01*
X111898424Y-94142316D01*
X111949172Y-94033487D01*
X111955700Y-93983901D01*
X111955699Y-93564100D01*
X111949172Y-93514513D01*
X111949172Y-93514511D01*
X111898425Y-93405686D01*
X111898424Y-93405685D01*
X111898424Y-93405684D01*
X111815705Y-93322965D01*
X111787930Y-93268451D01*
X111797501Y-93208019D01*
X111815702Y-93182966D01*
X111844265Y-93154404D01*
X111850475Y-93141085D01*
X111892203Y-93096337D01*
X111952264Y-93084662D01*
X112007717Y-93110519D01*
X112029924Y-93141084D01*
X112036135Y-93154404D01*
X112119796Y-93238065D01*
X112119797Y-93238065D01*
X112119798Y-93238066D01*
X112227024Y-93288067D01*
X112227025Y-93288067D01*
X112227027Y-93288068D01*
X112275884Y-93294500D01*
X112275885Y-93294500D01*
X112624514Y-93294500D01*
X112624516Y-93294500D01*
X112673373Y-93288068D01*
X112780604Y-93238065D01*
X112790174Y-93228494D01*
X112844689Y-93200719D01*
X112860176Y-93199500D01*
X113078568Y-93199500D01*
X113132089Y-93215215D01*
X113200147Y-93258953D01*
X113287153Y-93284500D01*
X113338235Y-93299499D01*
X113338236Y-93299499D01*
X113338239Y-93299500D01*
X113338241Y-93299500D01*
X113482159Y-93299500D01*
X113482161Y-93299500D01*
X113620253Y-93258953D01*
X113741328Y-93181143D01*
X113835577Y-93072373D01*
X113895365Y-92941457D01*
X113910642Y-92835200D01*
X113915847Y-92799002D01*
X113915847Y-92798997D01*
X113895365Y-92656543D01*
X113860785Y-92580824D01*
X113835577Y-92525627D01*
X113741328Y-92416857D01*
X113741327Y-92416856D01*
X113741326Y-92416855D01*
X113623361Y-92341044D01*
X113584629Y-92293678D01*
X113581136Y-92232592D01*
X113614216Y-92181120D01*
X113623350Y-92174483D01*
X113636328Y-92166143D01*
X113730577Y-92057373D01*
X113790365Y-91926457D01*
X113798834Y-91867556D01*
X113810847Y-91784002D01*
X113810847Y-91783997D01*
X113790365Y-91641543D01*
X113759975Y-91575000D01*
X113730577Y-91510627D01*
X113636328Y-91401857D01*
X113636327Y-91401856D01*
X113636326Y-91401855D01*
X113515257Y-91324049D01*
X113515254Y-91324047D01*
X113515253Y-91324047D01*
X113515250Y-91324046D01*
X113377164Y-91283500D01*
X113377161Y-91283500D01*
X113233239Y-91283500D01*
X113233235Y-91283500D01*
X113095149Y-91324046D01*
X113095142Y-91324049D01*
X112979368Y-91398453D01*
X112920193Y-91414008D01*
X112863177Y-91391809D01*
X112855851Y-91385182D01*
X112780604Y-91309935D01*
X112780602Y-91309934D01*
X112780601Y-91309933D01*
X112673375Y-91259932D01*
X112640801Y-91255644D01*
X112624516Y-91253500D01*
X112275884Y-91253500D01*
X112259598Y-91255644D01*
X112227025Y-91259932D01*
X112227024Y-91259932D01*
X112119798Y-91309933D01*
X112036133Y-91393598D01*
X112029924Y-91406915D01*
X111988195Y-91451663D01*
X111928134Y-91463337D01*
X111872682Y-91437478D01*
X111850476Y-91406915D01*
X111844266Y-91393598D01*
X111844265Y-91393597D01*
X111844265Y-91393596D01*
X111815705Y-91365036D01*
X111787930Y-91310522D01*
X111797501Y-91250090D01*
X111815705Y-91225034D01*
X111898424Y-91142316D01*
X111949172Y-91033487D01*
X111955700Y-90983901D01*
X111955699Y-90564100D01*
X111949172Y-90514513D01*
X111949172Y-90514511D01*
X111898425Y-90405686D01*
X111898424Y-90405685D01*
X111898424Y-90405684D01*
X111846741Y-90354001D01*
X111818966Y-90299487D01*
X111828537Y-90239055D01*
X111846740Y-90213999D01*
X111893424Y-90167316D01*
X111944172Y-90058487D01*
X111950700Y-90008901D01*
X111950699Y-89589100D01*
X111944172Y-89539513D01*
X111944172Y-89539511D01*
X111893425Y-89430686D01*
X111893424Y-89430685D01*
X111893424Y-89430684D01*
X111808516Y-89345776D01*
X111808514Y-89345775D01*
X111808513Y-89345774D01*
X111741965Y-89314742D01*
X111697217Y-89273014D01*
X111685542Y-89212953D01*
X111711400Y-89157500D01*
X111713801Y-89155014D01*
X112094321Y-88774496D01*
X112148837Y-88746719D01*
X112164324Y-88745500D01*
X113144799Y-88745500D01*
X113144800Y-88745500D01*
X113246058Y-88703557D01*
X113323557Y-88626058D01*
X114195119Y-87754496D01*
X114249636Y-87726719D01*
X114265123Y-87725500D01*
X118459430Y-87725500D01*
X118517621Y-87744407D01*
G37*
%TD.AperFunction*%
%TA.AperFunction,Conductor*%
G36*
X98833068Y-87194407D02*
G01*
X98844881Y-87204496D01*
X100579880Y-88939496D01*
X100607657Y-88994013D01*
X100598086Y-89054445D01*
X100554821Y-89097710D01*
X100509876Y-89108500D01*
X99785449Y-89108500D01*
X99727258Y-89089593D01*
X99695725Y-89051341D01*
X99693525Y-89046624D01*
X99688424Y-89035684D01*
X99603516Y-88950776D01*
X99603514Y-88950775D01*
X99603513Y-88950774D01*
X99494689Y-88900029D01*
X99494688Y-88900028D01*
X99478158Y-88897852D01*
X99445101Y-88893500D01*
X99445099Y-88893500D01*
X99085304Y-88893500D01*
X99085292Y-88893501D01*
X99035713Y-88900027D01*
X99035711Y-88900027D01*
X98926886Y-88950774D01*
X98841974Y-89035686D01*
X98791229Y-89144510D01*
X98791228Y-89144511D01*
X98784700Y-89194100D01*
X98784700Y-89613896D01*
X98784701Y-89613907D01*
X98791227Y-89663486D01*
X98791227Y-89663488D01*
X98841974Y-89772313D01*
X98841975Y-89772314D01*
X98841976Y-89772316D01*
X98884158Y-89814498D01*
X98911934Y-89869013D01*
X98902363Y-89929445D01*
X98859098Y-89972710D01*
X98814153Y-89983500D01*
X98185452Y-89983500D01*
X98185451Y-89983500D01*
X98185441Y-89983501D01*
X98126972Y-89995132D01*
X98126967Y-89995134D01*
X98092004Y-90018496D01*
X98033116Y-90035104D01*
X97975713Y-90013926D01*
X97967000Y-90006184D01*
X97606257Y-89645442D01*
X97592008Y-89639540D01*
X97592007Y-89639540D01*
X97505000Y-89603500D01*
X97504999Y-89603500D01*
X97015323Y-89603500D01*
X96957132Y-89584593D01*
X96945324Y-89574508D01*
X96884694Y-89513879D01*
X96856918Y-89459363D01*
X96855699Y-89443876D01*
X96855699Y-89184103D01*
X96855698Y-89184092D01*
X96849172Y-89134513D01*
X96849172Y-89134511D01*
X96798425Y-89025686D01*
X96798424Y-89025685D01*
X96798424Y-89025684D01*
X96713516Y-88940776D01*
X96713514Y-88940775D01*
X96713513Y-88940774D01*
X96604689Y-88890029D01*
X96604688Y-88890028D01*
X96588158Y-88887852D01*
X96555101Y-88883500D01*
X96555099Y-88883500D01*
X96195304Y-88883500D01*
X96195292Y-88883501D01*
X96145713Y-88890027D01*
X96145711Y-88890027D01*
X96036886Y-88940774D01*
X95951974Y-89025686D01*
X95901229Y-89134510D01*
X95901228Y-89134511D01*
X95894700Y-89184100D01*
X95894700Y-89603896D01*
X95894701Y-89603907D01*
X95901227Y-89653486D01*
X95901227Y-89653488D01*
X95951974Y-89762313D01*
X95951975Y-89762314D01*
X95951976Y-89762316D01*
X96036884Y-89847224D01*
X96145713Y-89897972D01*
X96195299Y-89904500D01*
X96455075Y-89904499D01*
X96513265Y-89923406D01*
X96525078Y-89933495D01*
X96704143Y-90112559D01*
X96805398Y-90154500D01*
X96805400Y-90154500D01*
X97295077Y-90154500D01*
X97353268Y-90173407D01*
X97365081Y-90183496D01*
X97460704Y-90279119D01*
X97488481Y-90333636D01*
X97489700Y-90349123D01*
X97489700Y-91259500D01*
X97470793Y-91317691D01*
X97421293Y-91353655D01*
X97390700Y-91358500D01*
X96980400Y-91358500D01*
X96905411Y-91389562D01*
X96905410Y-91389562D01*
X96879142Y-91400442D01*
X96625080Y-91654504D01*
X96570564Y-91682281D01*
X96555077Y-91683500D01*
X95985452Y-91683500D01*
X95985451Y-91683500D01*
X95985441Y-91683501D01*
X95926972Y-91695132D01*
X95926966Y-91695134D01*
X95860651Y-91739445D01*
X95860645Y-91739451D01*
X95816334Y-91805766D01*
X95816332Y-91805772D01*
X95804701Y-91864241D01*
X95804700Y-91864253D01*
X95804700Y-93103746D01*
X95804701Y-93103758D01*
X95816332Y-93162227D01*
X95816334Y-93162233D01*
X95860645Y-93228548D01*
X95860648Y-93228552D01*
X95926969Y-93272867D01*
X95969832Y-93281393D01*
X95985441Y-93284498D01*
X95985446Y-93284498D01*
X95985452Y-93284500D01*
X95985453Y-93284500D01*
X97424947Y-93284500D01*
X97424948Y-93284500D01*
X97483431Y-93272867D01*
X97549752Y-93228552D01*
X97594067Y-93162231D01*
X97605700Y-93103748D01*
X97605700Y-92008500D01*
X97624607Y-91950309D01*
X97674107Y-91914345D01*
X97704700Y-91909500D01*
X99669999Y-91909500D01*
X99670000Y-91909500D01*
X99771258Y-91867557D01*
X99848757Y-91790058D01*
X99848756Y-91790058D01*
X100078757Y-91560059D01*
X100078758Y-91560057D01*
X100101177Y-91505933D01*
X100101177Y-91505932D01*
X100110623Y-91483127D01*
X100120700Y-91458800D01*
X100120700Y-90634123D01*
X100139607Y-90575932D01*
X100149696Y-90564119D01*
X100285319Y-90428496D01*
X100339836Y-90400719D01*
X100355323Y-90399500D01*
X100619514Y-90399500D01*
X100619516Y-90399500D01*
X100668373Y-90393068D01*
X100775604Y-90343065D01*
X100859265Y-90259404D01*
X100865475Y-90246085D01*
X100907203Y-90201337D01*
X100967264Y-90189662D01*
X101022717Y-90215519D01*
X101044924Y-90246084D01*
X101051135Y-90259404D01*
X101077193Y-90285462D01*
X101104969Y-90339977D01*
X101095398Y-90400409D01*
X101077192Y-90425467D01*
X100991976Y-90510683D01*
X100991974Y-90510686D01*
X100941229Y-90619510D01*
X100941228Y-90619511D01*
X100934700Y-90669100D01*
X100934700Y-90928876D01*
X100915793Y-90987067D01*
X100905704Y-90998879D01*
X100769142Y-91135442D01*
X100691646Y-91212938D01*
X100691644Y-91212940D01*
X100691643Y-91212942D01*
X100649700Y-91314200D01*
X100649700Y-92038877D01*
X100630793Y-92097068D01*
X100620704Y-92108881D01*
X100425081Y-92304504D01*
X100370564Y-92332281D01*
X100355077Y-92333500D01*
X100240884Y-92333500D01*
X100224598Y-92335644D01*
X100192025Y-92339932D01*
X100192024Y-92339932D01*
X100084798Y-92389933D01*
X100001133Y-92473598D01*
X99951132Y-92580824D01*
X99951132Y-92580825D01*
X99951132Y-92580827D01*
X99944700Y-92629684D01*
X99944700Y-93078316D01*
X99948048Y-93103746D01*
X99951132Y-93127174D01*
X99951132Y-93127175D01*
X100001133Y-93234401D01*
X100001134Y-93234402D01*
X100001135Y-93234404D01*
X100084796Y-93318065D01*
X100084797Y-93318065D01*
X100084798Y-93318066D01*
X100192024Y-93368067D01*
X100192025Y-93368067D01*
X100192027Y-93368068D01*
X100240884Y-93374500D01*
X100286077Y-93374500D01*
X100344268Y-93393407D01*
X100380232Y-93442907D01*
X100380232Y-93504093D01*
X100356080Y-93543504D01*
X100243542Y-93656040D01*
X100243543Y-93656041D01*
X100164080Y-93735504D01*
X100109563Y-93763281D01*
X100094076Y-93764500D01*
X95319500Y-93764500D01*
X95261309Y-93745593D01*
X95225345Y-93696093D01*
X95220500Y-93665500D01*
X95220500Y-93240253D01*
X95220498Y-93240241D01*
X95212049Y-93197766D01*
X95208867Y-93181769D01*
X95164552Y-93115448D01*
X95164548Y-93115445D01*
X95098233Y-93071134D01*
X95098231Y-93071133D01*
X95098228Y-93071132D01*
X95098227Y-93071132D01*
X95039758Y-93059501D01*
X95039748Y-93059500D01*
X94000252Y-93059500D01*
X94000251Y-93059500D01*
X94000241Y-93059501D01*
X93941772Y-93071132D01*
X93941766Y-93071134D01*
X93875451Y-93115445D01*
X93875445Y-93115451D01*
X93831134Y-93181766D01*
X93831132Y-93181772D01*
X93819501Y-93240241D01*
X93819500Y-93240253D01*
X93819500Y-93260500D01*
X93800593Y-93318691D01*
X93751093Y-93354655D01*
X93720500Y-93359500D01*
X89319500Y-93359500D01*
X89261309Y-93340593D01*
X89225345Y-93291093D01*
X89220500Y-93260500D01*
X89220500Y-93240253D01*
X89220498Y-93240241D01*
X89212049Y-93197766D01*
X89208867Y-93181769D01*
X89164552Y-93115448D01*
X89164548Y-93115445D01*
X89098233Y-93071134D01*
X89098231Y-93071133D01*
X89098228Y-93071132D01*
X89098227Y-93071132D01*
X89039758Y-93059501D01*
X89039748Y-93059500D01*
X88139123Y-93059500D01*
X88080932Y-93040593D01*
X88044968Y-92991093D01*
X88044968Y-92929907D01*
X88069119Y-92890496D01*
X90879836Y-90079780D01*
X93755120Y-87204496D01*
X93809637Y-87176719D01*
X93825124Y-87175500D01*
X98774877Y-87175500D01*
X98833068Y-87194407D01*
G37*
%TD.AperFunction*%
%TA.AperFunction,Conductor*%
G36*
X108542610Y-87553773D02*
G01*
X108543248Y-87552233D01*
X108552255Y-87555962D01*
X108552260Y-87555966D01*
X108597209Y-87564907D01*
X108625315Y-87570498D01*
X108625320Y-87570498D01*
X108625326Y-87570500D01*
X108625327Y-87570500D01*
X108774673Y-87570500D01*
X108774674Y-87570500D01*
X108791415Y-87567170D01*
X108852177Y-87574360D01*
X108897108Y-87615891D01*
X108909046Y-87675901D01*
X108907830Y-87683578D01*
X108904501Y-87700315D01*
X108904500Y-87700327D01*
X108904500Y-87849672D01*
X108904501Y-87849684D01*
X108914857Y-87901743D01*
X108919034Y-87922740D01*
X108919035Y-87922742D01*
X108922766Y-87931749D01*
X108920751Y-87932583D01*
X108933811Y-87978888D01*
X108921227Y-88017613D01*
X108922766Y-88018251D01*
X108919033Y-88027263D01*
X108904501Y-88100315D01*
X108904500Y-88100327D01*
X108904500Y-88249672D01*
X108904501Y-88249684D01*
X108919033Y-88322736D01*
X108919034Y-88322740D01*
X108919035Y-88322742D01*
X108922766Y-88331749D01*
X108920751Y-88332583D01*
X108933811Y-88378888D01*
X108921227Y-88417613D01*
X108922766Y-88418251D01*
X108919033Y-88427263D01*
X108904501Y-88500315D01*
X108904500Y-88500327D01*
X108904500Y-88649672D01*
X108904501Y-88649684D01*
X108915217Y-88703553D01*
X108919034Y-88722740D01*
X108919035Y-88722742D01*
X108922766Y-88731749D01*
X108920751Y-88732583D01*
X108933811Y-88778888D01*
X108921227Y-88817613D01*
X108922766Y-88818251D01*
X108919033Y-88827263D01*
X108904501Y-88900315D01*
X108904500Y-88900327D01*
X108904500Y-89049672D01*
X108904501Y-89049684D01*
X108914055Y-89097710D01*
X108919034Y-89122740D01*
X108919035Y-89122742D01*
X108922766Y-89131749D01*
X108920751Y-89132583D01*
X108933811Y-89178888D01*
X108921227Y-89217613D01*
X108922766Y-89218251D01*
X108919033Y-89227263D01*
X108904501Y-89300315D01*
X108904500Y-89300327D01*
X108904500Y-89449672D01*
X108904501Y-89449684D01*
X108919033Y-89522736D01*
X108919034Y-89522740D01*
X108919035Y-89522742D01*
X108922766Y-89531749D01*
X108920751Y-89532583D01*
X108933811Y-89578888D01*
X108921227Y-89617613D01*
X108922766Y-89618251D01*
X108919033Y-89627263D01*
X108904501Y-89700315D01*
X108904500Y-89700327D01*
X108904500Y-89785114D01*
X108885593Y-89843305D01*
X108855001Y-89870850D01*
X108779337Y-89914535D01*
X108718734Y-89975137D01*
X108718735Y-89975138D01*
X108718733Y-89975140D01*
X108718732Y-89975139D01*
X108369735Y-90324137D01*
X108369731Y-90324142D01*
X108326883Y-90398356D01*
X108310457Y-90459661D01*
X108310456Y-90459660D01*
X108304700Y-90481144D01*
X108304700Y-91998165D01*
X108285793Y-92056356D01*
X108275704Y-92068169D01*
X108232169Y-92111704D01*
X108177652Y-92139481D01*
X108162165Y-92140700D01*
X104817033Y-92140700D01*
X104758842Y-92121793D01*
X104747029Y-92111703D01*
X104434696Y-91799369D01*
X104406919Y-91744853D01*
X104405700Y-91729366D01*
X104405700Y-91256148D01*
X104405699Y-91256144D01*
X104403919Y-91249500D01*
X104383518Y-91173361D01*
X104383516Y-91173358D01*
X104383516Y-91173356D01*
X104340668Y-91099142D01*
X104340664Y-91099137D01*
X104057904Y-90816376D01*
X104030127Y-90761860D01*
X104037855Y-90705246D01*
X104040923Y-90698528D01*
X104089365Y-90592457D01*
X104109847Y-90450000D01*
X104109613Y-90448373D01*
X104089365Y-90307543D01*
X104064101Y-90252224D01*
X104029577Y-90176627D01*
X103935328Y-90067857D01*
X103935327Y-90067856D01*
X103935326Y-90067855D01*
X103814257Y-89990049D01*
X103814254Y-89990047D01*
X103814253Y-89990047D01*
X103810279Y-89988880D01*
X103676164Y-89949500D01*
X103676161Y-89949500D01*
X103532239Y-89949500D01*
X103532235Y-89949500D01*
X103416615Y-89983449D01*
X103355454Y-89981701D01*
X103307002Y-89944338D01*
X103289764Y-89885631D01*
X103291626Y-89869149D01*
X103295500Y-89849674D01*
X103295500Y-89700326D01*
X103280966Y-89627260D01*
X103280200Y-89626114D01*
X103225602Y-89544400D01*
X103225599Y-89544397D01*
X103142742Y-89489035D01*
X103142740Y-89489034D01*
X103142737Y-89489033D01*
X103142736Y-89489033D01*
X103069684Y-89474501D01*
X103069674Y-89474500D01*
X102360326Y-89474500D01*
X102360325Y-89474500D01*
X102343092Y-89477928D01*
X102288895Y-89488708D01*
X102228136Y-89481518D01*
X102199580Y-89461616D01*
X102157466Y-89419502D01*
X102129690Y-89364987D01*
X102139261Y-89304555D01*
X102182526Y-89261290D01*
X102227471Y-89250500D01*
X102242301Y-89250500D01*
X102280185Y-89258035D01*
X102287255Y-89260962D01*
X102287260Y-89260966D01*
X102342808Y-89272015D01*
X102360315Y-89275498D01*
X102360320Y-89275498D01*
X102360326Y-89275500D01*
X102360327Y-89275500D01*
X103069673Y-89275500D01*
X103069674Y-89275500D01*
X103142740Y-89260966D01*
X103225601Y-89205601D01*
X103280966Y-89122740D01*
X103295500Y-89049674D01*
X103295500Y-88900326D01*
X103294142Y-88893501D01*
X103291376Y-88879596D01*
X103280966Y-88827260D01*
X103280962Y-88827255D01*
X103277233Y-88818248D01*
X103279248Y-88817413D01*
X103266189Y-88771120D01*
X103278773Y-88732389D01*
X103277233Y-88731752D01*
X103280961Y-88722746D01*
X103280966Y-88722740D01*
X103295500Y-88649674D01*
X103295500Y-88500326D01*
X103294384Y-88494718D01*
X103290643Y-88475910D01*
X103280966Y-88427260D01*
X103280962Y-88427255D01*
X103277233Y-88418248D01*
X103279248Y-88417413D01*
X103266189Y-88371120D01*
X103278773Y-88332389D01*
X103277233Y-88331752D01*
X103280961Y-88322746D01*
X103280966Y-88322740D01*
X103295500Y-88249674D01*
X103295500Y-88100326D01*
X103280966Y-88027260D01*
X103280962Y-88027255D01*
X103277233Y-88018248D01*
X103279248Y-88017413D01*
X103266189Y-87971120D01*
X103278773Y-87932389D01*
X103277233Y-87931752D01*
X103280961Y-87922746D01*
X103280966Y-87922740D01*
X103295500Y-87849674D01*
X103295500Y-87700326D01*
X103295499Y-87700324D01*
X103295499Y-87700317D01*
X103292170Y-87683583D01*
X103299360Y-87622821D01*
X103340892Y-87577891D01*
X103400901Y-87565953D01*
X103408583Y-87567170D01*
X103425317Y-87570499D01*
X103425324Y-87570499D01*
X103425326Y-87570500D01*
X103425327Y-87570500D01*
X103574673Y-87570500D01*
X103574674Y-87570500D01*
X103647740Y-87555966D01*
X103647746Y-87555961D01*
X103656752Y-87552233D01*
X103657586Y-87554248D01*
X103703880Y-87541189D01*
X103742610Y-87553773D01*
X103743248Y-87552233D01*
X103752255Y-87555962D01*
X103752260Y-87555966D01*
X103797209Y-87564907D01*
X103825315Y-87570498D01*
X103825320Y-87570498D01*
X103825326Y-87570500D01*
X103825327Y-87570500D01*
X103974673Y-87570500D01*
X103974674Y-87570500D01*
X104047740Y-87555966D01*
X104047746Y-87555961D01*
X104056752Y-87552233D01*
X104057586Y-87554248D01*
X104103880Y-87541189D01*
X104142610Y-87553773D01*
X104143248Y-87552233D01*
X104152255Y-87555962D01*
X104152260Y-87555966D01*
X104197209Y-87564907D01*
X104225315Y-87570498D01*
X104225320Y-87570498D01*
X104225326Y-87570500D01*
X104225327Y-87570500D01*
X104374673Y-87570500D01*
X104374674Y-87570500D01*
X104447740Y-87555966D01*
X104447746Y-87555961D01*
X104456752Y-87552233D01*
X104457586Y-87554248D01*
X104503880Y-87541189D01*
X104555010Y-87557803D01*
X104558233Y-87559957D01*
X104596107Y-87608011D01*
X104601216Y-87656354D01*
X104600205Y-87663386D01*
X104594895Y-87700327D01*
X104594353Y-87704094D01*
X104614833Y-87846546D01*
X104618737Y-87855093D01*
X104628666Y-87876835D01*
X104634236Y-87892329D01*
X104646685Y-87938788D01*
X104646686Y-87938790D01*
X104646687Y-87938793D01*
X104699408Y-88030108D01*
X104699410Y-88030110D01*
X104699412Y-88030113D01*
X104773979Y-88104680D01*
X104773981Y-88104681D01*
X104773983Y-88104683D01*
X104865298Y-88157404D01*
X104865299Y-88157404D01*
X104865304Y-88157407D01*
X104876278Y-88160347D01*
X104887432Y-88163336D01*
X104889702Y-88163973D01*
X105028035Y-88204591D01*
X105028036Y-88204591D01*
X105028039Y-88204592D01*
X105028041Y-88204592D01*
X105171959Y-88204592D01*
X105171961Y-88204592D01*
X105310053Y-88164045D01*
X105431128Y-88086235D01*
X105525377Y-87977465D01*
X105585165Y-87846549D01*
X105600758Y-87738097D01*
X105605647Y-87704094D01*
X105605647Y-87704092D01*
X105605106Y-87700327D01*
X105598783Y-87656355D01*
X105609215Y-87596069D01*
X105641789Y-87559941D01*
X105645014Y-87557787D01*
X105703905Y-87541190D01*
X105742610Y-87553771D01*
X105743248Y-87552233D01*
X105752255Y-87555962D01*
X105752260Y-87555966D01*
X105797209Y-87564907D01*
X105825315Y-87570498D01*
X105825320Y-87570498D01*
X105825326Y-87570500D01*
X105825327Y-87570500D01*
X105974673Y-87570500D01*
X105974674Y-87570500D01*
X106047740Y-87555966D01*
X106047746Y-87555961D01*
X106056752Y-87552233D01*
X106057586Y-87554248D01*
X106103880Y-87541189D01*
X106142610Y-87553773D01*
X106143248Y-87552233D01*
X106152255Y-87555962D01*
X106152260Y-87555966D01*
X106197209Y-87564907D01*
X106225315Y-87570498D01*
X106225320Y-87570498D01*
X106225326Y-87570500D01*
X106225327Y-87570500D01*
X106374673Y-87570500D01*
X106374674Y-87570500D01*
X106447740Y-87555966D01*
X106447746Y-87555961D01*
X106456752Y-87552233D01*
X106457586Y-87554248D01*
X106503880Y-87541189D01*
X106542610Y-87553773D01*
X106543248Y-87552233D01*
X106552255Y-87555962D01*
X106552260Y-87555966D01*
X106597209Y-87564907D01*
X106625315Y-87570498D01*
X106625320Y-87570498D01*
X106625326Y-87570500D01*
X106625327Y-87570500D01*
X106774673Y-87570500D01*
X106774674Y-87570500D01*
X106847740Y-87555966D01*
X106847746Y-87555961D01*
X106856752Y-87552233D01*
X106857586Y-87554248D01*
X106903880Y-87541189D01*
X106942610Y-87553773D01*
X106943248Y-87552233D01*
X106952255Y-87555962D01*
X106952260Y-87555966D01*
X106997209Y-87564907D01*
X107025315Y-87570498D01*
X107025320Y-87570498D01*
X107025326Y-87570500D01*
X107025327Y-87570500D01*
X107174673Y-87570500D01*
X107174674Y-87570500D01*
X107247740Y-87555966D01*
X107247746Y-87555961D01*
X107256752Y-87552233D01*
X107257586Y-87554248D01*
X107303880Y-87541189D01*
X107342610Y-87553773D01*
X107343248Y-87552233D01*
X107352255Y-87555962D01*
X107352260Y-87555966D01*
X107397209Y-87564907D01*
X107425315Y-87570498D01*
X107425320Y-87570498D01*
X107425326Y-87570500D01*
X107425327Y-87570500D01*
X107574673Y-87570500D01*
X107574674Y-87570500D01*
X107647740Y-87555966D01*
X107647746Y-87555961D01*
X107656752Y-87552233D01*
X107657586Y-87554248D01*
X107703880Y-87541189D01*
X107742610Y-87553773D01*
X107743248Y-87552233D01*
X107752255Y-87555962D01*
X107752260Y-87555966D01*
X107797209Y-87564907D01*
X107825315Y-87570498D01*
X107825320Y-87570498D01*
X107825326Y-87570500D01*
X107825327Y-87570500D01*
X107974673Y-87570500D01*
X107974674Y-87570500D01*
X108047740Y-87555966D01*
X108047746Y-87555961D01*
X108056752Y-87552233D01*
X108057586Y-87554248D01*
X108103880Y-87541189D01*
X108142610Y-87553773D01*
X108143248Y-87552233D01*
X108152255Y-87555962D01*
X108152260Y-87555966D01*
X108197209Y-87564907D01*
X108225315Y-87570498D01*
X108225320Y-87570498D01*
X108225326Y-87570500D01*
X108225327Y-87570500D01*
X108374673Y-87570500D01*
X108374674Y-87570500D01*
X108447740Y-87555966D01*
X108447746Y-87555961D01*
X108456752Y-87552233D01*
X108457586Y-87554248D01*
X108503880Y-87541189D01*
X108542610Y-87553773D01*
G37*
%TD.AperFunction*%
%TA.AperFunction,Conductor*%
G36*
X140638691Y-77299407D02*
G01*
X140674655Y-77348907D01*
X140679500Y-77379500D01*
X140679500Y-101780500D01*
X140660593Y-101838691D01*
X140611093Y-101874655D01*
X140580500Y-101879500D01*
X87179500Y-101879500D01*
X87121309Y-101860593D01*
X87085345Y-101811093D01*
X87080500Y-101780500D01*
X87080500Y-92835200D01*
X87404500Y-92835200D01*
X87404500Y-98824800D01*
X87433482Y-98894768D01*
X87446443Y-98926058D01*
X87746129Y-99225744D01*
X87773905Y-99280259D01*
X87764334Y-99340691D01*
X87763434Y-99342414D01*
X87734770Y-99396040D01*
X87734768Y-99396045D01*
X87674699Y-99594065D01*
X87674698Y-99594070D01*
X87654417Y-99799996D01*
X87654417Y-99800003D01*
X87674698Y-100005929D01*
X87674699Y-100005934D01*
X87734768Y-100203954D01*
X87832316Y-100386452D01*
X87963585Y-100546404D01*
X87963590Y-100546410D01*
X87963595Y-100546414D01*
X88123547Y-100677683D01*
X88123548Y-100677683D01*
X88123550Y-100677685D01*
X88306046Y-100775232D01*
X88443997Y-100817078D01*
X88504065Y-100835300D01*
X88504070Y-100835301D01*
X88709997Y-100855583D01*
X88710000Y-100855583D01*
X88710003Y-100855583D01*
X88915929Y-100835301D01*
X88915934Y-100835300D01*
X89113954Y-100775232D01*
X89296450Y-100677685D01*
X89456410Y-100546410D01*
X89587685Y-100386450D01*
X89685232Y-100203954D01*
X89745300Y-100005934D01*
X89745301Y-100005929D01*
X89765583Y-99800003D01*
X89765583Y-99799996D01*
X89745301Y-99594070D01*
X89745300Y-99594065D01*
X89706466Y-99466046D01*
X89685232Y-99396046D01*
X89587685Y-99213550D01*
X89587680Y-99213544D01*
X89456414Y-99053595D01*
X89456410Y-99053590D01*
X89391478Y-99000302D01*
X89296452Y-98922316D01*
X89113954Y-98824768D01*
X88915934Y-98764699D01*
X88915929Y-98764698D01*
X88710003Y-98744417D01*
X88709997Y-98744417D01*
X88504070Y-98764698D01*
X88504065Y-98764699D01*
X88306045Y-98824768D01*
X88306040Y-98824770D01*
X88252415Y-98853434D01*
X88192183Y-98864190D01*
X88137131Y-98837489D01*
X88135743Y-98836128D01*
X87984496Y-98684881D01*
X87956719Y-98630364D01*
X87955500Y-98614877D01*
X87955500Y-94309500D01*
X87974407Y-94251309D01*
X88023907Y-94215345D01*
X88054500Y-94210500D01*
X89039747Y-94210500D01*
X89039748Y-94210500D01*
X89098231Y-94198867D01*
X89164552Y-94154552D01*
X89208867Y-94088231D01*
X89220500Y-94029748D01*
X89220500Y-94009500D01*
X89239407Y-93951309D01*
X89288907Y-93915345D01*
X89319500Y-93910500D01*
X93720500Y-93910500D01*
X93778691Y-93929407D01*
X93814655Y-93978907D01*
X93819500Y-94009500D01*
X93819500Y-94029746D01*
X93819501Y-94029758D01*
X93831132Y-94088227D01*
X93831134Y-94088233D01*
X93867270Y-94142313D01*
X93875448Y-94154552D01*
X93941769Y-94198867D01*
X93986231Y-94207711D01*
X94000241Y-94210498D01*
X94000246Y-94210498D01*
X94000252Y-94210500D01*
X94664876Y-94210500D01*
X94723067Y-94229407D01*
X94734879Y-94239496D01*
X94757745Y-94262361D01*
X94768941Y-94273557D01*
X94795354Y-94284497D01*
X94795357Y-94284500D01*
X94795358Y-94284499D01*
X94870200Y-94315500D01*
X96105876Y-94315500D01*
X96164067Y-94334407D01*
X96200031Y-94383907D01*
X96200031Y-94445093D01*
X96175880Y-94484504D01*
X91824256Y-98836127D01*
X91769739Y-98863904D01*
X91709307Y-98854333D01*
X91707584Y-98853433D01*
X91653959Y-98824770D01*
X91653954Y-98824768D01*
X91455934Y-98764699D01*
X91455929Y-98764698D01*
X91250003Y-98744417D01*
X91249997Y-98744417D01*
X91044070Y-98764698D01*
X91044065Y-98764699D01*
X90846045Y-98824768D01*
X90663547Y-98922316D01*
X90503595Y-99053585D01*
X90503585Y-99053595D01*
X90372316Y-99213547D01*
X90274768Y-99396045D01*
X90214699Y-99594065D01*
X90214698Y-99594070D01*
X90194417Y-99799996D01*
X90194417Y-99800003D01*
X90214698Y-100005929D01*
X90214699Y-100005934D01*
X90274768Y-100203954D01*
X90372316Y-100386452D01*
X90503585Y-100546404D01*
X90503590Y-100546410D01*
X90503595Y-100546414D01*
X90663547Y-100677683D01*
X90663548Y-100677683D01*
X90663550Y-100677685D01*
X90846046Y-100775232D01*
X90983997Y-100817078D01*
X91044065Y-100835300D01*
X91044070Y-100835301D01*
X91249997Y-100855583D01*
X91250000Y-100855583D01*
X91250003Y-100855583D01*
X91455929Y-100835301D01*
X91455934Y-100835300D01*
X91653954Y-100775232D01*
X91836450Y-100677685D01*
X91996410Y-100546410D01*
X92127685Y-100386450D01*
X92225232Y-100203954D01*
X92285300Y-100005934D01*
X92285301Y-100005929D01*
X92305583Y-99800003D01*
X92305583Y-99799996D01*
X92285301Y-99594070D01*
X92285300Y-99594065D01*
X92246466Y-99466046D01*
X92225232Y-99396046D01*
X92196564Y-99342414D01*
X92185809Y-99282183D01*
X92212510Y-99227131D01*
X92213821Y-99225792D01*
X96845120Y-94594496D01*
X96899637Y-94566719D01*
X96915124Y-94565500D01*
X97495876Y-94565500D01*
X97554067Y-94584407D01*
X97590031Y-94633907D01*
X97590031Y-94695093D01*
X97565880Y-94734504D01*
X93633942Y-98666443D01*
X93633941Y-98666442D01*
X93556441Y-98743943D01*
X93551702Y-98751036D01*
X93503650Y-98788914D01*
X93498128Y-98790768D01*
X93453896Y-98804186D01*
X93386046Y-98824768D01*
X93386044Y-98824768D01*
X93386044Y-98824769D01*
X93203547Y-98922316D01*
X93043595Y-99053585D01*
X93043585Y-99053595D01*
X92912316Y-99213547D01*
X92814768Y-99396045D01*
X92754699Y-99594065D01*
X92754698Y-99594070D01*
X92734417Y-99799996D01*
X92734417Y-99800003D01*
X92754698Y-100005929D01*
X92754699Y-100005934D01*
X92814768Y-100203954D01*
X92912316Y-100386452D01*
X93043585Y-100546404D01*
X93043590Y-100546410D01*
X93043595Y-100546414D01*
X93203547Y-100677683D01*
X93203548Y-100677683D01*
X93203550Y-100677685D01*
X93386046Y-100775232D01*
X93523997Y-100817078D01*
X93584065Y-100835300D01*
X93584070Y-100835301D01*
X93789997Y-100855583D01*
X93790000Y-100855583D01*
X93790003Y-100855583D01*
X93995929Y-100835301D01*
X93995934Y-100835300D01*
X94193954Y-100775232D01*
X94376450Y-100677685D01*
X94536410Y-100546410D01*
X94667685Y-100386450D01*
X94765232Y-100203954D01*
X94825300Y-100005934D01*
X94825301Y-100005929D01*
X94845583Y-99800003D01*
X94845583Y-99799996D01*
X94825301Y-99594070D01*
X94825300Y-99594065D01*
X94786466Y-99466046D01*
X94765232Y-99396046D01*
X94667685Y-99213550D01*
X94667680Y-99213544D01*
X94536414Y-99053595D01*
X94536410Y-99053590D01*
X94376450Y-98922315D01*
X94371470Y-98919653D01*
X94351357Y-98908902D01*
X94308952Y-98864795D01*
X94300570Y-98804186D01*
X94328022Y-98751591D01*
X98235120Y-94844496D01*
X98289637Y-94816719D01*
X98305124Y-94815500D01*
X101204799Y-94815500D01*
X101204800Y-94815500D01*
X101306058Y-94773557D01*
X101383557Y-94696058D01*
X101383556Y-94696058D01*
X102775120Y-93304496D01*
X102829637Y-93276719D01*
X102845124Y-93275500D01*
X103069673Y-93275500D01*
X103069674Y-93275500D01*
X103086415Y-93272170D01*
X103147177Y-93279360D01*
X103192108Y-93320891D01*
X103204046Y-93380901D01*
X103202830Y-93388578D01*
X103199501Y-93405315D01*
X103199500Y-93405325D01*
X103199500Y-93405326D01*
X103199500Y-94114674D01*
X103214034Y-94187740D01*
X103214035Y-94187741D01*
X103216963Y-94194810D01*
X103224500Y-94232698D01*
X103224500Y-94597769D01*
X103205593Y-94655960D01*
X103195504Y-94667773D01*
X102467773Y-95395504D01*
X102413256Y-95423281D01*
X102397769Y-95424500D01*
X100375198Y-95424500D01*
X100273944Y-95466440D01*
X96904256Y-98836127D01*
X96849739Y-98863904D01*
X96789307Y-98854333D01*
X96787584Y-98853433D01*
X96733959Y-98824770D01*
X96733954Y-98824768D01*
X96535934Y-98764699D01*
X96535929Y-98764698D01*
X96330003Y-98744417D01*
X96329997Y-98744417D01*
X96124070Y-98764698D01*
X96124065Y-98764699D01*
X95926045Y-98824768D01*
X95743547Y-98922316D01*
X95583595Y-99053585D01*
X95583585Y-99053595D01*
X95452316Y-99213547D01*
X95354768Y-99396045D01*
X95294699Y-99594065D01*
X95294698Y-99594070D01*
X95274417Y-99799996D01*
X95274417Y-99800003D01*
X95294698Y-100005929D01*
X95294699Y-100005934D01*
X95354768Y-100203954D01*
X95452316Y-100386452D01*
X95583585Y-100546404D01*
X95583590Y-100546410D01*
X95583595Y-100546414D01*
X95743547Y-100677683D01*
X95743548Y-100677683D01*
X95743550Y-100677685D01*
X95926046Y-100775232D01*
X96063997Y-100817078D01*
X96124065Y-100835300D01*
X96124070Y-100835301D01*
X96329997Y-100855583D01*
X96330000Y-100855583D01*
X96330003Y-100855583D01*
X96535929Y-100835301D01*
X96535934Y-100835300D01*
X96733954Y-100775232D01*
X96916450Y-100677685D01*
X97076410Y-100546410D01*
X97207685Y-100386450D01*
X97305232Y-100203954D01*
X97365300Y-100005934D01*
X97365301Y-100005929D01*
X97385583Y-99800003D01*
X97385583Y-99799996D01*
X97365301Y-99594070D01*
X97365300Y-99594065D01*
X97326466Y-99466046D01*
X97305232Y-99396046D01*
X97276564Y-99342414D01*
X97265809Y-99282183D01*
X97292510Y-99227131D01*
X97293820Y-99225793D01*
X100515120Y-96004496D01*
X100569637Y-95976719D01*
X100585124Y-95975500D01*
X102002322Y-95975500D01*
X102060513Y-95994407D01*
X102096477Y-96043907D01*
X102096477Y-96105093D01*
X102072326Y-96144504D01*
X99402839Y-98813990D01*
X99348322Y-98841767D01*
X99287890Y-98832196D01*
X99286165Y-98831295D01*
X99273957Y-98824769D01*
X99273954Y-98824768D01*
X99075934Y-98764699D01*
X99075929Y-98764698D01*
X98870003Y-98744417D01*
X98869997Y-98744417D01*
X98664070Y-98764698D01*
X98664065Y-98764699D01*
X98466045Y-98824768D01*
X98283547Y-98922316D01*
X98123595Y-99053585D01*
X98123585Y-99053595D01*
X97992316Y-99213547D01*
X97894768Y-99396045D01*
X97834699Y-99594065D01*
X97834698Y-99594070D01*
X97814417Y-99799996D01*
X97814417Y-99800003D01*
X97834698Y-100005929D01*
X97834699Y-100005934D01*
X97894768Y-100203954D01*
X97992316Y-100386452D01*
X98123585Y-100546404D01*
X98123590Y-100546410D01*
X98123595Y-100546414D01*
X98283547Y-100677683D01*
X98283548Y-100677683D01*
X98283550Y-100677685D01*
X98466046Y-100775232D01*
X98603997Y-100817078D01*
X98664065Y-100835300D01*
X98664070Y-100835301D01*
X98869997Y-100855583D01*
X98870000Y-100855583D01*
X98870003Y-100855583D01*
X99075929Y-100835301D01*
X99075934Y-100835300D01*
X99273954Y-100775232D01*
X99456450Y-100677685D01*
X99616410Y-100546410D01*
X99747685Y-100386450D01*
X99845232Y-100203954D01*
X99905300Y-100005934D01*
X99905301Y-100005929D01*
X99925583Y-99800003D01*
X99925583Y-99799996D01*
X99905301Y-99594070D01*
X99905300Y-99594065D01*
X99866466Y-99466046D01*
X99845232Y-99396046D01*
X99794426Y-99300997D01*
X99783671Y-99240767D01*
X99810372Y-99185715D01*
X99811682Y-99184377D01*
X100965497Y-98030563D01*
X101020013Y-98002787D01*
X101080445Y-98012358D01*
X101123710Y-98055623D01*
X101134500Y-98100568D01*
X101134500Y-98712378D01*
X101115593Y-98770569D01*
X101066093Y-98806533D01*
X101064239Y-98807115D01*
X101006044Y-98824768D01*
X100823547Y-98922316D01*
X100663595Y-99053585D01*
X100663585Y-99053595D01*
X100532316Y-99213547D01*
X100434768Y-99396045D01*
X100374699Y-99594065D01*
X100374698Y-99594070D01*
X100354417Y-99799996D01*
X100354417Y-99800003D01*
X100374698Y-100005929D01*
X100374699Y-100005934D01*
X100434768Y-100203954D01*
X100532316Y-100386452D01*
X100663585Y-100546404D01*
X100663590Y-100546410D01*
X100663595Y-100546414D01*
X100823547Y-100677683D01*
X100823548Y-100677683D01*
X100823550Y-100677685D01*
X101006046Y-100775232D01*
X101143997Y-100817078D01*
X101204065Y-100835300D01*
X101204070Y-100835301D01*
X101409997Y-100855583D01*
X101410000Y-100855583D01*
X101410003Y-100855583D01*
X101615929Y-100835301D01*
X101615934Y-100835300D01*
X101813954Y-100775232D01*
X101996450Y-100677685D01*
X102156410Y-100546410D01*
X102287685Y-100386450D01*
X102385232Y-100203954D01*
X102445300Y-100005934D01*
X102445301Y-100005929D01*
X102465583Y-99800003D01*
X102465583Y-99799996D01*
X102445301Y-99594070D01*
X102445300Y-99594065D01*
X102406466Y-99466046D01*
X102385232Y-99396046D01*
X102287685Y-99213550D01*
X102287680Y-99213544D01*
X102156414Y-99053595D01*
X102156410Y-99053590D01*
X102091478Y-99000302D01*
X101996452Y-98922316D01*
X101813955Y-98824768D01*
X101755761Y-98807115D01*
X101705564Y-98772129D01*
X101685519Y-98714320D01*
X101685500Y-98712378D01*
X101685500Y-97705123D01*
X101704407Y-97646932D01*
X101714496Y-97635119D01*
X103505496Y-95844119D01*
X103560013Y-95816342D01*
X103620445Y-95825913D01*
X103663710Y-95869178D01*
X103674500Y-95914123D01*
X103674500Y-98712378D01*
X103655593Y-98770569D01*
X103606093Y-98806533D01*
X103604239Y-98807115D01*
X103546044Y-98824768D01*
X103363547Y-98922316D01*
X103203595Y-99053585D01*
X103203585Y-99053595D01*
X103072316Y-99213547D01*
X102974768Y-99396045D01*
X102914699Y-99594065D01*
X102914698Y-99594070D01*
X102894417Y-99799996D01*
X102894417Y-99800003D01*
X102914698Y-100005929D01*
X102914699Y-100005934D01*
X102974768Y-100203954D01*
X103072316Y-100386452D01*
X103203585Y-100546404D01*
X103203590Y-100546410D01*
X103203595Y-100546414D01*
X103363547Y-100677683D01*
X103363548Y-100677683D01*
X103363550Y-100677685D01*
X103546046Y-100775232D01*
X103683997Y-100817078D01*
X103744065Y-100835300D01*
X103744070Y-100835301D01*
X103949997Y-100855583D01*
X103950000Y-100855583D01*
X103950003Y-100855583D01*
X104155929Y-100835301D01*
X104155934Y-100835300D01*
X104353954Y-100775232D01*
X104536450Y-100677685D01*
X104696410Y-100546410D01*
X104827685Y-100386450D01*
X104925232Y-100203954D01*
X104985300Y-100005934D01*
X104985301Y-100005929D01*
X105005583Y-99800003D01*
X105005583Y-99799996D01*
X104985301Y-99594070D01*
X104985300Y-99594065D01*
X104946466Y-99466046D01*
X104925232Y-99396046D01*
X104827685Y-99213550D01*
X104827680Y-99213544D01*
X104696414Y-99053595D01*
X104696410Y-99053590D01*
X104631478Y-99000302D01*
X104536452Y-98922316D01*
X104353955Y-98824768D01*
X104295761Y-98807115D01*
X104245564Y-98772129D01*
X104225519Y-98714320D01*
X104225500Y-98712378D01*
X104225500Y-95545121D01*
X104244407Y-95486930D01*
X104254490Y-95475124D01*
X104436934Y-95292679D01*
X104491449Y-95264903D01*
X104551881Y-95274474D01*
X104595146Y-95317739D01*
X104596660Y-95320844D01*
X104646774Y-95428313D01*
X104646775Y-95428314D01*
X104646776Y-95428316D01*
X104731684Y-95513224D01*
X104840513Y-95563972D01*
X104890099Y-95570500D01*
X105275500Y-95570499D01*
X105333691Y-95589406D01*
X105369655Y-95638906D01*
X105374500Y-95669499D01*
X105374500Y-96418353D01*
X105405651Y-96493558D01*
X105416442Y-96519611D01*
X106185504Y-97288673D01*
X106213281Y-97343190D01*
X106214500Y-97358677D01*
X106214500Y-98712378D01*
X106195593Y-98770569D01*
X106146093Y-98806533D01*
X106144239Y-98807115D01*
X106086044Y-98824768D01*
X105903547Y-98922316D01*
X105743595Y-99053585D01*
X105743585Y-99053595D01*
X105612316Y-99213547D01*
X105514768Y-99396045D01*
X105454699Y-99594065D01*
X105454698Y-99594070D01*
X105434417Y-99799996D01*
X105434417Y-99800003D01*
X105454698Y-100005929D01*
X105454699Y-100005934D01*
X105514768Y-100203954D01*
X105612316Y-100386452D01*
X105743585Y-100546404D01*
X105743590Y-100546410D01*
X105743595Y-100546414D01*
X105903547Y-100677683D01*
X105903548Y-100677683D01*
X105903550Y-100677685D01*
X106086046Y-100775232D01*
X106223997Y-100817078D01*
X106284065Y-100835300D01*
X106284070Y-100835301D01*
X106489997Y-100855583D01*
X106490000Y-100855583D01*
X106490003Y-100855583D01*
X106695929Y-100835301D01*
X106695934Y-100835300D01*
X106893954Y-100775232D01*
X107076450Y-100677685D01*
X107236410Y-100546410D01*
X107367685Y-100386450D01*
X107465232Y-100203954D01*
X107525300Y-100005934D01*
X107525301Y-100005929D01*
X107545583Y-99800003D01*
X107545583Y-99799996D01*
X107525301Y-99594070D01*
X107525300Y-99594065D01*
X107486466Y-99466046D01*
X107465232Y-99396046D01*
X107367685Y-99213550D01*
X107367680Y-99213544D01*
X107236414Y-99053595D01*
X107236410Y-99053590D01*
X107171478Y-99000302D01*
X107076452Y-98922316D01*
X106893955Y-98824768D01*
X106835761Y-98807115D01*
X106785564Y-98772129D01*
X106765519Y-98714320D01*
X106765500Y-98712378D01*
X106765500Y-97754123D01*
X106784407Y-97695932D01*
X106833907Y-97659968D01*
X106895093Y-97659968D01*
X106934503Y-97684118D01*
X107615371Y-98364987D01*
X108229330Y-98978946D01*
X108257107Y-99033463D01*
X108247536Y-99093895D01*
X108235855Y-99111754D01*
X108152316Y-99213547D01*
X108054768Y-99396045D01*
X107994699Y-99594065D01*
X107994698Y-99594070D01*
X107974417Y-99799996D01*
X107974417Y-99800003D01*
X107994698Y-100005929D01*
X107994699Y-100005934D01*
X108054768Y-100203954D01*
X108152316Y-100386452D01*
X108283585Y-100546404D01*
X108283590Y-100546410D01*
X108283595Y-100546414D01*
X108443547Y-100677683D01*
X108443548Y-100677683D01*
X108443550Y-100677685D01*
X108626046Y-100775232D01*
X108763997Y-100817078D01*
X108824065Y-100835300D01*
X108824070Y-100835301D01*
X109029997Y-100855583D01*
X109030000Y-100855583D01*
X109030003Y-100855583D01*
X109235929Y-100835301D01*
X109235934Y-100835300D01*
X109433954Y-100775232D01*
X109616450Y-100677685D01*
X109776410Y-100546410D01*
X109907685Y-100386450D01*
X110005232Y-100203954D01*
X110065300Y-100005934D01*
X110065301Y-100005929D01*
X110085583Y-99800003D01*
X110085583Y-99799996D01*
X110065301Y-99594070D01*
X110065300Y-99594065D01*
X110026466Y-99466046D01*
X110005232Y-99396046D01*
X109907685Y-99213550D01*
X109907502Y-99213327D01*
X109906660Y-99212300D01*
X109906391Y-99211614D01*
X109904981Y-99209503D01*
X109905444Y-99209193D01*
X109884363Y-99155322D01*
X109899816Y-99096120D01*
X109947115Y-99057308D01*
X109983192Y-99050500D01*
X110389877Y-99050500D01*
X110448068Y-99069407D01*
X110459881Y-99079496D01*
X110606128Y-99225743D01*
X110633905Y-99280260D01*
X110624334Y-99340692D01*
X110623434Y-99342415D01*
X110594770Y-99396040D01*
X110594768Y-99396045D01*
X110534699Y-99594065D01*
X110534698Y-99594070D01*
X110514417Y-99799996D01*
X110514417Y-99800003D01*
X110534698Y-100005929D01*
X110534699Y-100005934D01*
X110594768Y-100203954D01*
X110692316Y-100386452D01*
X110823585Y-100546404D01*
X110823590Y-100546410D01*
X110823595Y-100546414D01*
X110983547Y-100677683D01*
X110983548Y-100677683D01*
X110983550Y-100677685D01*
X111166046Y-100775232D01*
X111303997Y-100817078D01*
X111364065Y-100835300D01*
X111364070Y-100835301D01*
X111569997Y-100855583D01*
X111570000Y-100855583D01*
X111570003Y-100855583D01*
X111775929Y-100835301D01*
X111775934Y-100835300D01*
X111973954Y-100775232D01*
X112156450Y-100677685D01*
X112316410Y-100546410D01*
X112447685Y-100386450D01*
X112545232Y-100203954D01*
X112605300Y-100005934D01*
X112605301Y-100005929D01*
X112625583Y-99800003D01*
X112625583Y-99799996D01*
X112605301Y-99594070D01*
X112605300Y-99594065D01*
X112566466Y-99466046D01*
X112545232Y-99396046D01*
X112447685Y-99213550D01*
X112447680Y-99213544D01*
X112316414Y-99053595D01*
X112316410Y-99053590D01*
X112251478Y-99000302D01*
X112160975Y-98926028D01*
X112127988Y-98874497D01*
X112131590Y-98813417D01*
X112170405Y-98766121D01*
X112223780Y-98750500D01*
X112629877Y-98750500D01*
X112688068Y-98769407D01*
X112699881Y-98779496D01*
X113146128Y-99225743D01*
X113173905Y-99280260D01*
X113164334Y-99340692D01*
X113163434Y-99342415D01*
X113134770Y-99396040D01*
X113134768Y-99396045D01*
X113074699Y-99594065D01*
X113074698Y-99594070D01*
X113054417Y-99799996D01*
X113054417Y-99800003D01*
X113074698Y-100005929D01*
X113074699Y-100005934D01*
X113134768Y-100203954D01*
X113232316Y-100386452D01*
X113363585Y-100546404D01*
X113363590Y-100546410D01*
X113363595Y-100546414D01*
X113523547Y-100677683D01*
X113523548Y-100677683D01*
X113523550Y-100677685D01*
X113706046Y-100775232D01*
X113843997Y-100817078D01*
X113904065Y-100835300D01*
X113904070Y-100835301D01*
X114109997Y-100855583D01*
X114110000Y-100855583D01*
X114110003Y-100855583D01*
X114315929Y-100835301D01*
X114315934Y-100835300D01*
X114513954Y-100775232D01*
X114696450Y-100677685D01*
X114856410Y-100546410D01*
X114987685Y-100386450D01*
X115085232Y-100203954D01*
X115145300Y-100005934D01*
X115145301Y-100005929D01*
X115165583Y-99800003D01*
X115165583Y-99799996D01*
X115145301Y-99594070D01*
X115145300Y-99594065D01*
X115106466Y-99466046D01*
X115085232Y-99396046D01*
X114987685Y-99213550D01*
X114987680Y-99213544D01*
X114856414Y-99053595D01*
X114856410Y-99053590D01*
X114791478Y-99000302D01*
X114696452Y-98922316D01*
X114513954Y-98824768D01*
X114315934Y-98764699D01*
X114315929Y-98764698D01*
X114110003Y-98744417D01*
X114109997Y-98744417D01*
X113904070Y-98764698D01*
X113904065Y-98764699D01*
X113706045Y-98824768D01*
X113706040Y-98824770D01*
X113652415Y-98853434D01*
X113592183Y-98864190D01*
X113537131Y-98837489D01*
X113535743Y-98836128D01*
X113369119Y-98669504D01*
X113341342Y-98614987D01*
X113350913Y-98554555D01*
X113394178Y-98511290D01*
X113439123Y-98500500D01*
X114919877Y-98500500D01*
X114978068Y-98519407D01*
X114989881Y-98529496D01*
X115686128Y-99225743D01*
X115713905Y-99280260D01*
X115704334Y-99340692D01*
X115703434Y-99342415D01*
X115674770Y-99396040D01*
X115674768Y-99396045D01*
X115614699Y-99594065D01*
X115614698Y-99594070D01*
X115594417Y-99799996D01*
X115594417Y-99800003D01*
X115614698Y-100005929D01*
X115614699Y-100005934D01*
X115674768Y-100203954D01*
X115772316Y-100386452D01*
X115903585Y-100546404D01*
X115903590Y-100546410D01*
X115903595Y-100546414D01*
X116063547Y-100677683D01*
X116063548Y-100677683D01*
X116063550Y-100677685D01*
X116246046Y-100775232D01*
X116383997Y-100817078D01*
X116444065Y-100835300D01*
X116444070Y-100835301D01*
X116649997Y-100855583D01*
X116650000Y-100855583D01*
X116650003Y-100855583D01*
X116855929Y-100835301D01*
X116855934Y-100835300D01*
X117053954Y-100775232D01*
X117236450Y-100677685D01*
X117396410Y-100546410D01*
X117527685Y-100386450D01*
X117625232Y-100203954D01*
X117685300Y-100005934D01*
X117685301Y-100005929D01*
X117705583Y-99800003D01*
X117705583Y-99799996D01*
X117685301Y-99594070D01*
X117685300Y-99594065D01*
X117646466Y-99466046D01*
X117625232Y-99396046D01*
X117527685Y-99213550D01*
X117527680Y-99213544D01*
X117396414Y-99053595D01*
X117396410Y-99053590D01*
X117331478Y-99000302D01*
X117236452Y-98922316D01*
X117053954Y-98824768D01*
X116855934Y-98764699D01*
X116855929Y-98764698D01*
X116650003Y-98744417D01*
X116649997Y-98744417D01*
X116444070Y-98764698D01*
X116444065Y-98764699D01*
X116246045Y-98824768D01*
X116246040Y-98824770D01*
X116192415Y-98853434D01*
X116132183Y-98864190D01*
X116077131Y-98837489D01*
X116075743Y-98836128D01*
X115659119Y-98419504D01*
X115631342Y-98364987D01*
X115640913Y-98304555D01*
X115684178Y-98261290D01*
X115729123Y-98250500D01*
X117209877Y-98250500D01*
X117268068Y-98269407D01*
X117279881Y-98279496D01*
X118226128Y-99225743D01*
X118253905Y-99280260D01*
X118244334Y-99340692D01*
X118243434Y-99342415D01*
X118214770Y-99396040D01*
X118214768Y-99396045D01*
X118154699Y-99594065D01*
X118154698Y-99594070D01*
X118134417Y-99799996D01*
X118134417Y-99800003D01*
X118154698Y-100005929D01*
X118154699Y-100005934D01*
X118214768Y-100203954D01*
X118312316Y-100386452D01*
X118443585Y-100546404D01*
X118443590Y-100546410D01*
X118443595Y-100546414D01*
X118603547Y-100677683D01*
X118603548Y-100677683D01*
X118603550Y-100677685D01*
X118786046Y-100775232D01*
X118923997Y-100817078D01*
X118984065Y-100835300D01*
X118984070Y-100835301D01*
X119189997Y-100855583D01*
X119190000Y-100855583D01*
X119190003Y-100855583D01*
X119395929Y-100835301D01*
X119395934Y-100835300D01*
X119593954Y-100775232D01*
X119776450Y-100677685D01*
X119936410Y-100546410D01*
X120067685Y-100386450D01*
X120165232Y-100203954D01*
X120225300Y-100005934D01*
X120225301Y-100005929D01*
X120245583Y-99800003D01*
X120245583Y-99799996D01*
X120225301Y-99594070D01*
X120225300Y-99594065D01*
X120186466Y-99466046D01*
X120165232Y-99396046D01*
X120067685Y-99213550D01*
X120067680Y-99213544D01*
X119936414Y-99053595D01*
X119936410Y-99053590D01*
X119871478Y-99000302D01*
X119776452Y-98922316D01*
X119593954Y-98824768D01*
X119395934Y-98764699D01*
X119395929Y-98764698D01*
X119190003Y-98744417D01*
X119189997Y-98744417D01*
X118984070Y-98764698D01*
X118984065Y-98764699D01*
X118786045Y-98824768D01*
X118786040Y-98824770D01*
X118732415Y-98853434D01*
X118672183Y-98864190D01*
X118617131Y-98837489D01*
X118615743Y-98836128D01*
X117949119Y-98169504D01*
X117921342Y-98114987D01*
X117930913Y-98054555D01*
X117974178Y-98011290D01*
X118019123Y-98000500D01*
X119499877Y-98000500D01*
X119558068Y-98019407D01*
X119569881Y-98029496D01*
X120766128Y-99225743D01*
X120793905Y-99280260D01*
X120784334Y-99340692D01*
X120783434Y-99342415D01*
X120754770Y-99396040D01*
X120754768Y-99396045D01*
X120694699Y-99594065D01*
X120694698Y-99594070D01*
X120674417Y-99799996D01*
X120674417Y-99800003D01*
X120694698Y-100005929D01*
X120694699Y-100005934D01*
X120754768Y-100203954D01*
X120852316Y-100386452D01*
X120983585Y-100546404D01*
X120983590Y-100546410D01*
X120983595Y-100546414D01*
X121143547Y-100677683D01*
X121143548Y-100677683D01*
X121143550Y-100677685D01*
X121326046Y-100775232D01*
X121463997Y-100817078D01*
X121524065Y-100835300D01*
X121524070Y-100835301D01*
X121729997Y-100855583D01*
X121730000Y-100855583D01*
X121730003Y-100855583D01*
X121935929Y-100835301D01*
X121935934Y-100835300D01*
X122133954Y-100775232D01*
X122316450Y-100677685D01*
X122476410Y-100546410D01*
X122607685Y-100386450D01*
X122705232Y-100203954D01*
X122765300Y-100005934D01*
X122765301Y-100005929D01*
X122785583Y-99800003D01*
X122785583Y-99799996D01*
X122765301Y-99594070D01*
X122765300Y-99594065D01*
X122726466Y-99466046D01*
X122705232Y-99396046D01*
X122607685Y-99213550D01*
X122607680Y-99213544D01*
X122476414Y-99053595D01*
X122476410Y-99053590D01*
X122411478Y-99000302D01*
X122316452Y-98922316D01*
X122133954Y-98824768D01*
X121935934Y-98764699D01*
X121935929Y-98764698D01*
X121730003Y-98744417D01*
X121729997Y-98744417D01*
X121524070Y-98764698D01*
X121524065Y-98764699D01*
X121326045Y-98824768D01*
X121326040Y-98824770D01*
X121272415Y-98853434D01*
X121212183Y-98864190D01*
X121157131Y-98837489D01*
X121155743Y-98836128D01*
X120239119Y-97919504D01*
X120211342Y-97864987D01*
X120220913Y-97804555D01*
X120264178Y-97761290D01*
X120309123Y-97750500D01*
X121789877Y-97750500D01*
X121848068Y-97769407D01*
X121859881Y-97779496D01*
X123190504Y-99110119D01*
X123218281Y-99164636D01*
X123219500Y-99180123D01*
X123219500Y-100669746D01*
X123219501Y-100669758D01*
X123231132Y-100728227D01*
X123231134Y-100728233D01*
X123275445Y-100794548D01*
X123275448Y-100794552D01*
X123341769Y-100838867D01*
X123386231Y-100847711D01*
X123400241Y-100850498D01*
X123400246Y-100850498D01*
X123400252Y-100850500D01*
X123400253Y-100850500D01*
X125139747Y-100850500D01*
X125139748Y-100850500D01*
X125198231Y-100838867D01*
X125264552Y-100794552D01*
X125308867Y-100728231D01*
X125320500Y-100669748D01*
X125320500Y-99000299D01*
X128890000Y-99000299D01*
X128890000Y-99769999D01*
X128890001Y-99770000D01*
X129449157Y-99770000D01*
X129440000Y-99804174D01*
X129440000Y-99935826D01*
X129449157Y-99970000D01*
X128890001Y-99970000D01*
X128890000Y-99970001D01*
X128890000Y-100739700D01*
X128901603Y-100798036D01*
X128945806Y-100864189D01*
X128945810Y-100864193D01*
X129011963Y-100908396D01*
X129070299Y-100919999D01*
X129070303Y-100920000D01*
X129839999Y-100920000D01*
X129840000Y-100919999D01*
X129840000Y-100360842D01*
X129874174Y-100370000D01*
X130005826Y-100370000D01*
X130040000Y-100360842D01*
X130040000Y-100919999D01*
X130040001Y-100920000D01*
X130809697Y-100920000D01*
X130809700Y-100919999D01*
X130868036Y-100908396D01*
X130934189Y-100864193D01*
X130934193Y-100864189D01*
X130978396Y-100798036D01*
X130989999Y-100739700D01*
X130990000Y-100739697D01*
X130990000Y-99970001D01*
X130989999Y-99970000D01*
X130430843Y-99970000D01*
X130440000Y-99935826D01*
X130440000Y-99804174D01*
X130430843Y-99770000D01*
X130989999Y-99770000D01*
X130990000Y-99769999D01*
X130990000Y-99000302D01*
X130989999Y-99000299D01*
X130978396Y-98941963D01*
X130934193Y-98875810D01*
X130934189Y-98875806D01*
X130868036Y-98831603D01*
X130809700Y-98820000D01*
X130040001Y-98820000D01*
X130040000Y-98820001D01*
X130040000Y-99379157D01*
X130005826Y-99370000D01*
X129874174Y-99370000D01*
X129840000Y-99379157D01*
X129840000Y-98820001D01*
X129839999Y-98820000D01*
X129070299Y-98820000D01*
X129011963Y-98831603D01*
X128945810Y-98875806D01*
X128945806Y-98875810D01*
X128901603Y-98941963D01*
X128890000Y-99000299D01*
X125320500Y-99000299D01*
X125320500Y-98930252D01*
X125318921Y-98922316D01*
X125313442Y-98894768D01*
X125308867Y-98871769D01*
X125264552Y-98805448D01*
X125264548Y-98805445D01*
X125198233Y-98761134D01*
X125198231Y-98761133D01*
X125198228Y-98761132D01*
X125198227Y-98761132D01*
X125139758Y-98749501D01*
X125139748Y-98749500D01*
X125139747Y-98749500D01*
X123650124Y-98749500D01*
X123591933Y-98730593D01*
X123580120Y-98720504D01*
X123224603Y-98364987D01*
X122101058Y-97241443D01*
X121999800Y-97199500D01*
X121999799Y-97199500D01*
X109398433Y-97199500D01*
X109340242Y-97180593D01*
X109328429Y-97170504D01*
X108604496Y-96446571D01*
X108576719Y-96392054D01*
X108575500Y-96376567D01*
X108575500Y-95755656D01*
X108594407Y-95697465D01*
X108643907Y-95661501D01*
X108705093Y-95661501D01*
X108716326Y-95665926D01*
X108720713Y-95667972D01*
X108770299Y-95674500D01*
X109190100Y-95674499D01*
X109239687Y-95667972D01*
X109253564Y-95661501D01*
X109270134Y-95653775D01*
X109311972Y-95644500D01*
X109680563Y-95644500D01*
X109722402Y-95653776D01*
X109765710Y-95673971D01*
X109765711Y-95673971D01*
X109765713Y-95673972D01*
X109815299Y-95680500D01*
X110235100Y-95680499D01*
X110284687Y-95673972D01*
X110284688Y-95673972D01*
X110327999Y-95653775D01*
X110393516Y-95623224D01*
X110393521Y-95623218D01*
X110400401Y-95618403D01*
X110457184Y-95600500D01*
X110747712Y-95600500D01*
X110783083Y-95608195D01*
X110783153Y-95607958D01*
X110786468Y-95608931D01*
X110788838Y-95609447D01*
X110789943Y-95609951D01*
X110789944Y-95609951D01*
X110789947Y-95609953D01*
X110893982Y-95640500D01*
X110928035Y-95650499D01*
X110928036Y-95650499D01*
X110928039Y-95650500D01*
X110928041Y-95650500D01*
X111071959Y-95650500D01*
X111071961Y-95650500D01*
X111210053Y-95609953D01*
X111210056Y-95609950D01*
X111211162Y-95609447D01*
X111213531Y-95608931D01*
X111216847Y-95607958D01*
X111216916Y-95608195D01*
X111252288Y-95600500D01*
X111378912Y-95600500D01*
X111414283Y-95608195D01*
X111414353Y-95607958D01*
X111417668Y-95608931D01*
X111420038Y-95609447D01*
X111421143Y-95609951D01*
X111421144Y-95609951D01*
X111421147Y-95609953D01*
X111525182Y-95640500D01*
X111559235Y-95650499D01*
X111559236Y-95650499D01*
X111559239Y-95650500D01*
X111559241Y-95650500D01*
X111703159Y-95650500D01*
X111703161Y-95650500D01*
X111841253Y-95609953D01*
X111841256Y-95609950D01*
X111842362Y-95609447D01*
X111844731Y-95608931D01*
X111848047Y-95607958D01*
X111848116Y-95608195D01*
X111883488Y-95600500D01*
X112828228Y-95600500D01*
X112870067Y-95609776D01*
X112900506Y-95623970D01*
X112900509Y-95623971D01*
X112900511Y-95623971D01*
X112900513Y-95623972D01*
X112950099Y-95630500D01*
X113369900Y-95630499D01*
X113419487Y-95623972D01*
X113433958Y-95617224D01*
X113449934Y-95609775D01*
X113491772Y-95600500D01*
X113796785Y-95600500D01*
X113838624Y-95609776D01*
X113890510Y-95633971D01*
X113890511Y-95633971D01*
X113890513Y-95633972D01*
X113940099Y-95640500D01*
X114359900Y-95640499D01*
X114409487Y-95633972D01*
X114409488Y-95633972D01*
X114468137Y-95606622D01*
X114518316Y-95583224D01*
X114603224Y-95498316D01*
X114653972Y-95389487D01*
X114660500Y-95339901D01*
X114660499Y-94980100D01*
X114653972Y-94930513D01*
X114614975Y-94846883D01*
X114605700Y-94805044D01*
X114605700Y-94132411D01*
X114624607Y-94074220D01*
X114634696Y-94062407D01*
X114700496Y-93996607D01*
X114755013Y-93968830D01*
X114815445Y-93978401D01*
X114858710Y-94021666D01*
X114869500Y-94066611D01*
X114869500Y-94249120D01*
X114875913Y-94319694D01*
X114926521Y-94482105D01*
X114926522Y-94482107D01*
X114978359Y-94567854D01*
X115014528Y-94627685D01*
X115134815Y-94747972D01*
X115280394Y-94835978D01*
X115442804Y-94886586D01*
X115513384Y-94893000D01*
X115513389Y-94893000D01*
X116626611Y-94893000D01*
X116626616Y-94893000D01*
X116697196Y-94886586D01*
X116859606Y-94835978D01*
X117005185Y-94747972D01*
X117125472Y-94627685D01*
X117213478Y-94482106D01*
X117264086Y-94319696D01*
X117270500Y-94249116D01*
X117270500Y-93562000D01*
X117289407Y-93503809D01*
X117338907Y-93467845D01*
X117369500Y-93463000D01*
X121197523Y-93463000D01*
X121255714Y-93481907D01*
X121276065Y-93501733D01*
X121333065Y-93576018D01*
X121334549Y-93577951D01*
X121454767Y-93670198D01*
X121594764Y-93728187D01*
X121707280Y-93743000D01*
X121707281Y-93743000D01*
X123032719Y-93743000D01*
X123032720Y-93743000D01*
X123145236Y-93728187D01*
X123285233Y-93670198D01*
X123405451Y-93577951D01*
X123497698Y-93457733D01*
X123555687Y-93317736D01*
X123555687Y-93317728D01*
X123556052Y-93316373D01*
X123556602Y-93315525D01*
X123558170Y-93311741D01*
X123558871Y-93312031D01*
X123589379Y-93265060D01*
X123646501Y-93243135D01*
X123651678Y-93243000D01*
X125774889Y-93243000D01*
X125833080Y-93261907D01*
X125844893Y-93271996D01*
X131653417Y-99080520D01*
X131681194Y-99135037D01*
X131671623Y-99195469D01*
X131659942Y-99213327D01*
X131602320Y-99283542D01*
X131602316Y-99283547D01*
X131504768Y-99466045D01*
X131444699Y-99664065D01*
X131444698Y-99664070D01*
X131424417Y-99869996D01*
X131424417Y-99870003D01*
X131444698Y-100075929D01*
X131444699Y-100075934D01*
X131504768Y-100273954D01*
X131602316Y-100456452D01*
X131676138Y-100546404D01*
X131733590Y-100616410D01*
X131733595Y-100616414D01*
X131893547Y-100747683D01*
X131893548Y-100747683D01*
X131893550Y-100747685D01*
X132076046Y-100845232D01*
X132213997Y-100887078D01*
X132274065Y-100905300D01*
X132274070Y-100905301D01*
X132479997Y-100925583D01*
X132480000Y-100925583D01*
X132480003Y-100925583D01*
X132685929Y-100905301D01*
X132685934Y-100905300D01*
X132883954Y-100845232D01*
X133066450Y-100747685D01*
X133226410Y-100616410D01*
X133357685Y-100456450D01*
X133455232Y-100273954D01*
X133515300Y-100075934D01*
X133515301Y-100075929D01*
X133535583Y-99870003D01*
X133535583Y-99869996D01*
X133515301Y-99664070D01*
X133515300Y-99664065D01*
X133462559Y-99490201D01*
X133455232Y-99466046D01*
X133357685Y-99283550D01*
X133357678Y-99283542D01*
X133232798Y-99131374D01*
X133229090Y-99121901D01*
X133218625Y-99117201D01*
X133198857Y-99100978D01*
X133066452Y-98992316D01*
X132883954Y-98894768D01*
X132703736Y-98840100D01*
X132662470Y-98815367D01*
X129471073Y-95623970D01*
X126279114Y-92432011D01*
X126279111Y-92432009D01*
X126279110Y-92432008D01*
X126279109Y-92432007D01*
X126176390Y-92372702D01*
X126176386Y-92372700D01*
X126152173Y-92366212D01*
X126152173Y-92366213D01*
X126061809Y-92342000D01*
X126061807Y-92342000D01*
X123651678Y-92342000D01*
X123593487Y-92323093D01*
X123557523Y-92273593D01*
X123556052Y-92268627D01*
X123555687Y-92267267D01*
X123555687Y-92267264D01*
X123497698Y-92127267D01*
X123405451Y-92007049D01*
X123285233Y-91914802D01*
X123145236Y-91856813D01*
X123145234Y-91856812D01*
X123145232Y-91856812D01*
X123032720Y-91842000D01*
X121707280Y-91842000D01*
X121707279Y-91842000D01*
X121594767Y-91856812D01*
X121594761Y-91856814D01*
X121454768Y-91914801D01*
X121334551Y-92007047D01*
X121334547Y-92007051D01*
X121242301Y-92127268D01*
X121184314Y-92267261D01*
X121184312Y-92267267D01*
X121169500Y-92379779D01*
X121169500Y-92463000D01*
X121150593Y-92521191D01*
X121101093Y-92557155D01*
X121070500Y-92562000D01*
X117369500Y-92562000D01*
X117311309Y-92543093D01*
X117275345Y-92493593D01*
X117270500Y-92463000D01*
X117270500Y-91335888D01*
X117270500Y-91335884D01*
X117264086Y-91265304D01*
X117213478Y-91102894D01*
X117211207Y-91099138D01*
X117161998Y-91017736D01*
X117125472Y-90957315D01*
X117005185Y-90837028D01*
X116907323Y-90777868D01*
X116859607Y-90749022D01*
X116859605Y-90749021D01*
X116697194Y-90698413D01*
X116635740Y-90692829D01*
X116579499Y-90668732D01*
X116548163Y-90616181D01*
X116545700Y-90594235D01*
X116545700Y-90549500D01*
X116564607Y-90491309D01*
X116614107Y-90455345D01*
X116644700Y-90450500D01*
X116693353Y-90450500D01*
X116693354Y-90450500D01*
X116794612Y-90408557D01*
X116872111Y-90331058D01*
X116872110Y-90331058D01*
X117123389Y-90079779D01*
X121169500Y-90079779D01*
X121169500Y-90905220D01*
X121184312Y-91017732D01*
X121184314Y-91017738D01*
X121240802Y-91154113D01*
X121242302Y-91157733D01*
X121334549Y-91277951D01*
X121454767Y-91370198D01*
X121594764Y-91428187D01*
X121707280Y-91443000D01*
X121707281Y-91443000D01*
X123032719Y-91443000D01*
X123032720Y-91443000D01*
X123145236Y-91428187D01*
X123285233Y-91370198D01*
X123405451Y-91277951D01*
X123497698Y-91157733D01*
X123499197Y-91154112D01*
X123538935Y-91107588D01*
X123590661Y-91093000D01*
X125422757Y-91093000D01*
X125480948Y-91111907D01*
X125492761Y-91121996D01*
X128984478Y-94613713D01*
X128984480Y-94613716D01*
X129096284Y-94725520D01*
X129108660Y-94732665D01*
X129129160Y-94748395D01*
X133351434Y-98970669D01*
X133360005Y-98987492D01*
X133379330Y-98998565D01*
X133957258Y-99576493D01*
X133985035Y-99631010D01*
X133984485Y-99659157D01*
X133985176Y-99659226D01*
X133964417Y-99869996D01*
X133964417Y-99870003D01*
X133984698Y-100075929D01*
X133984699Y-100075934D01*
X134044768Y-100273954D01*
X134142316Y-100456452D01*
X134216138Y-100546404D01*
X134273590Y-100616410D01*
X134273595Y-100616414D01*
X134433547Y-100747683D01*
X134433548Y-100747683D01*
X134433550Y-100747685D01*
X134616046Y-100845232D01*
X134753997Y-100887078D01*
X134814065Y-100905300D01*
X134814070Y-100905301D01*
X135019997Y-100925583D01*
X135020000Y-100925583D01*
X135020003Y-100925583D01*
X135225929Y-100905301D01*
X135225934Y-100905300D01*
X135423954Y-100845232D01*
X135606450Y-100747685D01*
X135766410Y-100616410D01*
X135897685Y-100456450D01*
X135995232Y-100273954D01*
X136055300Y-100075934D01*
X136055301Y-100075929D01*
X136075583Y-99870003D01*
X136075583Y-99869996D01*
X136055301Y-99664070D01*
X136055300Y-99664065D01*
X136002559Y-99490201D01*
X135995232Y-99466046D01*
X135897685Y-99283550D01*
X135897678Y-99283542D01*
X135766414Y-99123595D01*
X135766410Y-99123590D01*
X135751988Y-99111754D01*
X135606452Y-98992316D01*
X135423954Y-98894768D01*
X135225934Y-98834699D01*
X135225929Y-98834698D01*
X135020003Y-98814417D01*
X135019996Y-98814417D01*
X134951578Y-98821155D01*
X134891814Y-98808042D01*
X134871871Y-98792636D01*
X129955521Y-93876286D01*
X129955520Y-93876284D01*
X129843716Y-93764480D01*
X129841639Y-93763281D01*
X129831344Y-93757337D01*
X129810839Y-93741604D01*
X126193021Y-90123786D01*
X126193020Y-90123784D01*
X126081216Y-90011980D01*
X125994404Y-89961860D01*
X125994403Y-89961859D01*
X125957029Y-89940281D01*
X125944285Y-89932923D01*
X125791557Y-89891999D01*
X125633443Y-89891999D01*
X125627380Y-89891999D01*
X125627364Y-89892000D01*
X124909500Y-89892000D01*
X124851309Y-89873093D01*
X124815345Y-89823593D01*
X124810500Y-89793000D01*
X124810500Y-88167611D01*
X124829407Y-88109420D01*
X124839496Y-88097607D01*
X124907607Y-88029496D01*
X124962124Y-88001719D01*
X124977611Y-88000500D01*
X125358490Y-88000500D01*
X125379885Y-87997111D01*
X125458126Y-87984719D01*
X125578220Y-87923528D01*
X125673528Y-87828220D01*
X125734719Y-87708126D01*
X125748601Y-87620473D01*
X125750500Y-87608489D01*
X125750500Y-87091510D01*
X125745376Y-87059158D01*
X125734719Y-86991874D01*
X125734716Y-86991869D01*
X125734716Y-86991867D01*
X125673529Y-86871782D01*
X125673528Y-86871780D01*
X125578220Y-86776472D01*
X125578217Y-86776470D01*
X125458132Y-86715283D01*
X125458127Y-86715281D01*
X125458126Y-86715281D01*
X125424913Y-86710020D01*
X125358490Y-86699500D01*
X125358488Y-86699500D01*
X124541512Y-86699500D01*
X124541510Y-86699500D01*
X124441874Y-86715281D01*
X124441867Y-86715283D01*
X124321782Y-86776470D01*
X124226470Y-86871782D01*
X124165283Y-86991867D01*
X124165281Y-86991874D01*
X124149500Y-87091510D01*
X124149500Y-87472389D01*
X124130593Y-87530580D01*
X124120504Y-87542392D01*
X123999511Y-87663385D01*
X123999507Y-87663390D01*
X123940200Y-87766112D01*
X123940200Y-87766113D01*
X123940201Y-87766114D01*
X123917809Y-87849684D01*
X123909500Y-87880692D01*
X123909500Y-88403894D01*
X123900225Y-88445732D01*
X123856028Y-88540513D01*
X123850106Y-88585500D01*
X123849500Y-88590100D01*
X123849500Y-89009896D01*
X123849501Y-89009907D01*
X123856027Y-89059486D01*
X123900224Y-89154265D01*
X123909500Y-89196105D01*
X123909500Y-89793000D01*
X123890593Y-89851191D01*
X123841093Y-89887155D01*
X123810500Y-89892000D01*
X123590661Y-89892000D01*
X123532470Y-89873093D01*
X123499197Y-89830887D01*
X123497698Y-89827268D01*
X123497698Y-89827267D01*
X123405451Y-89707049D01*
X123285233Y-89614802D01*
X123283072Y-89613907D01*
X123188308Y-89574654D01*
X123145236Y-89556813D01*
X123145234Y-89556812D01*
X123145232Y-89556812D01*
X123032720Y-89542000D01*
X121707280Y-89542000D01*
X121707279Y-89542000D01*
X121594767Y-89556812D01*
X121594761Y-89556814D01*
X121454768Y-89614801D01*
X121334551Y-89707047D01*
X121334547Y-89707051D01*
X121242301Y-89827268D01*
X121184314Y-89967261D01*
X121184312Y-89967267D01*
X121169500Y-90079779D01*
X117123389Y-90079779D01*
X119118170Y-88084999D01*
X120659196Y-88084999D01*
X120659196Y-88085000D01*
X120680281Y-88218127D01*
X120680282Y-88218129D01*
X120740541Y-88336393D01*
X120741472Y-88338220D01*
X120836780Y-88433528D01*
X120956874Y-88494719D01*
X121090000Y-88515804D01*
X121223126Y-88494719D01*
X121343220Y-88433528D01*
X121372854Y-88403894D01*
X121387253Y-88389496D01*
X121441770Y-88361719D01*
X121457256Y-88360500D01*
X121539413Y-88360500D01*
X121597604Y-88379407D01*
X121628353Y-88416019D01*
X121640802Y-88441483D01*
X121723517Y-88524198D01*
X121741371Y-88532926D01*
X121828604Y-88575572D01*
X121828605Y-88575572D01*
X121828607Y-88575573D01*
X121896740Y-88585500D01*
X121896743Y-88585500D01*
X123263257Y-88585500D01*
X123263260Y-88585500D01*
X123331393Y-88575573D01*
X123436483Y-88524198D01*
X123519198Y-88441483D01*
X123570573Y-88336393D01*
X123580500Y-88268260D01*
X123580500Y-87901740D01*
X123570573Y-87833607D01*
X123567939Y-87828220D01*
X123525501Y-87741410D01*
X123519198Y-87728517D01*
X123436483Y-87645802D01*
X123436481Y-87645801D01*
X123331395Y-87594427D01*
X123304139Y-87590456D01*
X123263260Y-87584500D01*
X121896740Y-87584500D01*
X121862673Y-87589463D01*
X121828604Y-87594427D01*
X121723518Y-87645801D01*
X121640801Y-87728518D01*
X121628354Y-87753980D01*
X121585811Y-87797954D01*
X121539413Y-87809500D01*
X121457256Y-87809500D01*
X121399065Y-87790593D01*
X121387253Y-87780504D01*
X121343221Y-87736473D01*
X121343217Y-87736470D01*
X121223129Y-87675282D01*
X121223127Y-87675281D01*
X121090000Y-87654196D01*
X120956872Y-87675281D01*
X120956870Y-87675282D01*
X120836782Y-87736470D01*
X120741470Y-87831782D01*
X120680282Y-87951870D01*
X120680281Y-87951872D01*
X120659196Y-88084999D01*
X119118170Y-88084999D01*
X120450219Y-86752950D01*
X120504735Y-86725174D01*
X120565167Y-86734745D01*
X120608432Y-86778010D01*
X120618003Y-86807468D01*
X120640281Y-86948127D01*
X120640282Y-86948129D01*
X120696855Y-87059159D01*
X120701472Y-87068220D01*
X120796780Y-87163528D01*
X120916874Y-87224719D01*
X121050000Y-87245804D01*
X121183126Y-87224719D01*
X121303220Y-87163528D01*
X121325237Y-87141511D01*
X121347253Y-87119496D01*
X121401770Y-87091719D01*
X121417256Y-87090500D01*
X121539413Y-87090500D01*
X121597604Y-87109407D01*
X121628353Y-87146019D01*
X121640802Y-87171483D01*
X121723517Y-87254198D01*
X121777285Y-87280483D01*
X121828604Y-87305572D01*
X121828605Y-87305572D01*
X121828607Y-87305573D01*
X121896740Y-87315500D01*
X121896743Y-87315500D01*
X123263257Y-87315500D01*
X123263260Y-87315500D01*
X123331393Y-87305573D01*
X123436483Y-87254198D01*
X123519198Y-87171483D01*
X123570573Y-87066393D01*
X123580500Y-86998260D01*
X123580500Y-86631740D01*
X123570573Y-86563607D01*
X123569916Y-86562263D01*
X123560716Y-86543443D01*
X123552145Y-86482861D01*
X123579652Y-86429961D01*
X124003558Y-86006058D01*
X124003559Y-86006056D01*
X124045500Y-85904801D01*
X124045500Y-84583823D01*
X124064407Y-84525632D01*
X124113907Y-84489668D01*
X124175093Y-84489668D01*
X124220798Y-84522874D01*
X124220963Y-84522710D01*
X124222003Y-84523750D01*
X124224593Y-84525632D01*
X124224596Y-84525636D01*
X124226469Y-84528215D01*
X124226472Y-84528220D01*
X124321780Y-84623528D01*
X124321782Y-84623529D01*
X124441867Y-84684716D01*
X124441869Y-84684716D01*
X124441874Y-84684719D01*
X124517541Y-84696703D01*
X124541510Y-84700500D01*
X124541512Y-84700500D01*
X125358490Y-84700500D01*
X125379885Y-84697111D01*
X125458126Y-84684719D01*
X125459312Y-84684115D01*
X125504848Y-84660913D01*
X125578220Y-84623528D01*
X125673528Y-84528220D01*
X125685586Y-84504555D01*
X125728851Y-84461290D01*
X125773796Y-84450500D01*
X128193099Y-84450500D01*
X128251290Y-84469407D01*
X128263103Y-84479496D01*
X130243045Y-86459438D01*
X132219104Y-88435496D01*
X132246881Y-88490013D01*
X132237310Y-88550445D01*
X132194045Y-88593710D01*
X132149100Y-88604500D01*
X131450200Y-88604500D01*
X131387429Y-88630501D01*
X131387428Y-88630501D01*
X131348941Y-88646442D01*
X131284879Y-88710504D01*
X131230362Y-88738281D01*
X131214876Y-88739500D01*
X130950684Y-88739500D01*
X130934398Y-88741644D01*
X130901825Y-88745932D01*
X130901824Y-88745932D01*
X130794598Y-88795933D01*
X130710933Y-88879598D01*
X130660932Y-88986824D01*
X130660932Y-88986825D01*
X130657138Y-89015643D01*
X130654500Y-89035684D01*
X130654500Y-89384316D01*
X130660932Y-89433173D01*
X130686829Y-89488709D01*
X130698318Y-89513347D01*
X130705774Y-89574077D01*
X130676111Y-89627590D01*
X130665514Y-89635433D01*
X130665635Y-89635591D01*
X130660491Y-89639537D01*
X130404675Y-89895352D01*
X130350160Y-89923129D01*
X130241872Y-89940281D01*
X130241870Y-89940282D01*
X130121782Y-90001470D01*
X130026470Y-90096782D01*
X129965282Y-90216870D01*
X129965281Y-90216872D01*
X129944196Y-90349999D01*
X129944196Y-90350000D01*
X129965281Y-90483127D01*
X129965282Y-90483129D01*
X130026470Y-90603217D01*
X130026472Y-90603220D01*
X130121780Y-90698528D01*
X130121782Y-90698529D01*
X130241867Y-90759716D01*
X130241869Y-90759716D01*
X130241874Y-90759719D01*
X130320453Y-90772164D01*
X130374968Y-90799939D01*
X130394170Y-90819141D01*
X130421947Y-90873658D01*
X130412376Y-90934090D01*
X130369113Y-90977354D01*
X130321780Y-91001472D01*
X130226470Y-91096782D01*
X130165282Y-91216870D01*
X130165281Y-91216872D01*
X130144196Y-91349999D01*
X130144196Y-91350000D01*
X130165281Y-91483127D01*
X130165282Y-91483129D01*
X130226470Y-91603217D01*
X130226472Y-91603220D01*
X130321780Y-91698528D01*
X130441874Y-91759719D01*
X130575000Y-91780804D01*
X130580500Y-91780804D01*
X130638691Y-91799711D01*
X130674655Y-91849211D01*
X130679500Y-91879804D01*
X130679500Y-92144316D01*
X130682373Y-92166142D01*
X130685932Y-92193174D01*
X130685932Y-92193175D01*
X130735933Y-92300401D01*
X130735934Y-92300402D01*
X130735935Y-92300404D01*
X130819596Y-92384065D01*
X130819597Y-92384065D01*
X130819598Y-92384066D01*
X130926824Y-92434067D01*
X130926825Y-92434067D01*
X130926827Y-92434068D01*
X130975684Y-92440500D01*
X130975685Y-92440500D01*
X131424314Y-92440500D01*
X131424316Y-92440500D01*
X131473173Y-92434068D01*
X131580404Y-92384065D01*
X131664065Y-92300404D01*
X131690389Y-92243953D01*
X131704981Y-92212661D01*
X131746709Y-92167913D01*
X131794705Y-92155500D01*
X132383208Y-92155500D01*
X132441399Y-92174407D01*
X132477363Y-92223907D01*
X132480306Y-92273814D01*
X132479500Y-92277864D01*
X132479500Y-92482129D01*
X132479501Y-92482137D01*
X132495484Y-92562494D01*
X132495485Y-92562496D01*
X132521368Y-92601232D01*
X132537977Y-92660120D01*
X132527994Y-92699714D01*
X132489427Y-92778604D01*
X132489427Y-92778607D01*
X132479500Y-92846740D01*
X132479500Y-93213260D01*
X132486118Y-93258682D01*
X132489427Y-93281395D01*
X132534699Y-93374000D01*
X132540802Y-93386483D01*
X132623517Y-93469198D01*
X132649514Y-93481907D01*
X132728604Y-93520572D01*
X132728605Y-93520572D01*
X132728607Y-93520573D01*
X132796740Y-93530500D01*
X132796743Y-93530500D01*
X133863259Y-93530500D01*
X133863260Y-93530500D01*
X133931393Y-93520573D01*
X133931394Y-93520572D01*
X133938835Y-93519488D01*
X133999144Y-93529807D01*
X134041869Y-93573604D01*
X134048737Y-93591830D01*
X134073498Y-93684241D01*
X134129513Y-93781260D01*
X134129515Y-93781263D01*
X134208737Y-93860485D01*
X134208739Y-93860486D01*
X134305759Y-93916501D01*
X134305757Y-93916501D01*
X134305761Y-93916502D01*
X134305763Y-93916503D01*
X134413982Y-93945500D01*
X134413984Y-93945500D01*
X134526016Y-93945500D01*
X134526018Y-93945500D01*
X134634237Y-93916503D01*
X134634239Y-93916501D01*
X134634241Y-93916501D01*
X134663064Y-93899859D01*
X134731263Y-93860485D01*
X134810485Y-93781263D01*
X134866503Y-93684237D01*
X134895500Y-93576018D01*
X134895500Y-93463982D01*
X134880554Y-93408202D01*
X134883756Y-93347104D01*
X134922262Y-93299554D01*
X134981362Y-93283718D01*
X135038484Y-93305644D01*
X135046185Y-93312578D01*
X135090504Y-93356897D01*
X135118281Y-93411414D01*
X135119500Y-93426901D01*
X135119500Y-94323473D01*
X135100593Y-94381664D01*
X135051093Y-94417628D01*
X134989907Y-94417628D01*
X134965499Y-94405789D01*
X134851571Y-94329666D01*
X134724183Y-94276901D01*
X134588944Y-94250000D01*
X134070001Y-94250000D01*
X134070000Y-94250001D01*
X134070000Y-94650000D01*
X133870000Y-94650000D01*
X133870000Y-94250001D01*
X133869999Y-94250000D01*
X133351055Y-94250000D01*
X133215816Y-94276901D01*
X133088428Y-94329666D01*
X132973779Y-94406271D01*
X132876271Y-94503779D01*
X132799666Y-94618428D01*
X132746901Y-94745816D01*
X132746901Y-94745818D01*
X132726177Y-94850000D01*
X133136212Y-94850000D01*
X133120000Y-94910504D01*
X133120000Y-94989496D01*
X133136212Y-95050000D01*
X132726178Y-95050000D01*
X132746901Y-95154181D01*
X132746901Y-95154183D01*
X132799666Y-95281571D01*
X132876271Y-95396220D01*
X132973779Y-95493728D01*
X133088428Y-95570333D01*
X133215816Y-95623098D01*
X133351055Y-95649999D01*
X133351057Y-95650000D01*
X133869999Y-95650000D01*
X133870000Y-95649999D01*
X133870000Y-95250000D01*
X134070000Y-95250000D01*
X134070000Y-95649999D01*
X134070001Y-95650000D01*
X134588943Y-95650000D01*
X134588944Y-95649999D01*
X134724183Y-95623098D01*
X134851571Y-95570333D01*
X134965499Y-95494210D01*
X135024387Y-95477602D01*
X135081790Y-95498780D01*
X135115783Y-95549654D01*
X135119500Y-95576526D01*
X135119500Y-97797273D01*
X135119500Y-97902727D01*
X135143570Y-97992559D01*
X135146794Y-98004592D01*
X135199516Y-98095908D01*
X135199517Y-98095909D01*
X135199518Y-98095910D01*
X135199520Y-98095913D01*
X135869728Y-98766121D01*
X136539291Y-99435684D01*
X136567068Y-99490201D01*
X136564024Y-99534425D01*
X136524700Y-99664062D01*
X136524698Y-99664070D01*
X136504417Y-99869996D01*
X136504417Y-99870003D01*
X136524698Y-100075929D01*
X136524699Y-100075934D01*
X136584768Y-100273954D01*
X136682316Y-100456452D01*
X136756138Y-100546404D01*
X136813590Y-100616410D01*
X136813595Y-100616414D01*
X136973547Y-100747683D01*
X136973548Y-100747683D01*
X136973550Y-100747685D01*
X137156046Y-100845232D01*
X137293997Y-100887078D01*
X137354065Y-100905300D01*
X137354070Y-100905301D01*
X137559997Y-100925583D01*
X137560000Y-100925583D01*
X137560003Y-100925583D01*
X137765929Y-100905301D01*
X137765934Y-100905300D01*
X137963954Y-100845232D01*
X138146450Y-100747685D01*
X138306410Y-100616410D01*
X138437685Y-100456450D01*
X138535232Y-100273954D01*
X138595300Y-100075934D01*
X138595301Y-100075929D01*
X138615583Y-99870003D01*
X138615583Y-99869996D01*
X138595301Y-99664070D01*
X138595300Y-99664065D01*
X138542559Y-99490201D01*
X138535232Y-99466046D01*
X138437685Y-99283550D01*
X138437678Y-99283542D01*
X138306414Y-99123595D01*
X138306410Y-99123590D01*
X138291988Y-99111754D01*
X138146452Y-98992316D01*
X137963954Y-98894768D01*
X137765934Y-98834699D01*
X137765929Y-98834698D01*
X137560003Y-98814417D01*
X137559997Y-98814417D01*
X137354070Y-98834698D01*
X137354062Y-98834700D01*
X137193735Y-98883334D01*
X137132562Y-98882133D01*
X137094994Y-98858601D01*
X135949496Y-97713103D01*
X135921719Y-97658586D01*
X135920500Y-97643099D01*
X135920500Y-94850000D01*
X137156177Y-94850000D01*
X137566212Y-94850000D01*
X137550000Y-94910504D01*
X137550000Y-94989496D01*
X137566212Y-95050000D01*
X137156178Y-95050000D01*
X137176901Y-95154181D01*
X137176901Y-95154183D01*
X137229666Y-95281571D01*
X137306271Y-95396220D01*
X137403779Y-95493728D01*
X137518428Y-95570333D01*
X137645816Y-95623098D01*
X137781055Y-95649999D01*
X137781057Y-95650000D01*
X138049999Y-95650000D01*
X138050000Y-95649999D01*
X138050000Y-95250000D01*
X138250000Y-95250000D01*
X138250000Y-95649999D01*
X138250001Y-95650000D01*
X138518943Y-95650000D01*
X138518944Y-95649999D01*
X138654183Y-95623098D01*
X138781571Y-95570333D01*
X138896220Y-95493728D01*
X138993728Y-95396220D01*
X139070333Y-95281571D01*
X139123098Y-95154183D01*
X139123098Y-95154181D01*
X139143822Y-95050000D01*
X138733788Y-95050000D01*
X138750000Y-94989496D01*
X138750000Y-94910504D01*
X138733788Y-94850000D01*
X139143822Y-94850000D01*
X139123098Y-94745818D01*
X139123098Y-94745816D01*
X139070333Y-94618428D01*
X138993728Y-94503779D01*
X138896220Y-94406271D01*
X138781571Y-94329666D01*
X138654183Y-94276901D01*
X138518944Y-94250000D01*
X138250001Y-94250000D01*
X138250000Y-94250001D01*
X138250000Y-94650000D01*
X138050000Y-94650000D01*
X138050000Y-94250001D01*
X138049999Y-94250000D01*
X137781055Y-94250000D01*
X137645816Y-94276901D01*
X137518428Y-94329666D01*
X137403779Y-94406271D01*
X137306271Y-94503779D01*
X137229666Y-94618428D01*
X137176901Y-94745816D01*
X137176901Y-94745818D01*
X137156177Y-94850000D01*
X135920500Y-94850000D01*
X135920500Y-93167274D01*
X135920500Y-93167273D01*
X135893207Y-93065413D01*
X135840480Y-92974087D01*
X135807849Y-92941456D01*
X135765913Y-92899519D01*
X135765913Y-92899520D01*
X135339454Y-92473061D01*
X135311677Y-92418544D01*
X135321248Y-92358112D01*
X135339451Y-92333057D01*
X135475480Y-92197030D01*
X135499458Y-92155500D01*
X135528205Y-92105709D01*
X135528205Y-92105707D01*
X135528207Y-92105705D01*
X135555500Y-92003844D01*
X135555500Y-91898390D01*
X135555500Y-89239810D01*
X135528207Y-89137950D01*
X135526221Y-89134511D01*
X135475480Y-89046624D01*
X135400913Y-88972056D01*
X135400913Y-88972057D01*
X134681800Y-88252944D01*
X134654023Y-88198427D01*
X134663594Y-88137995D01*
X134702303Y-88097205D01*
X134731263Y-88080485D01*
X134810485Y-88001263D01*
X134866503Y-87904237D01*
X134895500Y-87796018D01*
X134895500Y-87683982D01*
X134866503Y-87575763D01*
X134866501Y-87575760D01*
X134866501Y-87575758D01*
X134816429Y-87489033D01*
X134810485Y-87478737D01*
X134731263Y-87399515D01*
X134731260Y-87399513D01*
X134634240Y-87343498D01*
X134634242Y-87343498D01*
X134592251Y-87332247D01*
X134526018Y-87314500D01*
X134413982Y-87314500D01*
X134347748Y-87332247D01*
X134305758Y-87343498D01*
X134208739Y-87399513D01*
X134129513Y-87478739D01*
X134073498Y-87575758D01*
X134048737Y-87668169D01*
X134015412Y-87719484D01*
X133958291Y-87741410D01*
X133938836Y-87740512D01*
X133931394Y-87739427D01*
X133931393Y-87739427D01*
X133863260Y-87729500D01*
X132796740Y-87729500D01*
X132728607Y-87739427D01*
X132728605Y-87739427D01*
X132721000Y-87740536D01*
X132720755Y-87738856D01*
X132668832Y-87738097D01*
X132630796Y-87714404D01*
X131126392Y-86210000D01*
X132726177Y-86210000D01*
X133136212Y-86210000D01*
X133120000Y-86270504D01*
X133120000Y-86349496D01*
X133136212Y-86410000D01*
X132726178Y-86410000D01*
X132746901Y-86514181D01*
X132746901Y-86514183D01*
X132799666Y-86641571D01*
X132876271Y-86756220D01*
X132973779Y-86853728D01*
X133088428Y-86930333D01*
X133215816Y-86983098D01*
X133351055Y-87009999D01*
X133351057Y-87010000D01*
X133869999Y-87010000D01*
X133870000Y-87009999D01*
X133870000Y-86610000D01*
X134070000Y-86610000D01*
X134070000Y-87009999D01*
X134070001Y-87010000D01*
X134588943Y-87010000D01*
X134588944Y-87009999D01*
X134724183Y-86983098D01*
X134851571Y-86930333D01*
X134966220Y-86853728D01*
X135063728Y-86756220D01*
X135140333Y-86641571D01*
X135193098Y-86514183D01*
X135193098Y-86514181D01*
X135213822Y-86410000D01*
X134803788Y-86410000D01*
X134820000Y-86349496D01*
X134820000Y-86270504D01*
X134803788Y-86210000D01*
X135213822Y-86210000D01*
X137156177Y-86210000D01*
X137566212Y-86210000D01*
X137550000Y-86270504D01*
X137550000Y-86349496D01*
X137566212Y-86410000D01*
X137156178Y-86410000D01*
X137176901Y-86514181D01*
X137176901Y-86514183D01*
X137229666Y-86641571D01*
X137306271Y-86756220D01*
X137403779Y-86853728D01*
X137518428Y-86930333D01*
X137645816Y-86983098D01*
X137781055Y-87009999D01*
X137781057Y-87010000D01*
X138049999Y-87010000D01*
X138050000Y-87009999D01*
X138050000Y-86610000D01*
X138250000Y-86610000D01*
X138250000Y-87009999D01*
X138250001Y-87010000D01*
X138518943Y-87010000D01*
X138518944Y-87009999D01*
X138654183Y-86983098D01*
X138781571Y-86930333D01*
X138896220Y-86853728D01*
X138993728Y-86756220D01*
X139070333Y-86641571D01*
X139123098Y-86514183D01*
X139123098Y-86514181D01*
X139143822Y-86410000D01*
X138733788Y-86410000D01*
X138750000Y-86349496D01*
X138750000Y-86270504D01*
X138733788Y-86210000D01*
X139143822Y-86210000D01*
X139123098Y-86105818D01*
X139123098Y-86105816D01*
X139070333Y-85978428D01*
X138993728Y-85863779D01*
X138896220Y-85766271D01*
X138781571Y-85689666D01*
X138654183Y-85636901D01*
X138518944Y-85610000D01*
X138250001Y-85610000D01*
X138250000Y-85610001D01*
X138250000Y-86010000D01*
X138050000Y-86010000D01*
X138050000Y-85610001D01*
X138049999Y-85610000D01*
X137781055Y-85610000D01*
X137645816Y-85636901D01*
X137518428Y-85689666D01*
X137403779Y-85766271D01*
X137306271Y-85863779D01*
X137229666Y-85978428D01*
X137176901Y-86105816D01*
X137176901Y-86105818D01*
X137156177Y-86210000D01*
X135213822Y-86210000D01*
X135193098Y-86105818D01*
X135193098Y-86105816D01*
X135140333Y-85978428D01*
X135063728Y-85863779D01*
X134966220Y-85766271D01*
X134851571Y-85689666D01*
X134724183Y-85636901D01*
X134588944Y-85610000D01*
X134070001Y-85610000D01*
X134070000Y-85610001D01*
X134070000Y-86010000D01*
X133870000Y-86010000D01*
X133870000Y-85610001D01*
X133869999Y-85610000D01*
X133351055Y-85610000D01*
X133215816Y-85636901D01*
X133088428Y-85689666D01*
X132973779Y-85766271D01*
X132876271Y-85863779D01*
X132799666Y-85978428D01*
X132746901Y-86105816D01*
X132746901Y-86105818D01*
X132726177Y-86210000D01*
X131126392Y-86210000D01*
X130682663Y-85766271D01*
X128645913Y-83729520D01*
X128645910Y-83729518D01*
X128645908Y-83729516D01*
X128554591Y-83676794D01*
X128554593Y-83676794D01*
X128515070Y-83666204D01*
X128452727Y-83649500D01*
X128452725Y-83649500D01*
X125773796Y-83649500D01*
X125715605Y-83630593D01*
X125685586Y-83595445D01*
X125673529Y-83571782D01*
X125673528Y-83571780D01*
X125578220Y-83476472D01*
X125578217Y-83476470D01*
X125458132Y-83415283D01*
X125458127Y-83415281D01*
X125458126Y-83415281D01*
X125424913Y-83410020D01*
X125358490Y-83399500D01*
X125358488Y-83399500D01*
X124541512Y-83399500D01*
X124541510Y-83399500D01*
X124441874Y-83415281D01*
X124441867Y-83415283D01*
X124321782Y-83476470D01*
X124226470Y-83571782D01*
X124165283Y-83691867D01*
X124165281Y-83691874D01*
X124149500Y-83791510D01*
X124149500Y-84308492D01*
X124149805Y-84312370D01*
X124148168Y-84312498D01*
X124139551Y-84366732D01*
X124096264Y-84409975D01*
X124035827Y-84419515D01*
X123981360Y-84391745D01*
X123926059Y-84336443D01*
X123631061Y-84041446D01*
X123631058Y-84041443D01*
X123600749Y-84028888D01*
X123554226Y-83989152D01*
X123549697Y-83980905D01*
X123519198Y-83918517D01*
X123436483Y-83835802D01*
X123436481Y-83835801D01*
X123331395Y-83784427D01*
X123304139Y-83780456D01*
X123263260Y-83774500D01*
X121896740Y-83774500D01*
X121862673Y-83779463D01*
X121828604Y-83784427D01*
X121723518Y-83835801D01*
X121640801Y-83918518D01*
X121589427Y-84023604D01*
X121588657Y-84028890D01*
X121579500Y-84091740D01*
X121579500Y-84458260D01*
X121582594Y-84479496D01*
X121589427Y-84526395D01*
X121637412Y-84624548D01*
X121640802Y-84631483D01*
X121723517Y-84714198D01*
X121765158Y-84734555D01*
X121828604Y-84765572D01*
X121828605Y-84765572D01*
X121828607Y-84765573D01*
X121896740Y-84775500D01*
X121896743Y-84775500D01*
X123263257Y-84775500D01*
X123263260Y-84775500D01*
X123331393Y-84765573D01*
X123352018Y-84755489D01*
X123412600Y-84746918D01*
X123466651Y-84775592D01*
X123493524Y-84830561D01*
X123494500Y-84844430D01*
X123494500Y-84975569D01*
X123475593Y-85033760D01*
X123426093Y-85069724D01*
X123364907Y-85069724D01*
X123352021Y-85064510D01*
X123331397Y-85054428D01*
X123331394Y-85054427D01*
X123331393Y-85054427D01*
X123263260Y-85044500D01*
X121896740Y-85044500D01*
X121862673Y-85049463D01*
X121828604Y-85054427D01*
X121723518Y-85105801D01*
X121640801Y-85188518D01*
X121628354Y-85213980D01*
X121585811Y-85257954D01*
X121539413Y-85269500D01*
X120969800Y-85269500D01*
X120860200Y-85269500D01*
X120758942Y-85311443D01*
X120758941Y-85311444D01*
X118924881Y-87145504D01*
X118870364Y-87173281D01*
X118854877Y-87174500D01*
X116469291Y-87174500D01*
X116411100Y-87155593D01*
X116375136Y-87106093D01*
X116371325Y-87061229D01*
X116380500Y-86998260D01*
X116380500Y-86631740D01*
X116370573Y-86563607D01*
X116369914Y-86562260D01*
X116319648Y-86459438D01*
X116319198Y-86458517D01*
X116236483Y-86375802D01*
X116229551Y-86372413D01*
X116131395Y-86324427D01*
X116104139Y-86320456D01*
X116063260Y-86314500D01*
X114696740Y-86314500D01*
X114662673Y-86319463D01*
X114628604Y-86324427D01*
X114547980Y-86363842D01*
X114487398Y-86372413D01*
X114433348Y-86343737D01*
X114406476Y-86288768D01*
X114405500Y-86274901D01*
X114405500Y-86085098D01*
X114424407Y-86026907D01*
X114473907Y-85990943D01*
X114535093Y-85990943D01*
X114547973Y-85996153D01*
X114628607Y-86035573D01*
X114696740Y-86045500D01*
X114696743Y-86045500D01*
X116063257Y-86045500D01*
X116063260Y-86045500D01*
X116131393Y-86035573D01*
X116236483Y-85984198D01*
X116319198Y-85901483D01*
X116370573Y-85796393D01*
X116380500Y-85728260D01*
X116380500Y-85361740D01*
X116370573Y-85293607D01*
X116370303Y-85293055D01*
X116336601Y-85224115D01*
X116319198Y-85188517D01*
X116236483Y-85105802D01*
X116222567Y-85098999D01*
X116131395Y-85054427D01*
X116104139Y-85050456D01*
X116063260Y-85044500D01*
X114696740Y-85044500D01*
X114662673Y-85049463D01*
X114628604Y-85054427D01*
X114523518Y-85105801D01*
X114440801Y-85188518D01*
X114428354Y-85213980D01*
X114385811Y-85257954D01*
X114339413Y-85269500D01*
X114320200Y-85269500D01*
X114255155Y-85296443D01*
X114255154Y-85296443D01*
X114218943Y-85311441D01*
X114218941Y-85311442D01*
X114218941Y-85311443D01*
X113973942Y-85556443D01*
X113973941Y-85556442D01*
X113896446Y-85633938D01*
X113896444Y-85633940D01*
X113896443Y-85633942D01*
X113875243Y-85685123D01*
X113854500Y-85735200D01*
X113854500Y-86544876D01*
X113835593Y-86603067D01*
X113825504Y-86614880D01*
X112774881Y-87665504D01*
X112720364Y-87693281D01*
X112704877Y-87694500D01*
X111943481Y-87694500D01*
X111885290Y-87675593D01*
X111849326Y-87626093D01*
X111849326Y-87564907D01*
X111873477Y-87525496D01*
X111931863Y-87467110D01*
X112238558Y-87160416D01*
X112267518Y-87090500D01*
X112280500Y-87059159D01*
X112280500Y-86359500D01*
X112299407Y-86301309D01*
X112348907Y-86265345D01*
X112379500Y-86260500D01*
X112694314Y-86260500D01*
X112694316Y-86260500D01*
X112743173Y-86254068D01*
X112850404Y-86204065D01*
X112934065Y-86120404D01*
X112984068Y-86013173D01*
X112990500Y-85964316D01*
X112990500Y-85515684D01*
X112984068Y-85466827D01*
X112977363Y-85452449D01*
X112934066Y-85359598D01*
X112934065Y-85359597D01*
X112934065Y-85359596D01*
X112903970Y-85329501D01*
X112876195Y-85274987D01*
X112885766Y-85214555D01*
X112929031Y-85171290D01*
X112973976Y-85160500D01*
X113774273Y-85160500D01*
X113774273Y-85160499D01*
X113804699Y-85157646D01*
X113932882Y-85112793D01*
X114042150Y-85032150D01*
X114122793Y-84922882D01*
X114167646Y-84794699D01*
X114170499Y-84764273D01*
X114170500Y-84764273D01*
X114170500Y-84649500D01*
X114189407Y-84591309D01*
X114238907Y-84555345D01*
X114269500Y-84550500D01*
X114339413Y-84550500D01*
X114397604Y-84569407D01*
X114428353Y-84606019D01*
X114440802Y-84631483D01*
X114523517Y-84714198D01*
X114565158Y-84734555D01*
X114628604Y-84765572D01*
X114628605Y-84765572D01*
X114628607Y-84765573D01*
X114696740Y-84775500D01*
X114696743Y-84775500D01*
X116063257Y-84775500D01*
X116063260Y-84775500D01*
X116131393Y-84765573D01*
X116236483Y-84714198D01*
X116319198Y-84631483D01*
X116370573Y-84526393D01*
X116380500Y-84458260D01*
X116380500Y-84091740D01*
X116370573Y-84023607D01*
X116366148Y-84014556D01*
X116331646Y-83943980D01*
X116319198Y-83918517D01*
X116236483Y-83835802D01*
X116236481Y-83835801D01*
X116131395Y-83784427D01*
X116104139Y-83780456D01*
X116063260Y-83774500D01*
X114696740Y-83774500D01*
X114662673Y-83779463D01*
X114628604Y-83784427D01*
X114523518Y-83835801D01*
X114440801Y-83918518D01*
X114428354Y-83943980D01*
X114385811Y-83987954D01*
X114339413Y-83999500D01*
X114269500Y-83999500D01*
X114211309Y-83980593D01*
X114175345Y-83931093D01*
X114170500Y-83900500D01*
X114170500Y-83755727D01*
X114170499Y-83755725D01*
X114168189Y-83731093D01*
X114167646Y-83725301D01*
X114122793Y-83597118D01*
X114121558Y-83595445D01*
X114042154Y-83487855D01*
X114042152Y-83487853D01*
X114042150Y-83487850D01*
X114042146Y-83487847D01*
X114042144Y-83487845D01*
X113932883Y-83407207D01*
X113804703Y-83362355D01*
X113804694Y-83362353D01*
X113774274Y-83359500D01*
X113774266Y-83359500D01*
X112965734Y-83359500D01*
X112965725Y-83359500D01*
X112935305Y-83362353D01*
X112935296Y-83362355D01*
X112807116Y-83407207D01*
X112697855Y-83487845D01*
X112697845Y-83487855D01*
X112617207Y-83597116D01*
X112572355Y-83725296D01*
X112572353Y-83725305D01*
X112569500Y-83755725D01*
X112569500Y-84629877D01*
X112550593Y-84688068D01*
X112540509Y-84699875D01*
X112464885Y-84775500D01*
X112324694Y-84915691D01*
X112270177Y-84943468D01*
X112209745Y-84933897D01*
X112166480Y-84890632D01*
X112156909Y-84830200D01*
X112161246Y-84812988D01*
X112162259Y-84810093D01*
X112167646Y-84794699D01*
X112170499Y-84764273D01*
X112170500Y-84764273D01*
X112170500Y-83755727D01*
X112170499Y-83755725D01*
X112168189Y-83731093D01*
X112167646Y-83725301D01*
X112122793Y-83597118D01*
X112121558Y-83595445D01*
X112042154Y-83487855D01*
X112042152Y-83487853D01*
X112042150Y-83487850D01*
X112042146Y-83487847D01*
X112042144Y-83487845D01*
X111932883Y-83407207D01*
X111804703Y-83362355D01*
X111804694Y-83362353D01*
X111774274Y-83359500D01*
X111774266Y-83359500D01*
X110965734Y-83359500D01*
X110965725Y-83359500D01*
X110935305Y-83362353D01*
X110935296Y-83362355D01*
X110807116Y-83407207D01*
X110697855Y-83487845D01*
X110697845Y-83487855D01*
X110617207Y-83597116D01*
X110572355Y-83725296D01*
X110572353Y-83725305D01*
X110569500Y-83755725D01*
X110569500Y-83885500D01*
X110550593Y-83943691D01*
X110501093Y-83979655D01*
X110470500Y-83984500D01*
X110375199Y-83984500D01*
X110303599Y-84014157D01*
X110303599Y-84014158D01*
X110280795Y-84023604D01*
X110273941Y-84026443D01*
X109003942Y-85296443D01*
X109003941Y-85296442D01*
X108926446Y-85373938D01*
X108926444Y-85373940D01*
X108926443Y-85373942D01*
X108887969Y-85466825D01*
X108884500Y-85475200D01*
X108884500Y-85999500D01*
X108865593Y-86057691D01*
X108816093Y-86093655D01*
X108796944Y-86096687D01*
X108797072Y-86097653D01*
X108790640Y-86098499D01*
X108714203Y-86118980D01*
X108712380Y-86119736D01*
X108710971Y-86119846D01*
X108707944Y-86120658D01*
X108707793Y-86120096D01*
X108651383Y-86124533D01*
X108599216Y-86092561D01*
X108575805Y-86036031D01*
X108575500Y-86028270D01*
X108575500Y-84402893D01*
X108594407Y-84344702D01*
X108604496Y-84332889D01*
X110957890Y-81979496D01*
X111012407Y-81951719D01*
X111027894Y-81950500D01*
X121859799Y-81950500D01*
X121859800Y-81950500D01*
X121961058Y-81908557D01*
X122038557Y-81831058D01*
X122038556Y-81831058D01*
X123705744Y-80163869D01*
X123760259Y-80136094D01*
X123820691Y-80145665D01*
X123822396Y-80146555D01*
X123876046Y-80175232D01*
X124004498Y-80214197D01*
X124074065Y-80235300D01*
X124074070Y-80235301D01*
X124279997Y-80255583D01*
X124280000Y-80255583D01*
X124280003Y-80255583D01*
X124485929Y-80235301D01*
X124485934Y-80235300D01*
X124683954Y-80175232D01*
X124866450Y-80077685D01*
X125026410Y-79946410D01*
X125157685Y-79786450D01*
X125255232Y-79603954D01*
X125315300Y-79405934D01*
X125315301Y-79405929D01*
X125335583Y-79200003D01*
X125335583Y-79199996D01*
X125315301Y-78994070D01*
X125315300Y-78994065D01*
X125297078Y-78933997D01*
X125255232Y-78796046D01*
X125157685Y-78613550D01*
X125026410Y-78453590D01*
X124876123Y-78330253D01*
X124866452Y-78322316D01*
X124683954Y-78224768D01*
X124485934Y-78164699D01*
X124485929Y-78164698D01*
X124280003Y-78144417D01*
X124279997Y-78144417D01*
X124074070Y-78164698D01*
X124074065Y-78164699D01*
X123876045Y-78224768D01*
X123693547Y-78322316D01*
X123533595Y-78453585D01*
X123533585Y-78453595D01*
X123402316Y-78613547D01*
X123304768Y-78796045D01*
X123244699Y-78994065D01*
X123244698Y-78994070D01*
X123224417Y-79199996D01*
X123224417Y-79200003D01*
X123244698Y-79405929D01*
X123244699Y-79405934D01*
X123304768Y-79603954D01*
X123304770Y-79603959D01*
X123333433Y-79657584D01*
X123344189Y-79717817D01*
X123317487Y-79772868D01*
X123316127Y-79774256D01*
X121719881Y-81370504D01*
X121665364Y-81398281D01*
X121649877Y-81399500D01*
X120169123Y-81399500D01*
X120110932Y-81380593D01*
X120074968Y-81331093D01*
X120074968Y-81269907D01*
X120099119Y-81230496D01*
X120349118Y-80980497D01*
X121165744Y-80163869D01*
X121220259Y-80136094D01*
X121280691Y-80145665D01*
X121282396Y-80146555D01*
X121336046Y-80175232D01*
X121464498Y-80214197D01*
X121534065Y-80235300D01*
X121534070Y-80235301D01*
X121739997Y-80255583D01*
X121740000Y-80255583D01*
X121740003Y-80255583D01*
X121945929Y-80235301D01*
X121945934Y-80235300D01*
X122143954Y-80175232D01*
X122326450Y-80077685D01*
X122486410Y-79946410D01*
X122617685Y-79786450D01*
X122715232Y-79603954D01*
X122775300Y-79405934D01*
X122775301Y-79405929D01*
X122795583Y-79200003D01*
X122795583Y-79199996D01*
X122775301Y-78994070D01*
X122775300Y-78994065D01*
X122757078Y-78933997D01*
X122715232Y-78796046D01*
X122617685Y-78613550D01*
X122486410Y-78453590D01*
X122336123Y-78330253D01*
X122326452Y-78322316D01*
X122143954Y-78224768D01*
X121945934Y-78164699D01*
X121945929Y-78164698D01*
X121740003Y-78144417D01*
X121739997Y-78144417D01*
X121534070Y-78164698D01*
X121534065Y-78164699D01*
X121336045Y-78224768D01*
X121153547Y-78322316D01*
X120993595Y-78453585D01*
X120993585Y-78453595D01*
X120862316Y-78613547D01*
X120764768Y-78796045D01*
X120704699Y-78994065D01*
X120704698Y-78994070D01*
X120684417Y-79199996D01*
X120684417Y-79200003D01*
X120704698Y-79405929D01*
X120704699Y-79405934D01*
X120764768Y-79603954D01*
X120764770Y-79603959D01*
X120793433Y-79657584D01*
X120804189Y-79717817D01*
X120777487Y-79772868D01*
X120776127Y-79774256D01*
X119429881Y-81120504D01*
X119375364Y-81148281D01*
X119359877Y-81149500D01*
X117879123Y-81149500D01*
X117820932Y-81130593D01*
X117784968Y-81081093D01*
X117784968Y-81019907D01*
X117809119Y-80980497D01*
X118625742Y-80163872D01*
X118680259Y-80136094D01*
X118740691Y-80145665D01*
X118742396Y-80146555D01*
X118796046Y-80175232D01*
X118924498Y-80214197D01*
X118994065Y-80235300D01*
X118994070Y-80235301D01*
X119199997Y-80255583D01*
X119200000Y-80255583D01*
X119200003Y-80255583D01*
X119405929Y-80235301D01*
X119405934Y-80235300D01*
X119603954Y-80175232D01*
X119786450Y-80077685D01*
X119946410Y-79946410D01*
X120077685Y-79786450D01*
X120175232Y-79603954D01*
X120235300Y-79405934D01*
X120235301Y-79405929D01*
X120255583Y-79200003D01*
X120255583Y-79199996D01*
X120235301Y-78994070D01*
X120235300Y-78994065D01*
X120217078Y-78933997D01*
X120175232Y-78796046D01*
X120077685Y-78613550D01*
X119946410Y-78453590D01*
X119796123Y-78330253D01*
X119786452Y-78322316D01*
X119603954Y-78224768D01*
X119405934Y-78164699D01*
X119405929Y-78164698D01*
X119200003Y-78144417D01*
X119199997Y-78144417D01*
X118994070Y-78164698D01*
X118994065Y-78164699D01*
X118796045Y-78224768D01*
X118613547Y-78322316D01*
X118453595Y-78453585D01*
X118453585Y-78453595D01*
X118322316Y-78613547D01*
X118224768Y-78796045D01*
X118164699Y-78994065D01*
X118164698Y-78994070D01*
X118144417Y-79199996D01*
X118144417Y-79200003D01*
X118164698Y-79405929D01*
X118164699Y-79405934D01*
X118224768Y-79603954D01*
X118224770Y-79603959D01*
X118253433Y-79657584D01*
X118264189Y-79717817D01*
X118237487Y-79772868D01*
X118236127Y-79774256D01*
X117139881Y-80870504D01*
X117085364Y-80898281D01*
X117069877Y-80899500D01*
X115589123Y-80899500D01*
X115530932Y-80880593D01*
X115494968Y-80831093D01*
X115494968Y-80769907D01*
X115519119Y-80730497D01*
X116085742Y-80163872D01*
X116140259Y-80136094D01*
X116200691Y-80145665D01*
X116202396Y-80146555D01*
X116256046Y-80175232D01*
X116384498Y-80214197D01*
X116454065Y-80235300D01*
X116454070Y-80235301D01*
X116659997Y-80255583D01*
X116660000Y-80255583D01*
X116660003Y-80255583D01*
X116865929Y-80235301D01*
X116865934Y-80235300D01*
X117063954Y-80175232D01*
X117246450Y-80077685D01*
X117406410Y-79946410D01*
X117537685Y-79786450D01*
X117635232Y-79603954D01*
X117695300Y-79405934D01*
X117695301Y-79405929D01*
X117715583Y-79200003D01*
X117715583Y-79199996D01*
X117695301Y-78994070D01*
X117695300Y-78994065D01*
X117677078Y-78933997D01*
X117635232Y-78796046D01*
X117537685Y-78613550D01*
X117406410Y-78453590D01*
X117256123Y-78330253D01*
X117246452Y-78322316D01*
X117063954Y-78224768D01*
X116865934Y-78164699D01*
X116865929Y-78164698D01*
X116660003Y-78144417D01*
X116659997Y-78144417D01*
X116454070Y-78164698D01*
X116454065Y-78164699D01*
X116256045Y-78224768D01*
X116073547Y-78322316D01*
X115913595Y-78453585D01*
X115913585Y-78453595D01*
X115782316Y-78613547D01*
X115684768Y-78796045D01*
X115624699Y-78994065D01*
X115624698Y-78994070D01*
X115604417Y-79199996D01*
X115604417Y-79200003D01*
X115624698Y-79405929D01*
X115624699Y-79405934D01*
X115684768Y-79603954D01*
X115684770Y-79603959D01*
X115713433Y-79657584D01*
X115724189Y-79717817D01*
X115697487Y-79772868D01*
X115696127Y-79774255D01*
X114849881Y-80620503D01*
X114795364Y-80648281D01*
X114779877Y-80649500D01*
X113299123Y-80649500D01*
X113240932Y-80630593D01*
X113204968Y-80581093D01*
X113204968Y-80519907D01*
X113229119Y-80480497D01*
X113545742Y-80163872D01*
X113600259Y-80136094D01*
X113660691Y-80145665D01*
X113662396Y-80146555D01*
X113716046Y-80175232D01*
X113844498Y-80214197D01*
X113914065Y-80235300D01*
X113914070Y-80235301D01*
X114119997Y-80255583D01*
X114120000Y-80255583D01*
X114120003Y-80255583D01*
X114325929Y-80235301D01*
X114325934Y-80235300D01*
X114523954Y-80175232D01*
X114706450Y-80077685D01*
X114866410Y-79946410D01*
X114997685Y-79786450D01*
X115095232Y-79603954D01*
X115155300Y-79405934D01*
X115155301Y-79405929D01*
X115175583Y-79200003D01*
X115175583Y-79199996D01*
X115155301Y-78994070D01*
X115155300Y-78994065D01*
X115137078Y-78933997D01*
X115095232Y-78796046D01*
X114997685Y-78613550D01*
X114866410Y-78453590D01*
X114716123Y-78330253D01*
X114706452Y-78322316D01*
X114523954Y-78224768D01*
X114325934Y-78164699D01*
X114325929Y-78164698D01*
X114120003Y-78144417D01*
X114119997Y-78144417D01*
X113914070Y-78164698D01*
X113914065Y-78164699D01*
X113716045Y-78224768D01*
X113533547Y-78322316D01*
X113373595Y-78453585D01*
X113373585Y-78453595D01*
X113242316Y-78613547D01*
X113144768Y-78796045D01*
X113084699Y-78994065D01*
X113084698Y-78994070D01*
X113064417Y-79199996D01*
X113064417Y-79200003D01*
X113084698Y-79405929D01*
X113084699Y-79405934D01*
X113144768Y-79603954D01*
X113144770Y-79603959D01*
X113173433Y-79657584D01*
X113184189Y-79717817D01*
X113157487Y-79772868D01*
X113156127Y-79774255D01*
X112559881Y-80370503D01*
X112505364Y-80398281D01*
X112489877Y-80399500D01*
X111912044Y-80399500D01*
X111853853Y-80380593D01*
X111817889Y-80331093D01*
X111817889Y-80269907D01*
X111853853Y-80220407D01*
X111883306Y-80205763D01*
X111894410Y-80202394D01*
X111983954Y-80175232D01*
X112166450Y-80077685D01*
X112326410Y-79946410D01*
X112457685Y-79786450D01*
X112555232Y-79603954D01*
X112615300Y-79405934D01*
X112615301Y-79405929D01*
X112635583Y-79200003D01*
X112635583Y-79199996D01*
X112615301Y-78994070D01*
X112615300Y-78994065D01*
X112597078Y-78933997D01*
X112555232Y-78796046D01*
X112457685Y-78613550D01*
X112326410Y-78453590D01*
X112176123Y-78330253D01*
X112166452Y-78322316D01*
X111983954Y-78224768D01*
X111785934Y-78164699D01*
X111785929Y-78164698D01*
X111580003Y-78144417D01*
X111579997Y-78144417D01*
X111374070Y-78164698D01*
X111374065Y-78164699D01*
X111176045Y-78224768D01*
X110993547Y-78322316D01*
X110833595Y-78453585D01*
X110833585Y-78453595D01*
X110702316Y-78613547D01*
X110604768Y-78796045D01*
X110544699Y-78994065D01*
X110544698Y-78994070D01*
X110524417Y-79199996D01*
X110524417Y-79200003D01*
X110544698Y-79405929D01*
X110544699Y-79405934D01*
X110604768Y-79603954D01*
X110604770Y-79603959D01*
X110633433Y-79657584D01*
X110644189Y-79717817D01*
X110617487Y-79772868D01*
X110616127Y-79774256D01*
X106344504Y-84045880D01*
X106289987Y-84073657D01*
X106229555Y-84064086D01*
X106186290Y-84020821D01*
X106175500Y-83975876D01*
X106175500Y-82495122D01*
X106194407Y-82436931D01*
X106204490Y-82425124D01*
X108465744Y-80163869D01*
X108520259Y-80136094D01*
X108580691Y-80145665D01*
X108582396Y-80146555D01*
X108636046Y-80175232D01*
X108764498Y-80214197D01*
X108834065Y-80235300D01*
X108834070Y-80235301D01*
X109039997Y-80255583D01*
X109040000Y-80255583D01*
X109040003Y-80255583D01*
X109245929Y-80235301D01*
X109245934Y-80235300D01*
X109443954Y-80175232D01*
X109626450Y-80077685D01*
X109786410Y-79946410D01*
X109917685Y-79786450D01*
X110015232Y-79603954D01*
X110075300Y-79405934D01*
X110075301Y-79405929D01*
X110095583Y-79200003D01*
X110095583Y-79199996D01*
X110075301Y-78994070D01*
X110075300Y-78994065D01*
X110057078Y-78933997D01*
X110015232Y-78796046D01*
X109917685Y-78613550D01*
X109786410Y-78453590D01*
X109636123Y-78330253D01*
X109626452Y-78322316D01*
X109443954Y-78224768D01*
X109245934Y-78164699D01*
X109245929Y-78164698D01*
X109040003Y-78144417D01*
X109039997Y-78144417D01*
X108834070Y-78164698D01*
X108834065Y-78164699D01*
X108636045Y-78224768D01*
X108453547Y-78322316D01*
X108293595Y-78453585D01*
X108293585Y-78453595D01*
X108162316Y-78613547D01*
X108064768Y-78796045D01*
X108004699Y-78994065D01*
X108004698Y-78994070D01*
X107984417Y-79199996D01*
X107984417Y-79200003D01*
X108004698Y-79405929D01*
X108004699Y-79405934D01*
X108064768Y-79603954D01*
X108064770Y-79603959D01*
X108093433Y-79657584D01*
X108104189Y-79717817D01*
X108077487Y-79772868D01*
X108076127Y-79774256D01*
X105944504Y-81905880D01*
X105889987Y-81933657D01*
X105829555Y-81924086D01*
X105786290Y-81880821D01*
X105775500Y-81835876D01*
X105775500Y-80355121D01*
X105794407Y-80296930D01*
X105804485Y-80285129D01*
X105925744Y-80163869D01*
X105980259Y-80136094D01*
X106040691Y-80145665D01*
X106042396Y-80146555D01*
X106096046Y-80175232D01*
X106224498Y-80214197D01*
X106294065Y-80235300D01*
X106294070Y-80235301D01*
X106499997Y-80255583D01*
X106500000Y-80255583D01*
X106500003Y-80255583D01*
X106705929Y-80235301D01*
X106705934Y-80235300D01*
X106903954Y-80175232D01*
X107086450Y-80077685D01*
X107246410Y-79946410D01*
X107377685Y-79786450D01*
X107475232Y-79603954D01*
X107535300Y-79405934D01*
X107535301Y-79405929D01*
X107555583Y-79200003D01*
X107555583Y-79199996D01*
X107535301Y-78994070D01*
X107535300Y-78994065D01*
X107517078Y-78933997D01*
X107475232Y-78796046D01*
X107377685Y-78613550D01*
X107246410Y-78453590D01*
X107096123Y-78330253D01*
X107086452Y-78322316D01*
X106903954Y-78224768D01*
X106705934Y-78164699D01*
X106705929Y-78164698D01*
X106500003Y-78144417D01*
X106499997Y-78144417D01*
X106294070Y-78164698D01*
X106294065Y-78164699D01*
X106096045Y-78224768D01*
X105913547Y-78322316D01*
X105753595Y-78453585D01*
X105753585Y-78453595D01*
X105622316Y-78613547D01*
X105524768Y-78796045D01*
X105464699Y-78994065D01*
X105464698Y-78994070D01*
X105444417Y-79199996D01*
X105444417Y-79200003D01*
X105464698Y-79405929D01*
X105464699Y-79405934D01*
X105524768Y-79603954D01*
X105524770Y-79603959D01*
X105553434Y-79657585D01*
X105564190Y-79717817D01*
X105537489Y-79772869D01*
X105536167Y-79774216D01*
X105343942Y-79966443D01*
X105343941Y-79966442D01*
X105266446Y-80043938D01*
X105266444Y-80043940D01*
X105266443Y-80043942D01*
X105255754Y-80069748D01*
X105224500Y-80145200D01*
X105224500Y-85099500D01*
X105205593Y-85157691D01*
X105156093Y-85193655D01*
X105125500Y-85198500D01*
X104705303Y-85198500D01*
X104705292Y-85198501D01*
X104655713Y-85205027D01*
X104655711Y-85205027D01*
X104546886Y-85255774D01*
X104461974Y-85340686D01*
X104422992Y-85424284D01*
X104381264Y-85469032D01*
X104321203Y-85480707D01*
X104265750Y-85454849D01*
X104263264Y-85452449D01*
X103769696Y-84958881D01*
X103741919Y-84904364D01*
X103740700Y-84888877D01*
X103740700Y-80343213D01*
X103759607Y-80285022D01*
X103809107Y-80249058D01*
X103849403Y-80244690D01*
X103877165Y-80247424D01*
X103959997Y-80255583D01*
X103960000Y-80255583D01*
X103960003Y-80255583D01*
X104165929Y-80235301D01*
X104165934Y-80235300D01*
X104363954Y-80175232D01*
X104546450Y-80077685D01*
X104706410Y-79946410D01*
X104837685Y-79786450D01*
X104935232Y-79603954D01*
X104995300Y-79405934D01*
X104995301Y-79405929D01*
X105015583Y-79200003D01*
X105015583Y-79199996D01*
X104995301Y-78994070D01*
X104995300Y-78994065D01*
X104977078Y-78933997D01*
X104935232Y-78796046D01*
X104837685Y-78613550D01*
X104706410Y-78453590D01*
X104556123Y-78330253D01*
X104546452Y-78322316D01*
X104363954Y-78224768D01*
X104165934Y-78164699D01*
X104165929Y-78164698D01*
X103960003Y-78144417D01*
X103959997Y-78144417D01*
X103754070Y-78164698D01*
X103754065Y-78164699D01*
X103556045Y-78224768D01*
X103373547Y-78322316D01*
X103213595Y-78453585D01*
X103213585Y-78453595D01*
X103082316Y-78613547D01*
X102984768Y-78796045D01*
X102924699Y-78994065D01*
X102924698Y-78994070D01*
X102904417Y-79199996D01*
X102904417Y-79200003D01*
X102924698Y-79405929D01*
X102924699Y-79405934D01*
X102984768Y-79603954D01*
X103082315Y-79786450D01*
X103167228Y-79889917D01*
X103189528Y-79946893D01*
X103189700Y-79952721D01*
X103189700Y-84713968D01*
X103170793Y-84772159D01*
X103121293Y-84808123D01*
X103060107Y-84808123D01*
X103020696Y-84783972D01*
X101724496Y-83487772D01*
X101696719Y-83433255D01*
X101695500Y-83417768D01*
X101695500Y-80287620D01*
X101714407Y-80229429D01*
X101763907Y-80193465D01*
X101765619Y-80192927D01*
X101823954Y-80175232D01*
X102006450Y-80077685D01*
X102166410Y-79946410D01*
X102297685Y-79786450D01*
X102395232Y-79603954D01*
X102455300Y-79405934D01*
X102455301Y-79405929D01*
X102475583Y-79200003D01*
X102475583Y-79199996D01*
X102455301Y-78994070D01*
X102455300Y-78994065D01*
X102437078Y-78933997D01*
X102395232Y-78796046D01*
X102297685Y-78613550D01*
X102166410Y-78453590D01*
X102016123Y-78330253D01*
X102006452Y-78322316D01*
X101823954Y-78224768D01*
X101625934Y-78164699D01*
X101625929Y-78164698D01*
X101420003Y-78144417D01*
X101419997Y-78144417D01*
X101214070Y-78164698D01*
X101214065Y-78164699D01*
X101016045Y-78224768D01*
X100833547Y-78322316D01*
X100673595Y-78453585D01*
X100673585Y-78453595D01*
X100542316Y-78613547D01*
X100444768Y-78796045D01*
X100384699Y-78994065D01*
X100384698Y-78994070D01*
X100364417Y-79199996D01*
X100364417Y-79200003D01*
X100384698Y-79405929D01*
X100384699Y-79405934D01*
X100444768Y-79603954D01*
X100542316Y-79786452D01*
X100627227Y-79889916D01*
X100673590Y-79946410D01*
X100673595Y-79946414D01*
X100833547Y-80077683D01*
X100833548Y-80077683D01*
X100833550Y-80077685D01*
X101016046Y-80175232D01*
X101074240Y-80192884D01*
X101124434Y-80227867D01*
X101144481Y-80285675D01*
X101144500Y-80287620D01*
X101144500Y-83022322D01*
X101125593Y-83080513D01*
X101076093Y-83116477D01*
X101014907Y-83116477D01*
X100975496Y-83092326D01*
X99184496Y-81301326D01*
X99156719Y-81246809D01*
X99155500Y-81231322D01*
X99155500Y-80287620D01*
X99174407Y-80229429D01*
X99223907Y-80193465D01*
X99225619Y-80192927D01*
X99283954Y-80175232D01*
X99466450Y-80077685D01*
X99626410Y-79946410D01*
X99757685Y-79786450D01*
X99855232Y-79603954D01*
X99915300Y-79405934D01*
X99915301Y-79405929D01*
X99935583Y-79200003D01*
X99935583Y-79199996D01*
X99915301Y-78994070D01*
X99915300Y-78994065D01*
X99897078Y-78933997D01*
X99855232Y-78796046D01*
X99757685Y-78613550D01*
X99626410Y-78453590D01*
X99476123Y-78330253D01*
X99466452Y-78322316D01*
X99283954Y-78224768D01*
X99085934Y-78164699D01*
X99085929Y-78164698D01*
X98880003Y-78144417D01*
X98879997Y-78144417D01*
X98674070Y-78164698D01*
X98674065Y-78164699D01*
X98476045Y-78224768D01*
X98293547Y-78322316D01*
X98133595Y-78453585D01*
X98133585Y-78453595D01*
X98002316Y-78613547D01*
X97904768Y-78796045D01*
X97844699Y-78994065D01*
X97844698Y-78994070D01*
X97824417Y-79199996D01*
X97824417Y-79200003D01*
X97844698Y-79405929D01*
X97844699Y-79405934D01*
X97904768Y-79603954D01*
X98002316Y-79786452D01*
X98087227Y-79889916D01*
X98133590Y-79946410D01*
X98133595Y-79946414D01*
X98293547Y-80077683D01*
X98293548Y-80077683D01*
X98293550Y-80077685D01*
X98476046Y-80175232D01*
X98534240Y-80192884D01*
X98584434Y-80227867D01*
X98604481Y-80285675D01*
X98604500Y-80287620D01*
X98604500Y-80835876D01*
X98585593Y-80894067D01*
X98536093Y-80930031D01*
X98474907Y-80930031D01*
X98435496Y-80905880D01*
X97303871Y-79774256D01*
X97276094Y-79719739D01*
X97285665Y-79659307D01*
X97286519Y-79657670D01*
X97315232Y-79603954D01*
X97375300Y-79405934D01*
X97375301Y-79405929D01*
X97395583Y-79200003D01*
X97395583Y-79199996D01*
X97375301Y-78994070D01*
X97375300Y-78994065D01*
X97357078Y-78933997D01*
X97315232Y-78796046D01*
X97217685Y-78613550D01*
X97086410Y-78453590D01*
X96936123Y-78330253D01*
X96926452Y-78322316D01*
X96743954Y-78224768D01*
X96545934Y-78164699D01*
X96545929Y-78164698D01*
X96340003Y-78144417D01*
X96339997Y-78144417D01*
X96134070Y-78164698D01*
X96134065Y-78164699D01*
X95936045Y-78224768D01*
X95753547Y-78322316D01*
X95593595Y-78453585D01*
X95593585Y-78453595D01*
X95462316Y-78613547D01*
X95364768Y-78796045D01*
X95304699Y-78994065D01*
X95304698Y-78994070D01*
X95284417Y-79199996D01*
X95284417Y-79200003D01*
X95304698Y-79405929D01*
X95304699Y-79405934D01*
X95364768Y-79603954D01*
X95462316Y-79786452D01*
X95547227Y-79889916D01*
X95593590Y-79946410D01*
X95593595Y-79946414D01*
X95753547Y-80077683D01*
X95753548Y-80077683D01*
X95753550Y-80077685D01*
X95936046Y-80175232D01*
X96064498Y-80214197D01*
X96134065Y-80235300D01*
X96134070Y-80235301D01*
X96339997Y-80255583D01*
X96340000Y-80255583D01*
X96340003Y-80255583D01*
X96545929Y-80235301D01*
X96545934Y-80235300D01*
X96559302Y-80231245D01*
X96743954Y-80175232D01*
X96797584Y-80146565D01*
X96857813Y-80135808D01*
X96912866Y-80162508D01*
X96914256Y-80163871D01*
X103195504Y-86445119D01*
X103223281Y-86499636D01*
X103224500Y-86515123D01*
X103224500Y-86517300D01*
X103216966Y-86555182D01*
X103214033Y-86562263D01*
X103199501Y-86635315D01*
X103199500Y-86635327D01*
X103199500Y-87344681D01*
X103202830Y-87361420D01*
X103195637Y-87422181D01*
X103154104Y-87467110D01*
X103094094Y-87479046D01*
X103086420Y-87477830D01*
X103069681Y-87474500D01*
X103069674Y-87474500D01*
X102360326Y-87474500D01*
X102360325Y-87474500D01*
X102360315Y-87474501D01*
X102287263Y-87489033D01*
X102287261Y-87489033D01*
X102287260Y-87489034D01*
X102287259Y-87489034D01*
X102280185Y-87491965D01*
X102242301Y-87499500D01*
X101241986Y-87499500D01*
X101183795Y-87480593D01*
X101171982Y-87470504D01*
X94104496Y-80403018D01*
X94076719Y-80348501D01*
X94075500Y-80333014D01*
X94075500Y-80287620D01*
X94094407Y-80229429D01*
X94143907Y-80193465D01*
X94145619Y-80192927D01*
X94203954Y-80175232D01*
X94386450Y-80077685D01*
X94546410Y-79946410D01*
X94677685Y-79786450D01*
X94775232Y-79603954D01*
X94835300Y-79405934D01*
X94835301Y-79405929D01*
X94855583Y-79200003D01*
X94855583Y-79199996D01*
X94835301Y-78994070D01*
X94835300Y-78994065D01*
X94817078Y-78933997D01*
X94775232Y-78796046D01*
X94677685Y-78613550D01*
X94546410Y-78453590D01*
X94396123Y-78330253D01*
X94386452Y-78322316D01*
X94203954Y-78224768D01*
X94005934Y-78164699D01*
X94005929Y-78164698D01*
X93800003Y-78144417D01*
X93799997Y-78144417D01*
X93594070Y-78164698D01*
X93594065Y-78164699D01*
X93396045Y-78224768D01*
X93213547Y-78322316D01*
X93053595Y-78453585D01*
X93053585Y-78453595D01*
X92922316Y-78613547D01*
X92824768Y-78796045D01*
X92764699Y-78994065D01*
X92764698Y-78994070D01*
X92744417Y-79199996D01*
X92744417Y-79200003D01*
X92764698Y-79405929D01*
X92764699Y-79405934D01*
X92824768Y-79603954D01*
X92922316Y-79786452D01*
X93007227Y-79889916D01*
X93053590Y-79946410D01*
X93053595Y-79946414D01*
X93213547Y-80077683D01*
X93213548Y-80077683D01*
X93213550Y-80077685D01*
X93396046Y-80175232D01*
X93454240Y-80192884D01*
X93504434Y-80227867D01*
X93524481Y-80285675D01*
X93524500Y-80287620D01*
X93524500Y-80542938D01*
X93566443Y-80644196D01*
X94292751Y-81370504D01*
X94952743Y-82030496D01*
X94980520Y-82085013D01*
X94970949Y-82145445D01*
X94927684Y-82188710D01*
X94882739Y-82199500D01*
X93130124Y-82199500D01*
X93071933Y-82180593D01*
X93060120Y-82170504D01*
X91564496Y-80674880D01*
X91536719Y-80620363D01*
X91535500Y-80604876D01*
X91535500Y-80287620D01*
X91554407Y-80229429D01*
X91603907Y-80193465D01*
X91605619Y-80192927D01*
X91663954Y-80175232D01*
X91846450Y-80077685D01*
X92006410Y-79946410D01*
X92137685Y-79786450D01*
X92235232Y-79603954D01*
X92295300Y-79405934D01*
X92295301Y-79405929D01*
X92315583Y-79200003D01*
X92315583Y-79199996D01*
X92295301Y-78994070D01*
X92295300Y-78994065D01*
X92277078Y-78933997D01*
X92235232Y-78796046D01*
X92137685Y-78613550D01*
X92006410Y-78453590D01*
X91856123Y-78330253D01*
X91846452Y-78322316D01*
X91663954Y-78224768D01*
X91465934Y-78164699D01*
X91465929Y-78164698D01*
X91260003Y-78144417D01*
X91259997Y-78144417D01*
X91054070Y-78164698D01*
X91054065Y-78164699D01*
X90856045Y-78224768D01*
X90673547Y-78322316D01*
X90513595Y-78453585D01*
X90513585Y-78453595D01*
X90382316Y-78613547D01*
X90284768Y-78796045D01*
X90224699Y-78994065D01*
X90224698Y-78994070D01*
X90204417Y-79199996D01*
X90204417Y-79200003D01*
X90224698Y-79405929D01*
X90224699Y-79405934D01*
X90284768Y-79603954D01*
X90382316Y-79786452D01*
X90467227Y-79889916D01*
X90513590Y-79946410D01*
X90513595Y-79946414D01*
X90673547Y-80077683D01*
X90673548Y-80077683D01*
X90673550Y-80077685D01*
X90856046Y-80175232D01*
X90914240Y-80192884D01*
X90964434Y-80227867D01*
X90984481Y-80285675D01*
X90984500Y-80287620D01*
X90984500Y-80814800D01*
X91019585Y-80899501D01*
X91026443Y-80916058D01*
X92060884Y-81950500D01*
X92390880Y-82280496D01*
X92418657Y-82335013D01*
X92409086Y-82395445D01*
X92365821Y-82438710D01*
X92320876Y-82449500D01*
X89955124Y-82449500D01*
X89896933Y-82430593D01*
X89885120Y-82420504D01*
X89024496Y-81559880D01*
X88996719Y-81505363D01*
X88995500Y-81489876D01*
X88995500Y-80349500D01*
X89014407Y-80291309D01*
X89063907Y-80255345D01*
X89094500Y-80250500D01*
X89589747Y-80250500D01*
X89589748Y-80250500D01*
X89648231Y-80238867D01*
X89714552Y-80194552D01*
X89758867Y-80128231D01*
X89770500Y-80069748D01*
X89770500Y-78330252D01*
X89768921Y-78322316D01*
X89767711Y-78316231D01*
X89758867Y-78271769D01*
X89714552Y-78205448D01*
X89714548Y-78205445D01*
X89648233Y-78161134D01*
X89648231Y-78161133D01*
X89648228Y-78161132D01*
X89648227Y-78161132D01*
X89589758Y-78149501D01*
X89589748Y-78149500D01*
X87850252Y-78149500D01*
X87850251Y-78149500D01*
X87850241Y-78149501D01*
X87791772Y-78161132D01*
X87791766Y-78161134D01*
X87725451Y-78205445D01*
X87725445Y-78205451D01*
X87681134Y-78271766D01*
X87681132Y-78271772D01*
X87669501Y-78330241D01*
X87669500Y-78330253D01*
X87669500Y-80069746D01*
X87669501Y-80069758D01*
X87681132Y-80128227D01*
X87681134Y-80128233D01*
X87725445Y-80194548D01*
X87725448Y-80194552D01*
X87791769Y-80238867D01*
X87836231Y-80247711D01*
X87850241Y-80250498D01*
X87850246Y-80250498D01*
X87850252Y-80250500D01*
X88345500Y-80250500D01*
X88403691Y-80269407D01*
X88439655Y-80318907D01*
X88444500Y-80349500D01*
X88444500Y-81699800D01*
X88456926Y-81729798D01*
X88456927Y-81729801D01*
X88486441Y-81801055D01*
X88486442Y-81801056D01*
X88486443Y-81801058D01*
X89643942Y-82958558D01*
X89643943Y-82958558D01*
X89643944Y-82958559D01*
X89745198Y-83000500D01*
X89745200Y-83000500D01*
X95174631Y-83000500D01*
X95232822Y-83019407D01*
X95244635Y-83029496D01*
X98670634Y-86455496D01*
X98698411Y-86510013D01*
X98688840Y-86570445D01*
X98645575Y-86613710D01*
X98600630Y-86624500D01*
X93615199Y-86624500D01*
X93543599Y-86654157D01*
X93543599Y-86654158D01*
X93519583Y-86664106D01*
X93513941Y-86666443D01*
X87523942Y-92656443D01*
X87523941Y-92656442D01*
X87446446Y-92733938D01*
X87446444Y-92733940D01*
X87446443Y-92733942D01*
X87404500Y-92835200D01*
X87080500Y-92835200D01*
X87080500Y-83710253D01*
X87759500Y-83710253D01*
X87759500Y-84499746D01*
X87759501Y-84499758D01*
X87771132Y-84558227D01*
X87771134Y-84558233D01*
X87814764Y-84623529D01*
X87815448Y-84624552D01*
X87881769Y-84668867D01*
X87926231Y-84677711D01*
X87940241Y-84680498D01*
X87940246Y-84680498D01*
X87940252Y-84680500D01*
X87940253Y-84680500D01*
X88979747Y-84680500D01*
X88979748Y-84680500D01*
X89038231Y-84668867D01*
X89104552Y-84624552D01*
X89148867Y-84558231D01*
X89160500Y-84499748D01*
X89160500Y-84449500D01*
X89179407Y-84391309D01*
X89228907Y-84355345D01*
X89259500Y-84350500D01*
X93660500Y-84350500D01*
X93718691Y-84369407D01*
X93754655Y-84418907D01*
X93759500Y-84449500D01*
X93759500Y-84499746D01*
X93759501Y-84499758D01*
X93771132Y-84558227D01*
X93771134Y-84558233D01*
X93814764Y-84623529D01*
X93815448Y-84624552D01*
X93881769Y-84668867D01*
X93926231Y-84677711D01*
X93940241Y-84680498D01*
X93940246Y-84680498D01*
X93940252Y-84680500D01*
X94107745Y-84680500D01*
X94165936Y-84699407D01*
X94201900Y-84748907D01*
X94201900Y-84810093D01*
X94184559Y-84838390D01*
X94186053Y-84839475D01*
X94181470Y-84845782D01*
X94120282Y-84965870D01*
X94120281Y-84965872D01*
X94099196Y-85098999D01*
X94099196Y-85099000D01*
X94120281Y-85232127D01*
X94120282Y-85232129D01*
X94175594Y-85340684D01*
X94181472Y-85352220D01*
X94276780Y-85447528D01*
X94396874Y-85508719D01*
X94530000Y-85529804D01*
X94663126Y-85508719D01*
X94783220Y-85447528D01*
X94878528Y-85352220D01*
X94939719Y-85232126D01*
X94960804Y-85099000D01*
X94939719Y-84965874D01*
X94878528Y-84845780D01*
X94878526Y-84845778D01*
X94873947Y-84839475D01*
X94876278Y-84837781D01*
X94854474Y-84794987D01*
X94864045Y-84734555D01*
X94907310Y-84691290D01*
X94952255Y-84680500D01*
X94979747Y-84680500D01*
X94979748Y-84680500D01*
X95038231Y-84668867D01*
X95104552Y-84624552D01*
X95148867Y-84558231D01*
X95160500Y-84499748D01*
X95160500Y-83710252D01*
X95148867Y-83651769D01*
X95104552Y-83585448D01*
X95084097Y-83571780D01*
X95038233Y-83541134D01*
X95038231Y-83541133D01*
X95038228Y-83541132D01*
X95038227Y-83541132D01*
X94979758Y-83529501D01*
X94979748Y-83529500D01*
X93940252Y-83529500D01*
X93940251Y-83529500D01*
X93940241Y-83529501D01*
X93881772Y-83541132D01*
X93881766Y-83541134D01*
X93815451Y-83585445D01*
X93815445Y-83585451D01*
X93771134Y-83651766D01*
X93771132Y-83651772D01*
X93758550Y-83715023D01*
X93757488Y-83714811D01*
X93734984Y-83766261D01*
X93682197Y-83797200D01*
X93660981Y-83799500D01*
X89259019Y-83799500D01*
X89200828Y-83780593D01*
X89164864Y-83731093D01*
X89161501Y-83715012D01*
X89161450Y-83715023D01*
X89153603Y-83675582D01*
X89148867Y-83651769D01*
X89104552Y-83585448D01*
X89084097Y-83571780D01*
X89038233Y-83541134D01*
X89038231Y-83541133D01*
X89038228Y-83541132D01*
X89038227Y-83541132D01*
X88979758Y-83529501D01*
X88979748Y-83529500D01*
X87940252Y-83529500D01*
X87940251Y-83529500D01*
X87940241Y-83529501D01*
X87881772Y-83541132D01*
X87881766Y-83541134D01*
X87815451Y-83585445D01*
X87815445Y-83585451D01*
X87771134Y-83651766D01*
X87771132Y-83651772D01*
X87759501Y-83710241D01*
X87759500Y-83710253D01*
X87080500Y-83710253D01*
X87080500Y-77379500D01*
X87099407Y-77321309D01*
X87148907Y-77285345D01*
X87179500Y-77280500D01*
X140580500Y-77280500D01*
X140638691Y-77299407D01*
G37*
%TD.AperFunction*%
%TD*%
M02*
