%TF.GenerationSoftware,KiCad,Pcbnew,8.0.8*%
%TF.CreationDate,2025-01-31T11:20:25+01:00*%
%TF.ProjectId,RP2040_Template,52503230-3430-45f5-9465-6d706c617465,rev?*%
%TF.SameCoordinates,Original*%
%TF.FileFunction,Paste,Top*%
%TF.FilePolarity,Positive*%
%FSLAX46Y46*%
G04 Gerber Fmt 4.6, Leading zero omitted, Abs format (unit mm)*
G04 Created by KiCad (PCBNEW 8.0.8) date 2025-01-31 11:20:25*
%MOMM*%
%LPD*%
G01*
G04 APERTURE LIST*
G04 Aperture macros list*
%AMRoundRect*
0 Rectangle with rounded corners*
0 $1 Rounding radius*
0 $2 $3 $4 $5 $6 $7 $8 $9 X,Y pos of 4 corners*
0 Add a 4 corners polygon primitive as box body*
4,1,4,$2,$3,$4,$5,$6,$7,$8,$9,$2,$3,0*
0 Add four circle primitives for the rounded corners*
1,1,$1+$1,$2,$3*
1,1,$1+$1,$4,$5*
1,1,$1+$1,$6,$7*
1,1,$1+$1,$8,$9*
0 Add four rect primitives between the rounded corners*
20,1,$1+$1,$2,$3,$4,$5,0*
20,1,$1+$1,$4,$5,$6,$7,0*
20,1,$1+$1,$6,$7,$8,$9,0*
20,1,$1+$1,$8,$9,$2,$3,0*%
G04 Aperture macros list end*
%ADD10RoundRect,0.140000X-0.170000X0.140000X-0.170000X-0.140000X0.170000X-0.140000X0.170000X0.140000X0*%
%ADD11RoundRect,0.135000X0.135000X0.185000X-0.135000X0.185000X-0.135000X-0.185000X0.135000X-0.185000X0*%
%ADD12RoundRect,0.140000X0.140000X0.170000X-0.140000X0.170000X-0.140000X-0.170000X0.140000X-0.170000X0*%
%ADD13RoundRect,0.225000X0.375000X-0.225000X0.375000X0.225000X-0.375000X0.225000X-0.375000X-0.225000X0*%
%ADD14RoundRect,0.140000X-0.140000X-0.170000X0.140000X-0.170000X0.140000X0.170000X-0.140000X0.170000X0*%
%ADD15RoundRect,0.250000X0.350000X0.450000X-0.350000X0.450000X-0.350000X-0.450000X0.350000X-0.450000X0*%
%ADD16R,1.000000X0.750000*%
%ADD17R,1.400000X1.200000*%
%ADD18RoundRect,0.140000X0.170000X-0.140000X0.170000X0.140000X-0.170000X0.140000X-0.170000X-0.140000X0*%
%ADD19RoundRect,0.375000X0.625000X0.375000X-0.625000X0.375000X-0.625000X-0.375000X0.625000X-0.375000X0*%
%ADD20RoundRect,0.500000X0.500000X1.400000X-0.500000X1.400000X-0.500000X-1.400000X0.500000X-1.400000X0*%
%ADD21RoundRect,0.135000X0.185000X-0.135000X0.185000X0.135000X-0.185000X0.135000X-0.185000X-0.135000X0*%
%ADD22R,1.100000X1.100000*%
%ADD23RoundRect,0.045000X-0.045000X0.325000X-0.045000X-0.325000X0.045000X-0.325000X0.045000X0.325000X0*%
%ADD24RoundRect,0.045000X0.325000X0.045000X-0.325000X0.045000X-0.325000X-0.045000X0.325000X-0.045000X0*%
%ADD25R,0.651000X0.651000*%
%ADD26RoundRect,0.135000X-0.135000X-0.185000X0.135000X-0.185000X0.135000X0.185000X-0.135000X0.185000X0*%
%ADD27RoundRect,0.150000X-0.650000X-0.150000X0.650000X-0.150000X0.650000X0.150000X-0.650000X0.150000X0*%
%ADD28RoundRect,0.135000X-0.185000X0.135000X-0.185000X-0.135000X0.185000X-0.135000X0.185000X0.135000X0*%
%ADD29RoundRect,0.150000X0.500000X-0.150000X0.500000X0.150000X-0.500000X0.150000X-0.500000X-0.150000X0*%
%ADD30RoundRect,0.075000X0.575000X-0.075000X0.575000X0.075000X-0.575000X0.075000X-0.575000X-0.075000X0*%
G04 APERTURE END LIST*
D10*
%TO.C,C11*%
X105100000Y-95090000D03*
X105100000Y-96050000D03*
%TD*%
D11*
%TO.C,R2*%
X101465200Y-89879000D03*
X100445200Y-89879000D03*
%TD*%
D12*
%TO.C,C12*%
X101415200Y-90879000D03*
X100455200Y-90879000D03*
%TD*%
D11*
%TO.C,R4*%
X112450200Y-92774000D03*
X111430200Y-92774000D03*
%TD*%
D13*
%TO.C,D1*%
X124950000Y-87350000D03*
X124950000Y-84050000D03*
%TD*%
D14*
%TO.C,C14*%
X111500000Y-86750000D03*
X112460000Y-86750000D03*
%TD*%
D15*
%TO.C,R5*%
X113370000Y-84260000D03*
X111370000Y-84260000D03*
%TD*%
D16*
%TO.C,SW2*%
X94520000Y-93635000D03*
X88520000Y-93635000D03*
X94520000Y-89885000D03*
X88520000Y-89885000D03*
%TD*%
D10*
%TO.C,C9*%
X108980200Y-95194000D03*
X108980200Y-96154000D03*
%TD*%
D14*
%TO.C,C6*%
X111470200Y-89799000D03*
X112430200Y-89799000D03*
%TD*%
D17*
%TO.C,Y1*%
X96705200Y-92484000D03*
X98905200Y-92484000D03*
X98905200Y-90784000D03*
X96705200Y-90784000D03*
%TD*%
D10*
%TO.C,C10*%
X110025200Y-95200000D03*
X110025200Y-96160000D03*
%TD*%
D18*
%TO.C,C13*%
X104915200Y-85679000D03*
X104915200Y-84719000D03*
%TD*%
D19*
%TO.C,U2*%
X122370000Y-95092500D03*
X122370000Y-92792500D03*
D20*
X116070000Y-92792500D03*
D19*
X122370000Y-90492500D03*
%TD*%
D21*
%TO.C,R7*%
X131200000Y-92990000D03*
X131200000Y-91970000D03*
%TD*%
D10*
%TO.C,C2*%
X114150000Y-95160000D03*
X114150000Y-96120000D03*
%TD*%
D16*
%TO.C,SW1*%
X88460000Y-84105000D03*
X94460000Y-84105000D03*
X88460000Y-87855000D03*
X94460000Y-87855000D03*
%TD*%
D22*
%TO.C,U1*%
X106875000Y-91150000D03*
X106875000Y-89600000D03*
X105325000Y-91150000D03*
X105325000Y-89600000D03*
D23*
X108700000Y-86990000D03*
X108300000Y-86990000D03*
X107900000Y-86990000D03*
X107500000Y-86990000D03*
X107100000Y-86990000D03*
X106700000Y-86990000D03*
X106300000Y-86990000D03*
X105900000Y-86990000D03*
X105500000Y-86990000D03*
X105100000Y-86990000D03*
X104700000Y-86990000D03*
X104300000Y-86990000D03*
X103900000Y-86990000D03*
X103500000Y-86990000D03*
D24*
X102715000Y-87775000D03*
X102715000Y-88175000D03*
X102715000Y-88575000D03*
X102715000Y-88975000D03*
X102715000Y-89375000D03*
X102715000Y-89775000D03*
X102715000Y-90175000D03*
X102715000Y-90575000D03*
X102715000Y-90975000D03*
X102715000Y-91375000D03*
X102715000Y-91775000D03*
X102715000Y-92175000D03*
X102715000Y-92575000D03*
X102715000Y-92975000D03*
D23*
X103500000Y-93760000D03*
X103900000Y-93760000D03*
X104300000Y-93760000D03*
X104700000Y-93760000D03*
X105100000Y-93760000D03*
X105500000Y-93760000D03*
X105900000Y-93760000D03*
X106300000Y-93760000D03*
X106700000Y-93760000D03*
X107100000Y-93760000D03*
X107500000Y-93760000D03*
X107900000Y-93760000D03*
X108300000Y-93760000D03*
X108700000Y-93760000D03*
D24*
X109485000Y-92975000D03*
X109485000Y-92575000D03*
X109485000Y-92175000D03*
X109485000Y-91775000D03*
X109485000Y-91375000D03*
X109485000Y-90975000D03*
X109485000Y-90575000D03*
X109485000Y-90175000D03*
X109485000Y-89775000D03*
X109485000Y-89375000D03*
X109485000Y-88975000D03*
X109485000Y-88575000D03*
X109485000Y-88175000D03*
X109485000Y-87775000D03*
D25*
X106875000Y-91150000D03*
X106875000Y-89600000D03*
X105325000Y-91150000D03*
X105325000Y-89600000D03*
%TD*%
D14*
%TO.C,C5*%
X96375200Y-89394000D03*
X97335200Y-89394000D03*
%TD*%
%TO.C,C8*%
X111475200Y-93774000D03*
X112435200Y-93774000D03*
%TD*%
D12*
%TO.C,C4*%
X99265200Y-89404000D03*
X98305200Y-89404000D03*
%TD*%
D26*
%TO.C,R6*%
X100415200Y-92854000D03*
X101435200Y-92854000D03*
%TD*%
D14*
%TO.C,C1*%
X124330000Y-88800000D03*
X125290000Y-88800000D03*
%TD*%
D11*
%TO.C,R3*%
X112450200Y-91774000D03*
X111430200Y-91774000D03*
%TD*%
D27*
%TO.C,U4*%
X115380000Y-84275000D03*
X115380000Y-85545000D03*
X115380000Y-86815000D03*
X115380000Y-88085000D03*
X122580000Y-88085000D03*
X122580000Y-86815000D03*
X122580000Y-85545000D03*
X122580000Y-84275000D03*
%TD*%
D14*
%TO.C,C15*%
X111475200Y-90774000D03*
X112435200Y-90774000D03*
%TD*%
D11*
%TO.C,R1*%
X112520000Y-85740000D03*
X111500000Y-85740000D03*
%TD*%
D12*
%TO.C,C7*%
X101415200Y-91854000D03*
X100455200Y-91854000D03*
%TD*%
D10*
%TO.C,C3*%
X113160000Y-95150000D03*
X113160000Y-96110000D03*
%TD*%
D28*
%TO.C,R8*%
X131175000Y-88190000D03*
X131175000Y-89210000D03*
%TD*%
D29*
%TO.C,J3*%
X133330000Y-93830000D03*
X133330000Y-93030000D03*
D30*
X133330000Y-91880000D03*
X133330000Y-90880000D03*
X133330000Y-90380000D03*
X133330000Y-89380000D03*
D29*
X133330000Y-88230000D03*
X133330000Y-87430000D03*
X133330000Y-87430000D03*
X133330000Y-88230000D03*
D30*
X133330000Y-88880000D03*
X133330000Y-89880000D03*
X133330000Y-91380000D03*
X133330000Y-92380000D03*
D29*
X133330000Y-93030000D03*
X133330000Y-93830000D03*
%TD*%
M02*
