%TF.GenerationSoftware,KiCad,Pcbnew,8.0.8*%
%TF.CreationDate,2025-01-31T11:20:25+01:00*%
%TF.ProjectId,RP2040_Template,52503230-3430-45f5-9465-6d706c617465,rev?*%
%TF.SameCoordinates,Original*%
%TF.FileFunction,Copper,L2,Bot*%
%TF.FilePolarity,Positive*%
%FSLAX46Y46*%
G04 Gerber Fmt 4.6, Leading zero omitted, Abs format (unit mm)*
G04 Created by KiCad (PCBNEW 8.0.8) date 2025-01-31 11:20:25*
%MOMM*%
%LPD*%
G01*
G04 APERTURE LIST*
%TA.AperFunction,HeatsinkPad*%
%ADD10O,2.100000X1.000000*%
%TD*%
%TA.AperFunction,HeatsinkPad*%
%ADD11O,1.600000X1.000000*%
%TD*%
%TA.AperFunction,ComponentPad*%
%ADD12R,1.700000X1.700000*%
%TD*%
%TA.AperFunction,ComponentPad*%
%ADD13O,1.700000X1.700000*%
%TD*%
%TA.AperFunction,ViaPad*%
%ADD14C,0.650000*%
%TD*%
%TA.AperFunction,ViaPad*%
%ADD15C,0.600000*%
%TD*%
%TA.AperFunction,ViaPad*%
%ADD16C,0.450000*%
%TD*%
%TA.AperFunction,Conductor*%
%ADD17C,0.500000*%
%TD*%
%TA.AperFunction,Conductor*%
%ADD18C,0.150000*%
%TD*%
%TA.AperFunction,Conductor*%
%ADD19C,0.600000*%
%TD*%
G04 APERTURE END LIST*
D10*
%TO.P,J3,S1,SHIELD*%
%TO.N,GND*%
X133970000Y-94950000D03*
D11*
X138150000Y-94950000D03*
D10*
X133970000Y-86310000D03*
D11*
X138150000Y-86310000D03*
%TD*%
D12*
%TO.P,J5,1,Pin_1*%
%TO.N,GND*%
X129940000Y-99870000D03*
D13*
%TO.P,J5,2,Pin_2*%
%TO.N,3.3V*%
X132480000Y-99870000D03*
%TO.P,J5,3,Pin_3*%
%TO.N,VIN*%
X135020000Y-99870000D03*
%TO.P,J5,4,Pin_4*%
%TO.N,RAW*%
X137560000Y-99870000D03*
%TD*%
D12*
%TO.P,J2,1,Pin_1*%
%TO.N,A3*%
X124270000Y-99800000D03*
D13*
%TO.P,J2,2,Pin_2*%
%TO.N,A2*%
X121730000Y-99800000D03*
%TO.P,J2,3,Pin_3*%
%TO.N,A1*%
X119190000Y-99800000D03*
%TO.P,J2,4,Pin_4*%
%TO.N,A0*%
X116650000Y-99800000D03*
%TO.P,J2,5,Pin_5*%
%TO.N,D25*%
X114110000Y-99800000D03*
%TO.P,J2,6,Pin_6*%
%TO.N,D24*%
X111570000Y-99800000D03*
%TO.P,J2,7,Pin_7*%
%TO.N,D23*%
X109030000Y-99800000D03*
%TO.P,J2,8,Pin_8*%
%TO.N,D22*%
X106490000Y-99800000D03*
%TO.P,J2,9,Pin_9*%
%TO.N,D21*%
X103950000Y-99800000D03*
%TO.P,J2,10,Pin_10*%
%TO.N,D20*%
X101410000Y-99800000D03*
%TO.P,J2,11,Pin_11*%
%TO.N,D19*%
X98870000Y-99800000D03*
%TO.P,J2,12,Pin_12*%
%TO.N,D18*%
X96330000Y-99800000D03*
%TO.P,J2,13,Pin_13*%
%TO.N,D17*%
X93790000Y-99800000D03*
%TO.P,J2,14,Pin_14*%
%TO.N,D16*%
X91250000Y-99800000D03*
%TO.P,J2,15,Pin_15*%
%TO.N,D15*%
X88710000Y-99800000D03*
%TD*%
D12*
%TO.P,J1,1,Pin_1*%
%TO.N,D14*%
X88720000Y-79200000D03*
D13*
%TO.P,J1,2,Pin_2*%
%TO.N,D13*%
X91260000Y-79200000D03*
%TO.P,J1,3,Pin_3*%
%TO.N,D12*%
X93800000Y-79200000D03*
%TO.P,J1,4,Pin_4*%
%TO.N,D11*%
X96340000Y-79200000D03*
%TO.P,J1,5,Pin_5*%
%TO.N,D10*%
X98880000Y-79200000D03*
%TO.P,J1,6,Pin_6*%
%TO.N,D9*%
X101420000Y-79200000D03*
%TO.P,J1,7,Pin_7*%
%TO.N,D8*%
X103960000Y-79200000D03*
%TO.P,J1,8,Pin_8*%
%TO.N,D7*%
X106500000Y-79200000D03*
%TO.P,J1,9,Pin_9*%
%TO.N,D6*%
X109040000Y-79200000D03*
%TO.P,J1,10,Pin_10*%
%TO.N,D5*%
X111580000Y-79200000D03*
%TO.P,J1,11,Pin_11*%
%TO.N,D4*%
X114120000Y-79200000D03*
%TO.P,J1,12,Pin_12*%
%TO.N,D3*%
X116660000Y-79200000D03*
%TO.P,J1,13,Pin_13*%
%TO.N,D2*%
X119200000Y-79200000D03*
%TO.P,J1,14,Pin_14*%
%TO.N,D1*%
X121740000Y-79200000D03*
%TO.P,J1,15,Pin_15*%
%TO.N,D0*%
X124280000Y-79200000D03*
%TD*%
D14*
%TO.N,GND*%
X113360000Y-86410000D03*
X97875200Y-92514000D03*
X106085200Y-88234000D03*
X108315200Y-89654000D03*
X108305200Y-88224000D03*
D15*
X103855200Y-88114000D03*
D14*
X113275200Y-93754000D03*
X103795200Y-89494000D03*
X103965200Y-84564000D03*
D15*
%TO.N,3.3V*%
X105100000Y-87704092D03*
X105160200Y-92991200D03*
X103604200Y-90450000D03*
X114465000Y-90175000D03*
X111631200Y-95150000D03*
X116045000Y-90175000D03*
X111000000Y-95150000D03*
X109430200Y-87199000D03*
X110305200Y-93374000D03*
X115275000Y-90175000D03*
X110305200Y-94044000D03*
X110655200Y-90824000D03*
D16*
%TO.N,/RP2040/USB_D-*%
X130575000Y-91350000D03*
D15*
X113410200Y-92799000D03*
%TO.N,/RP2040/USB_D+*%
X113305200Y-91784000D03*
D16*
X130375000Y-90350000D03*
%TO.N,/RP2040/QSPI_SCLK*%
X111200000Y-88620000D03*
X121050000Y-86815000D03*
%TO.N,/RP2040/QSPI_SD0*%
X121090000Y-88085000D03*
X110520000Y-88950000D03*
%TO.N,BOOT_SEL*%
X94530000Y-85099000D03*
X110670000Y-85780000D03*
%TD*%
D17*
%TO.N,3.3V*%
X110655200Y-90824000D02*
X112976000Y-90824000D01*
D18*
X105019892Y-87784200D02*
X105100000Y-87704092D01*
D17*
X109430200Y-87199000D02*
X105542200Y-87199000D01*
X110655200Y-90824000D02*
X109885200Y-90054000D01*
X104630200Y-93024000D02*
X105127400Y-93024000D01*
X111000000Y-95150000D02*
X110305200Y-94455200D01*
X103604200Y-90450000D02*
X103605200Y-90451000D01*
X115275000Y-90175000D02*
X116045000Y-90175000D01*
X103605200Y-90451000D02*
X103605200Y-91999000D01*
X109885200Y-90054000D02*
X109885200Y-87654000D01*
X105168000Y-92999000D02*
X109930200Y-92999000D01*
X109885200Y-87654000D02*
X109430200Y-87199000D01*
X112976000Y-90824000D02*
X113625000Y-90175000D01*
X105100000Y-87641200D02*
X105100000Y-87704092D01*
X110305200Y-94455200D02*
X110305200Y-94044000D01*
X105160200Y-92991200D02*
X105168000Y-92999000D01*
X105127400Y-93024000D02*
X105160200Y-92991200D01*
X111000000Y-95150000D02*
X111631200Y-95150000D01*
X110305200Y-93374000D02*
X110305200Y-94044000D01*
X105542200Y-87199000D02*
X105100000Y-87641200D01*
X109930200Y-92999000D02*
X110305200Y-93374000D01*
X103605200Y-91999000D02*
X104630200Y-93024000D01*
X113625000Y-90175000D02*
X115275000Y-90175000D01*
D19*
%TO.N,/RP2040/USB_D-*%
X114445200Y-91764000D02*
X120086000Y-91764000D01*
X113410200Y-92799000D02*
X114445200Y-91764000D01*
X130550000Y-91375000D02*
X130575000Y-91350000D01*
X120086000Y-91764000D02*
X120475000Y-91375000D01*
X120475000Y-91375000D02*
X130550000Y-91375000D01*
%TO.N,/RP2040/USB_D+*%
X119735200Y-90944000D02*
X114155200Y-90944000D01*
X114155200Y-90944000D02*
X113315200Y-91784000D01*
X113315200Y-91784000D02*
X113305200Y-91784000D01*
X130375000Y-90350000D02*
X120329200Y-90350000D01*
X120329200Y-90350000D02*
X119735200Y-90944000D01*
D18*
%TO.N,/RP2040/QSPI_SCLK*%
X119245000Y-88620000D02*
X121050000Y-86815000D01*
X111200000Y-88620000D02*
X119245000Y-88620000D01*
%TO.N,/RP2040/QSPI_SD0*%
X110600000Y-89030000D02*
X120145000Y-89030000D01*
X120145000Y-89030000D02*
X121090000Y-88085000D01*
X110520000Y-88950000D02*
X110600000Y-89030000D01*
%TO.N,BOOT_SEL*%
X109989000Y-85099000D02*
X110670000Y-85780000D01*
X94530000Y-85099000D02*
X109989000Y-85099000D01*
%TD*%
%TA.AperFunction,Conductor*%
%TO.N,GND*%
G36*
X140638691Y-77299407D02*
G01*
X140674655Y-77348907D01*
X140679500Y-77379500D01*
X140679500Y-101780500D01*
X140660593Y-101838691D01*
X140611093Y-101874655D01*
X140580500Y-101879500D01*
X87179500Y-101879500D01*
X87121309Y-101860593D01*
X87085345Y-101811093D01*
X87080500Y-101780500D01*
X87080500Y-99799996D01*
X87654417Y-99799996D01*
X87654417Y-99800003D01*
X87674698Y-100005929D01*
X87674699Y-100005934D01*
X87734768Y-100203954D01*
X87832316Y-100386452D01*
X87963585Y-100546404D01*
X87963590Y-100546410D01*
X87963595Y-100546414D01*
X88123547Y-100677683D01*
X88123548Y-100677683D01*
X88123550Y-100677685D01*
X88306046Y-100775232D01*
X88443997Y-100817078D01*
X88504065Y-100835300D01*
X88504070Y-100835301D01*
X88709997Y-100855583D01*
X88710000Y-100855583D01*
X88710003Y-100855583D01*
X88915929Y-100835301D01*
X88915934Y-100835300D01*
X89113954Y-100775232D01*
X89296450Y-100677685D01*
X89456410Y-100546410D01*
X89587685Y-100386450D01*
X89685232Y-100203954D01*
X89745300Y-100005934D01*
X89745301Y-100005929D01*
X89765583Y-99800003D01*
X89765583Y-99799996D01*
X90194417Y-99799996D01*
X90194417Y-99800003D01*
X90214698Y-100005929D01*
X90214699Y-100005934D01*
X90274768Y-100203954D01*
X90372316Y-100386452D01*
X90503585Y-100546404D01*
X90503590Y-100546410D01*
X90503595Y-100546414D01*
X90663547Y-100677683D01*
X90663548Y-100677683D01*
X90663550Y-100677685D01*
X90846046Y-100775232D01*
X90983997Y-100817078D01*
X91044065Y-100835300D01*
X91044070Y-100835301D01*
X91249997Y-100855583D01*
X91250000Y-100855583D01*
X91250003Y-100855583D01*
X91455929Y-100835301D01*
X91455934Y-100835300D01*
X91653954Y-100775232D01*
X91836450Y-100677685D01*
X91996410Y-100546410D01*
X92127685Y-100386450D01*
X92225232Y-100203954D01*
X92285300Y-100005934D01*
X92285301Y-100005929D01*
X92305583Y-99800003D01*
X92305583Y-99799996D01*
X92734417Y-99799996D01*
X92734417Y-99800003D01*
X92754698Y-100005929D01*
X92754699Y-100005934D01*
X92814768Y-100203954D01*
X92912316Y-100386452D01*
X93043585Y-100546404D01*
X93043590Y-100546410D01*
X93043595Y-100546414D01*
X93203547Y-100677683D01*
X93203548Y-100677683D01*
X93203550Y-100677685D01*
X93386046Y-100775232D01*
X93523997Y-100817078D01*
X93584065Y-100835300D01*
X93584070Y-100835301D01*
X93789997Y-100855583D01*
X93790000Y-100855583D01*
X93790003Y-100855583D01*
X93995929Y-100835301D01*
X93995934Y-100835300D01*
X94193954Y-100775232D01*
X94376450Y-100677685D01*
X94536410Y-100546410D01*
X94667685Y-100386450D01*
X94765232Y-100203954D01*
X94825300Y-100005934D01*
X94825301Y-100005929D01*
X94845583Y-99800003D01*
X94845583Y-99799996D01*
X95274417Y-99799996D01*
X95274417Y-99800003D01*
X95294698Y-100005929D01*
X95294699Y-100005934D01*
X95354768Y-100203954D01*
X95452316Y-100386452D01*
X95583585Y-100546404D01*
X95583590Y-100546410D01*
X95583595Y-100546414D01*
X95743547Y-100677683D01*
X95743548Y-100677683D01*
X95743550Y-100677685D01*
X95926046Y-100775232D01*
X96063997Y-100817078D01*
X96124065Y-100835300D01*
X96124070Y-100835301D01*
X96329997Y-100855583D01*
X96330000Y-100855583D01*
X96330003Y-100855583D01*
X96535929Y-100835301D01*
X96535934Y-100835300D01*
X96733954Y-100775232D01*
X96916450Y-100677685D01*
X97076410Y-100546410D01*
X97207685Y-100386450D01*
X97305232Y-100203954D01*
X97365300Y-100005934D01*
X97365301Y-100005929D01*
X97385583Y-99800003D01*
X97385583Y-99799996D01*
X97814417Y-99799996D01*
X97814417Y-99800003D01*
X97834698Y-100005929D01*
X97834699Y-100005934D01*
X97894768Y-100203954D01*
X97992316Y-100386452D01*
X98123585Y-100546404D01*
X98123590Y-100546410D01*
X98123595Y-100546414D01*
X98283547Y-100677683D01*
X98283548Y-100677683D01*
X98283550Y-100677685D01*
X98466046Y-100775232D01*
X98603997Y-100817078D01*
X98664065Y-100835300D01*
X98664070Y-100835301D01*
X98869997Y-100855583D01*
X98870000Y-100855583D01*
X98870003Y-100855583D01*
X99075929Y-100835301D01*
X99075934Y-100835300D01*
X99273954Y-100775232D01*
X99456450Y-100677685D01*
X99616410Y-100546410D01*
X99747685Y-100386450D01*
X99845232Y-100203954D01*
X99905300Y-100005934D01*
X99905301Y-100005929D01*
X99925583Y-99800003D01*
X99925583Y-99799996D01*
X100354417Y-99799996D01*
X100354417Y-99800003D01*
X100374698Y-100005929D01*
X100374699Y-100005934D01*
X100434768Y-100203954D01*
X100532316Y-100386452D01*
X100663585Y-100546404D01*
X100663590Y-100546410D01*
X100663595Y-100546414D01*
X100823547Y-100677683D01*
X100823548Y-100677683D01*
X100823550Y-100677685D01*
X101006046Y-100775232D01*
X101143997Y-100817078D01*
X101204065Y-100835300D01*
X101204070Y-100835301D01*
X101409997Y-100855583D01*
X101410000Y-100855583D01*
X101410003Y-100855583D01*
X101615929Y-100835301D01*
X101615934Y-100835300D01*
X101813954Y-100775232D01*
X101996450Y-100677685D01*
X102156410Y-100546410D01*
X102287685Y-100386450D01*
X102385232Y-100203954D01*
X102445300Y-100005934D01*
X102445301Y-100005929D01*
X102465583Y-99800003D01*
X102465583Y-99799996D01*
X102894417Y-99799996D01*
X102894417Y-99800003D01*
X102914698Y-100005929D01*
X102914699Y-100005934D01*
X102974768Y-100203954D01*
X103072316Y-100386452D01*
X103203585Y-100546404D01*
X103203590Y-100546410D01*
X103203595Y-100546414D01*
X103363547Y-100677683D01*
X103363548Y-100677683D01*
X103363550Y-100677685D01*
X103546046Y-100775232D01*
X103683997Y-100817078D01*
X103744065Y-100835300D01*
X103744070Y-100835301D01*
X103949997Y-100855583D01*
X103950000Y-100855583D01*
X103950003Y-100855583D01*
X104155929Y-100835301D01*
X104155934Y-100835300D01*
X104353954Y-100775232D01*
X104536450Y-100677685D01*
X104696410Y-100546410D01*
X104827685Y-100386450D01*
X104925232Y-100203954D01*
X104985300Y-100005934D01*
X104985301Y-100005929D01*
X105005583Y-99800003D01*
X105005583Y-99799996D01*
X105434417Y-99799996D01*
X105434417Y-99800003D01*
X105454698Y-100005929D01*
X105454699Y-100005934D01*
X105514768Y-100203954D01*
X105612316Y-100386452D01*
X105743585Y-100546404D01*
X105743590Y-100546410D01*
X105743595Y-100546414D01*
X105903547Y-100677683D01*
X105903548Y-100677683D01*
X105903550Y-100677685D01*
X106086046Y-100775232D01*
X106223997Y-100817078D01*
X106284065Y-100835300D01*
X106284070Y-100835301D01*
X106489997Y-100855583D01*
X106490000Y-100855583D01*
X106490003Y-100855583D01*
X106695929Y-100835301D01*
X106695934Y-100835300D01*
X106893954Y-100775232D01*
X107076450Y-100677685D01*
X107236410Y-100546410D01*
X107367685Y-100386450D01*
X107465232Y-100203954D01*
X107525300Y-100005934D01*
X107525301Y-100005929D01*
X107545583Y-99800003D01*
X107545583Y-99799996D01*
X107974417Y-99799996D01*
X107974417Y-99800003D01*
X107994698Y-100005929D01*
X107994699Y-100005934D01*
X108054768Y-100203954D01*
X108152316Y-100386452D01*
X108283585Y-100546404D01*
X108283590Y-100546410D01*
X108283595Y-100546414D01*
X108443547Y-100677683D01*
X108443548Y-100677683D01*
X108443550Y-100677685D01*
X108626046Y-100775232D01*
X108763997Y-100817078D01*
X108824065Y-100835300D01*
X108824070Y-100835301D01*
X109029997Y-100855583D01*
X109030000Y-100855583D01*
X109030003Y-100855583D01*
X109235929Y-100835301D01*
X109235934Y-100835300D01*
X109433954Y-100775232D01*
X109616450Y-100677685D01*
X109776410Y-100546410D01*
X109907685Y-100386450D01*
X110005232Y-100203954D01*
X110065300Y-100005934D01*
X110065301Y-100005929D01*
X110085583Y-99800003D01*
X110085583Y-99799996D01*
X110514417Y-99799996D01*
X110514417Y-99800003D01*
X110534698Y-100005929D01*
X110534699Y-100005934D01*
X110594768Y-100203954D01*
X110692316Y-100386452D01*
X110823585Y-100546404D01*
X110823590Y-100546410D01*
X110823595Y-100546414D01*
X110983547Y-100677683D01*
X110983548Y-100677683D01*
X110983550Y-100677685D01*
X111166046Y-100775232D01*
X111303997Y-100817078D01*
X111364065Y-100835300D01*
X111364070Y-100835301D01*
X111569997Y-100855583D01*
X111570000Y-100855583D01*
X111570003Y-100855583D01*
X111775929Y-100835301D01*
X111775934Y-100835300D01*
X111973954Y-100775232D01*
X112156450Y-100677685D01*
X112316410Y-100546410D01*
X112447685Y-100386450D01*
X112545232Y-100203954D01*
X112605300Y-100005934D01*
X112605301Y-100005929D01*
X112625583Y-99800003D01*
X112625583Y-99799996D01*
X113054417Y-99799996D01*
X113054417Y-99800003D01*
X113074698Y-100005929D01*
X113074699Y-100005934D01*
X113134768Y-100203954D01*
X113232316Y-100386452D01*
X113363585Y-100546404D01*
X113363590Y-100546410D01*
X113363595Y-100546414D01*
X113523547Y-100677683D01*
X113523548Y-100677683D01*
X113523550Y-100677685D01*
X113706046Y-100775232D01*
X113843997Y-100817078D01*
X113904065Y-100835300D01*
X113904070Y-100835301D01*
X114109997Y-100855583D01*
X114110000Y-100855583D01*
X114110003Y-100855583D01*
X114315929Y-100835301D01*
X114315934Y-100835300D01*
X114513954Y-100775232D01*
X114696450Y-100677685D01*
X114856410Y-100546410D01*
X114987685Y-100386450D01*
X115085232Y-100203954D01*
X115145300Y-100005934D01*
X115145301Y-100005929D01*
X115165583Y-99800003D01*
X115165583Y-99799996D01*
X115594417Y-99799996D01*
X115594417Y-99800003D01*
X115614698Y-100005929D01*
X115614699Y-100005934D01*
X115674768Y-100203954D01*
X115772316Y-100386452D01*
X115903585Y-100546404D01*
X115903590Y-100546410D01*
X115903595Y-100546414D01*
X116063547Y-100677683D01*
X116063548Y-100677683D01*
X116063550Y-100677685D01*
X116246046Y-100775232D01*
X116383997Y-100817078D01*
X116444065Y-100835300D01*
X116444070Y-100835301D01*
X116649997Y-100855583D01*
X116650000Y-100855583D01*
X116650003Y-100855583D01*
X116855929Y-100835301D01*
X116855934Y-100835300D01*
X117053954Y-100775232D01*
X117236450Y-100677685D01*
X117396410Y-100546410D01*
X117527685Y-100386450D01*
X117625232Y-100203954D01*
X117685300Y-100005934D01*
X117685301Y-100005929D01*
X117705583Y-99800003D01*
X117705583Y-99799996D01*
X118134417Y-99799996D01*
X118134417Y-99800003D01*
X118154698Y-100005929D01*
X118154699Y-100005934D01*
X118214768Y-100203954D01*
X118312316Y-100386452D01*
X118443585Y-100546404D01*
X118443590Y-100546410D01*
X118443595Y-100546414D01*
X118603547Y-100677683D01*
X118603548Y-100677683D01*
X118603550Y-100677685D01*
X118786046Y-100775232D01*
X118923997Y-100817078D01*
X118984065Y-100835300D01*
X118984070Y-100835301D01*
X119189997Y-100855583D01*
X119190000Y-100855583D01*
X119190003Y-100855583D01*
X119395929Y-100835301D01*
X119395934Y-100835300D01*
X119593954Y-100775232D01*
X119776450Y-100677685D01*
X119936410Y-100546410D01*
X120067685Y-100386450D01*
X120165232Y-100203954D01*
X120225300Y-100005934D01*
X120225301Y-100005929D01*
X120245583Y-99800003D01*
X120245583Y-99799996D01*
X120674417Y-99799996D01*
X120674417Y-99800003D01*
X120694698Y-100005929D01*
X120694699Y-100005934D01*
X120754768Y-100203954D01*
X120852316Y-100386452D01*
X120983585Y-100546404D01*
X120983590Y-100546410D01*
X120983595Y-100546414D01*
X121143547Y-100677683D01*
X121143548Y-100677683D01*
X121143550Y-100677685D01*
X121326046Y-100775232D01*
X121463997Y-100817078D01*
X121524065Y-100835300D01*
X121524070Y-100835301D01*
X121729997Y-100855583D01*
X121730000Y-100855583D01*
X121730003Y-100855583D01*
X121935929Y-100835301D01*
X121935934Y-100835300D01*
X122133954Y-100775232D01*
X122316450Y-100677685D01*
X122476410Y-100546410D01*
X122607685Y-100386450D01*
X122705232Y-100203954D01*
X122765300Y-100005934D01*
X122765301Y-100005929D01*
X122785583Y-99800003D01*
X122785583Y-99799996D01*
X122765301Y-99594070D01*
X122765300Y-99594065D01*
X122726466Y-99466046D01*
X122705232Y-99396046D01*
X122607685Y-99213550D01*
X122476410Y-99053590D01*
X122411478Y-99000302D01*
X122326123Y-98930253D01*
X123219500Y-98930253D01*
X123219500Y-100669746D01*
X123219501Y-100669758D01*
X123231132Y-100728227D01*
X123231134Y-100728233D01*
X123275445Y-100794548D01*
X123275448Y-100794552D01*
X123341769Y-100838867D01*
X123386231Y-100847711D01*
X123400241Y-100850498D01*
X123400246Y-100850498D01*
X123400252Y-100850500D01*
X123400253Y-100850500D01*
X125139747Y-100850500D01*
X125139748Y-100850500D01*
X125198231Y-100838867D01*
X125264552Y-100794552D01*
X125308867Y-100728231D01*
X125320500Y-100669748D01*
X125320500Y-99000299D01*
X128890000Y-99000299D01*
X128890000Y-99769999D01*
X128890001Y-99770000D01*
X129449157Y-99770000D01*
X129440000Y-99804174D01*
X129440000Y-99935826D01*
X129449157Y-99970000D01*
X128890001Y-99970000D01*
X128890000Y-99970001D01*
X128890000Y-100739700D01*
X128901603Y-100798036D01*
X128945806Y-100864189D01*
X128945810Y-100864193D01*
X129011963Y-100908396D01*
X129070299Y-100919999D01*
X129070303Y-100920000D01*
X129839999Y-100920000D01*
X129840000Y-100919999D01*
X129840000Y-100360842D01*
X129874174Y-100370000D01*
X130005826Y-100370000D01*
X130040000Y-100360842D01*
X130040000Y-100919999D01*
X130040001Y-100920000D01*
X130809697Y-100920000D01*
X130809700Y-100919999D01*
X130868036Y-100908396D01*
X130934189Y-100864193D01*
X130934193Y-100864189D01*
X130978396Y-100798036D01*
X130989999Y-100739700D01*
X130990000Y-100739697D01*
X130990000Y-99970001D01*
X130989999Y-99970000D01*
X130430843Y-99970000D01*
X130440000Y-99935826D01*
X130440000Y-99869996D01*
X131424417Y-99869996D01*
X131424417Y-99870003D01*
X131444698Y-100075929D01*
X131444699Y-100075934D01*
X131504768Y-100273954D01*
X131602316Y-100456452D01*
X131676138Y-100546404D01*
X131733590Y-100616410D01*
X131733595Y-100616414D01*
X131893547Y-100747683D01*
X131893548Y-100747683D01*
X131893550Y-100747685D01*
X132076046Y-100845232D01*
X132213997Y-100887078D01*
X132274065Y-100905300D01*
X132274070Y-100905301D01*
X132479997Y-100925583D01*
X132480000Y-100925583D01*
X132480003Y-100925583D01*
X132685929Y-100905301D01*
X132685934Y-100905300D01*
X132883954Y-100845232D01*
X133066450Y-100747685D01*
X133226410Y-100616410D01*
X133357685Y-100456450D01*
X133455232Y-100273954D01*
X133515300Y-100075934D01*
X133515301Y-100075929D01*
X133535583Y-99870003D01*
X133535583Y-99869996D01*
X133964417Y-99869996D01*
X133964417Y-99870003D01*
X133984698Y-100075929D01*
X133984699Y-100075934D01*
X134044768Y-100273954D01*
X134142316Y-100456452D01*
X134216138Y-100546404D01*
X134273590Y-100616410D01*
X134273595Y-100616414D01*
X134433547Y-100747683D01*
X134433548Y-100747683D01*
X134433550Y-100747685D01*
X134616046Y-100845232D01*
X134753997Y-100887078D01*
X134814065Y-100905300D01*
X134814070Y-100905301D01*
X135019997Y-100925583D01*
X135020000Y-100925583D01*
X135020003Y-100925583D01*
X135225929Y-100905301D01*
X135225934Y-100905300D01*
X135423954Y-100845232D01*
X135606450Y-100747685D01*
X135766410Y-100616410D01*
X135897685Y-100456450D01*
X135995232Y-100273954D01*
X136055300Y-100075934D01*
X136055301Y-100075929D01*
X136075583Y-99870003D01*
X136075583Y-99869996D01*
X136504417Y-99869996D01*
X136504417Y-99870003D01*
X136524698Y-100075929D01*
X136524699Y-100075934D01*
X136584768Y-100273954D01*
X136682316Y-100456452D01*
X136756138Y-100546404D01*
X136813590Y-100616410D01*
X136813595Y-100616414D01*
X136973547Y-100747683D01*
X136973548Y-100747683D01*
X136973550Y-100747685D01*
X137156046Y-100845232D01*
X137293997Y-100887078D01*
X137354065Y-100905300D01*
X137354070Y-100905301D01*
X137559997Y-100925583D01*
X137560000Y-100925583D01*
X137560003Y-100925583D01*
X137765929Y-100905301D01*
X137765934Y-100905300D01*
X137963954Y-100845232D01*
X138146450Y-100747685D01*
X138306410Y-100616410D01*
X138437685Y-100456450D01*
X138535232Y-100273954D01*
X138595300Y-100075934D01*
X138595301Y-100075929D01*
X138615583Y-99870003D01*
X138615583Y-99869996D01*
X138595301Y-99664070D01*
X138595300Y-99664065D01*
X138536401Y-99469901D01*
X138535232Y-99466046D01*
X138437685Y-99283550D01*
X138380235Y-99213547D01*
X138306414Y-99123595D01*
X138306410Y-99123590D01*
X138306404Y-99123585D01*
X138146452Y-98992316D01*
X137963954Y-98894768D01*
X137765934Y-98834699D01*
X137765929Y-98834698D01*
X137560003Y-98814417D01*
X137559997Y-98814417D01*
X137354070Y-98834698D01*
X137354065Y-98834699D01*
X137156045Y-98894768D01*
X136973547Y-98992316D01*
X136813595Y-99123585D01*
X136813585Y-99123595D01*
X136682316Y-99283547D01*
X136584768Y-99466045D01*
X136524699Y-99664065D01*
X136524698Y-99664070D01*
X136504417Y-99869996D01*
X136075583Y-99869996D01*
X136055301Y-99664070D01*
X136055300Y-99664065D01*
X135996401Y-99469901D01*
X135995232Y-99466046D01*
X135897685Y-99283550D01*
X135840235Y-99213547D01*
X135766414Y-99123595D01*
X135766410Y-99123590D01*
X135766404Y-99123585D01*
X135606452Y-98992316D01*
X135423954Y-98894768D01*
X135225934Y-98834699D01*
X135225929Y-98834698D01*
X135020003Y-98814417D01*
X135019997Y-98814417D01*
X134814070Y-98834698D01*
X134814065Y-98834699D01*
X134616045Y-98894768D01*
X134433547Y-98992316D01*
X134273595Y-99123585D01*
X134273585Y-99123595D01*
X134142316Y-99283547D01*
X134044768Y-99466045D01*
X133984699Y-99664065D01*
X133984698Y-99664070D01*
X133964417Y-99869996D01*
X133535583Y-99869996D01*
X133515301Y-99664070D01*
X133515300Y-99664065D01*
X133456401Y-99469901D01*
X133455232Y-99466046D01*
X133357685Y-99283550D01*
X133300235Y-99213547D01*
X133226414Y-99123595D01*
X133226410Y-99123590D01*
X133226404Y-99123585D01*
X133066452Y-98992316D01*
X132883954Y-98894768D01*
X132685934Y-98834699D01*
X132685929Y-98834698D01*
X132480003Y-98814417D01*
X132479997Y-98814417D01*
X132274070Y-98834698D01*
X132274065Y-98834699D01*
X132076045Y-98894768D01*
X131893547Y-98992316D01*
X131733595Y-99123585D01*
X131733585Y-99123595D01*
X131602316Y-99283547D01*
X131504768Y-99466045D01*
X131444699Y-99664065D01*
X131444698Y-99664070D01*
X131424417Y-99869996D01*
X130440000Y-99869996D01*
X130440000Y-99804174D01*
X130430843Y-99770000D01*
X130989999Y-99770000D01*
X130990000Y-99769999D01*
X130990000Y-99000302D01*
X130989999Y-99000299D01*
X130978396Y-98941963D01*
X130934193Y-98875810D01*
X130934189Y-98875806D01*
X130868036Y-98831603D01*
X130809700Y-98820000D01*
X130040001Y-98820000D01*
X130040000Y-98820001D01*
X130040000Y-99379157D01*
X130005826Y-99370000D01*
X129874174Y-99370000D01*
X129840000Y-99379157D01*
X129840000Y-98820001D01*
X129839999Y-98820000D01*
X129070299Y-98820000D01*
X129011963Y-98831603D01*
X128945810Y-98875806D01*
X128945806Y-98875810D01*
X128901603Y-98941963D01*
X128890000Y-99000299D01*
X125320500Y-99000299D01*
X125320500Y-98930252D01*
X125318921Y-98922316D01*
X125313442Y-98894768D01*
X125308867Y-98871769D01*
X125264552Y-98805448D01*
X125264548Y-98805445D01*
X125198233Y-98761134D01*
X125198231Y-98761133D01*
X125198228Y-98761132D01*
X125198227Y-98761132D01*
X125139758Y-98749501D01*
X125139748Y-98749500D01*
X123400252Y-98749500D01*
X123400251Y-98749500D01*
X123400241Y-98749501D01*
X123341772Y-98761132D01*
X123341766Y-98761134D01*
X123275451Y-98805445D01*
X123275445Y-98805451D01*
X123231134Y-98871766D01*
X123231132Y-98871772D01*
X123219501Y-98930241D01*
X123219500Y-98930253D01*
X122326123Y-98930253D01*
X122316452Y-98922316D01*
X122133954Y-98824768D01*
X121935934Y-98764699D01*
X121935929Y-98764698D01*
X121730003Y-98744417D01*
X121729997Y-98744417D01*
X121524070Y-98764698D01*
X121524065Y-98764699D01*
X121326045Y-98824768D01*
X121143547Y-98922316D01*
X120983595Y-99053585D01*
X120983585Y-99053595D01*
X120852316Y-99213547D01*
X120754768Y-99396045D01*
X120694699Y-99594065D01*
X120694698Y-99594070D01*
X120674417Y-99799996D01*
X120245583Y-99799996D01*
X120225301Y-99594070D01*
X120225300Y-99594065D01*
X120186466Y-99466046D01*
X120165232Y-99396046D01*
X120067685Y-99213550D01*
X119936410Y-99053590D01*
X119871478Y-99000302D01*
X119776452Y-98922316D01*
X119593954Y-98824768D01*
X119395934Y-98764699D01*
X119395929Y-98764698D01*
X119190003Y-98744417D01*
X119189997Y-98744417D01*
X118984070Y-98764698D01*
X118984065Y-98764699D01*
X118786045Y-98824768D01*
X118603547Y-98922316D01*
X118443595Y-99053585D01*
X118443585Y-99053595D01*
X118312316Y-99213547D01*
X118214768Y-99396045D01*
X118154699Y-99594065D01*
X118154698Y-99594070D01*
X118134417Y-99799996D01*
X117705583Y-99799996D01*
X117685301Y-99594070D01*
X117685300Y-99594065D01*
X117646466Y-99466046D01*
X117625232Y-99396046D01*
X117527685Y-99213550D01*
X117396410Y-99053590D01*
X117331478Y-99000302D01*
X117236452Y-98922316D01*
X117053954Y-98824768D01*
X116855934Y-98764699D01*
X116855929Y-98764698D01*
X116650003Y-98744417D01*
X116649997Y-98744417D01*
X116444070Y-98764698D01*
X116444065Y-98764699D01*
X116246045Y-98824768D01*
X116063547Y-98922316D01*
X115903595Y-99053585D01*
X115903585Y-99053595D01*
X115772316Y-99213547D01*
X115674768Y-99396045D01*
X115614699Y-99594065D01*
X115614698Y-99594070D01*
X115594417Y-99799996D01*
X115165583Y-99799996D01*
X115145301Y-99594070D01*
X115145300Y-99594065D01*
X115106466Y-99466046D01*
X115085232Y-99396046D01*
X114987685Y-99213550D01*
X114856410Y-99053590D01*
X114791478Y-99000302D01*
X114696452Y-98922316D01*
X114513954Y-98824768D01*
X114315934Y-98764699D01*
X114315929Y-98764698D01*
X114110003Y-98744417D01*
X114109997Y-98744417D01*
X113904070Y-98764698D01*
X113904065Y-98764699D01*
X113706045Y-98824768D01*
X113523547Y-98922316D01*
X113363595Y-99053585D01*
X113363585Y-99053595D01*
X113232316Y-99213547D01*
X113134768Y-99396045D01*
X113074699Y-99594065D01*
X113074698Y-99594070D01*
X113054417Y-99799996D01*
X112625583Y-99799996D01*
X112605301Y-99594070D01*
X112605300Y-99594065D01*
X112566466Y-99466046D01*
X112545232Y-99396046D01*
X112447685Y-99213550D01*
X112316410Y-99053590D01*
X112251478Y-99000302D01*
X112156452Y-98922316D01*
X111973954Y-98824768D01*
X111775934Y-98764699D01*
X111775929Y-98764698D01*
X111570003Y-98744417D01*
X111569997Y-98744417D01*
X111364070Y-98764698D01*
X111364065Y-98764699D01*
X111166045Y-98824768D01*
X110983547Y-98922316D01*
X110823595Y-99053585D01*
X110823585Y-99053595D01*
X110692316Y-99213547D01*
X110594768Y-99396045D01*
X110534699Y-99594065D01*
X110534698Y-99594070D01*
X110514417Y-99799996D01*
X110085583Y-99799996D01*
X110065301Y-99594070D01*
X110065300Y-99594065D01*
X110026466Y-99466046D01*
X110005232Y-99396046D01*
X109907685Y-99213550D01*
X109776410Y-99053590D01*
X109711478Y-99000302D01*
X109616452Y-98922316D01*
X109433954Y-98824768D01*
X109235934Y-98764699D01*
X109235929Y-98764698D01*
X109030003Y-98744417D01*
X109029997Y-98744417D01*
X108824070Y-98764698D01*
X108824065Y-98764699D01*
X108626045Y-98824768D01*
X108443547Y-98922316D01*
X108283595Y-99053585D01*
X108283585Y-99053595D01*
X108152316Y-99213547D01*
X108054768Y-99396045D01*
X107994699Y-99594065D01*
X107994698Y-99594070D01*
X107974417Y-99799996D01*
X107545583Y-99799996D01*
X107525301Y-99594070D01*
X107525300Y-99594065D01*
X107486466Y-99466046D01*
X107465232Y-99396046D01*
X107367685Y-99213550D01*
X107236410Y-99053590D01*
X107171478Y-99000302D01*
X107076452Y-98922316D01*
X106893954Y-98824768D01*
X106695934Y-98764699D01*
X106695929Y-98764698D01*
X106490003Y-98744417D01*
X106489997Y-98744417D01*
X106284070Y-98764698D01*
X106284065Y-98764699D01*
X106086045Y-98824768D01*
X105903547Y-98922316D01*
X105743595Y-99053585D01*
X105743585Y-99053595D01*
X105612316Y-99213547D01*
X105514768Y-99396045D01*
X105454699Y-99594065D01*
X105454698Y-99594070D01*
X105434417Y-99799996D01*
X105005583Y-99799996D01*
X104985301Y-99594070D01*
X104985300Y-99594065D01*
X104946466Y-99466046D01*
X104925232Y-99396046D01*
X104827685Y-99213550D01*
X104696410Y-99053590D01*
X104631478Y-99000302D01*
X104536452Y-98922316D01*
X104353954Y-98824768D01*
X104155934Y-98764699D01*
X104155929Y-98764698D01*
X103950003Y-98744417D01*
X103949997Y-98744417D01*
X103744070Y-98764698D01*
X103744065Y-98764699D01*
X103546045Y-98824768D01*
X103363547Y-98922316D01*
X103203595Y-99053585D01*
X103203585Y-99053595D01*
X103072316Y-99213547D01*
X102974768Y-99396045D01*
X102914699Y-99594065D01*
X102914698Y-99594070D01*
X102894417Y-99799996D01*
X102465583Y-99799996D01*
X102445301Y-99594070D01*
X102445300Y-99594065D01*
X102406466Y-99466046D01*
X102385232Y-99396046D01*
X102287685Y-99213550D01*
X102156410Y-99053590D01*
X102091478Y-99000302D01*
X101996452Y-98922316D01*
X101813954Y-98824768D01*
X101615934Y-98764699D01*
X101615929Y-98764698D01*
X101410003Y-98744417D01*
X101409997Y-98744417D01*
X101204070Y-98764698D01*
X101204065Y-98764699D01*
X101006045Y-98824768D01*
X100823547Y-98922316D01*
X100663595Y-99053585D01*
X100663585Y-99053595D01*
X100532316Y-99213547D01*
X100434768Y-99396045D01*
X100374699Y-99594065D01*
X100374698Y-99594070D01*
X100354417Y-99799996D01*
X99925583Y-99799996D01*
X99905301Y-99594070D01*
X99905300Y-99594065D01*
X99866466Y-99466046D01*
X99845232Y-99396046D01*
X99747685Y-99213550D01*
X99616410Y-99053590D01*
X99551478Y-99000302D01*
X99456452Y-98922316D01*
X99273954Y-98824768D01*
X99075934Y-98764699D01*
X99075929Y-98764698D01*
X98870003Y-98744417D01*
X98869997Y-98744417D01*
X98664070Y-98764698D01*
X98664065Y-98764699D01*
X98466045Y-98824768D01*
X98283547Y-98922316D01*
X98123595Y-99053585D01*
X98123585Y-99053595D01*
X97992316Y-99213547D01*
X97894768Y-99396045D01*
X97834699Y-99594065D01*
X97834698Y-99594070D01*
X97814417Y-99799996D01*
X97385583Y-99799996D01*
X97365301Y-99594070D01*
X97365300Y-99594065D01*
X97326466Y-99466046D01*
X97305232Y-99396046D01*
X97207685Y-99213550D01*
X97076410Y-99053590D01*
X97011478Y-99000302D01*
X96916452Y-98922316D01*
X96733954Y-98824768D01*
X96535934Y-98764699D01*
X96535929Y-98764698D01*
X96330003Y-98744417D01*
X96329997Y-98744417D01*
X96124070Y-98764698D01*
X96124065Y-98764699D01*
X95926045Y-98824768D01*
X95743547Y-98922316D01*
X95583595Y-99053585D01*
X95583585Y-99053595D01*
X95452316Y-99213547D01*
X95354768Y-99396045D01*
X95294699Y-99594065D01*
X95294698Y-99594070D01*
X95274417Y-99799996D01*
X94845583Y-99799996D01*
X94825301Y-99594070D01*
X94825300Y-99594065D01*
X94786466Y-99466046D01*
X94765232Y-99396046D01*
X94667685Y-99213550D01*
X94536410Y-99053590D01*
X94471478Y-99000302D01*
X94376452Y-98922316D01*
X94193954Y-98824768D01*
X93995934Y-98764699D01*
X93995929Y-98764698D01*
X93790003Y-98744417D01*
X93789997Y-98744417D01*
X93584070Y-98764698D01*
X93584065Y-98764699D01*
X93386045Y-98824768D01*
X93203547Y-98922316D01*
X93043595Y-99053585D01*
X93043585Y-99053595D01*
X92912316Y-99213547D01*
X92814768Y-99396045D01*
X92754699Y-99594065D01*
X92754698Y-99594070D01*
X92734417Y-99799996D01*
X92305583Y-99799996D01*
X92285301Y-99594070D01*
X92285300Y-99594065D01*
X92246466Y-99466046D01*
X92225232Y-99396046D01*
X92127685Y-99213550D01*
X91996410Y-99053590D01*
X91931478Y-99000302D01*
X91836452Y-98922316D01*
X91653954Y-98824768D01*
X91455934Y-98764699D01*
X91455929Y-98764698D01*
X91250003Y-98744417D01*
X91249997Y-98744417D01*
X91044070Y-98764698D01*
X91044065Y-98764699D01*
X90846045Y-98824768D01*
X90663547Y-98922316D01*
X90503595Y-99053585D01*
X90503585Y-99053595D01*
X90372316Y-99213547D01*
X90274768Y-99396045D01*
X90214699Y-99594065D01*
X90214698Y-99594070D01*
X90194417Y-99799996D01*
X89765583Y-99799996D01*
X89745301Y-99594070D01*
X89745300Y-99594065D01*
X89706466Y-99466046D01*
X89685232Y-99396046D01*
X89587685Y-99213550D01*
X89456410Y-99053590D01*
X89391478Y-99000302D01*
X89296452Y-98922316D01*
X89113954Y-98824768D01*
X88915934Y-98764699D01*
X88915929Y-98764698D01*
X88710003Y-98744417D01*
X88709997Y-98744417D01*
X88504070Y-98764698D01*
X88504065Y-98764699D01*
X88306045Y-98824768D01*
X88123547Y-98922316D01*
X87963595Y-99053585D01*
X87963585Y-99053595D01*
X87832316Y-99213547D01*
X87734768Y-99396045D01*
X87674699Y-99594065D01*
X87674698Y-99594070D01*
X87654417Y-99799996D01*
X87080500Y-99799996D01*
X87080500Y-90449997D01*
X103098553Y-90449997D01*
X103098553Y-90450002D01*
X103119034Y-90592455D01*
X103145753Y-90650960D01*
X103154700Y-90692087D01*
X103154700Y-92058308D01*
X103178083Y-92145575D01*
X103178083Y-92145576D01*
X103185398Y-92172881D01*
X103185402Y-92172889D01*
X103244707Y-92275609D01*
X103244709Y-92275611D01*
X103244711Y-92275614D01*
X104353586Y-93384489D01*
X104353588Y-93384490D01*
X104353590Y-93384492D01*
X104456308Y-93443797D01*
X104456310Y-93443797D01*
X104456313Y-93443799D01*
X104477590Y-93449500D01*
X104570891Y-93474500D01*
X105015427Y-93474500D01*
X105043316Y-93478509D01*
X105088239Y-93491700D01*
X105088240Y-93491700D01*
X105232159Y-93491700D01*
X105232161Y-93491700D01*
X105362226Y-93453510D01*
X105390117Y-93449500D01*
X109702589Y-93449500D01*
X109760780Y-93468407D01*
X109772593Y-93478496D01*
X109815375Y-93521278D01*
X109835423Y-93550152D01*
X109845752Y-93572769D01*
X109854700Y-93613897D01*
X109854700Y-93804102D01*
X109845753Y-93845229D01*
X109820034Y-93901543D01*
X109799553Y-94043997D01*
X109799553Y-94044002D01*
X109820033Y-94186454D01*
X109833486Y-94215911D01*
X109845753Y-94242771D01*
X109854700Y-94283897D01*
X109854700Y-94514509D01*
X109878913Y-94604873D01*
X109878912Y-94604873D01*
X109885400Y-94629086D01*
X109885402Y-94629090D01*
X109944707Y-94731809D01*
X109944708Y-94731810D01*
X109944709Y-94731811D01*
X109944711Y-94731814D01*
X110262897Y-95050000D01*
X110510177Y-95297280D01*
X110530224Y-95326154D01*
X110574623Y-95423373D01*
X110668872Y-95532143D01*
X110668873Y-95532144D01*
X110789942Y-95609950D01*
X110789947Y-95609953D01*
X110896403Y-95641211D01*
X110928035Y-95650499D01*
X110928036Y-95650499D01*
X110928039Y-95650500D01*
X110928041Y-95650500D01*
X111071959Y-95650500D01*
X111071961Y-95650500D01*
X111210053Y-95609953D01*
X111210056Y-95609950D01*
X111211162Y-95609447D01*
X111213531Y-95608931D01*
X111216847Y-95607958D01*
X111216916Y-95608195D01*
X111252288Y-95600500D01*
X111378912Y-95600500D01*
X111414283Y-95608195D01*
X111414353Y-95607958D01*
X111417668Y-95608931D01*
X111420038Y-95609447D01*
X111421143Y-95609951D01*
X111421144Y-95609951D01*
X111421147Y-95609953D01*
X111535139Y-95643423D01*
X111559235Y-95650499D01*
X111559236Y-95650499D01*
X111559239Y-95650500D01*
X111559241Y-95650500D01*
X111703159Y-95650500D01*
X111703161Y-95650500D01*
X111841253Y-95609953D01*
X111962328Y-95532143D01*
X112056577Y-95423373D01*
X112116365Y-95292457D01*
X112136847Y-95150000D01*
X112124740Y-95065796D01*
X112116365Y-95007543D01*
X112056577Y-94876628D01*
X112056577Y-94876627D01*
X112033505Y-94850000D01*
X132726177Y-94850000D01*
X133136212Y-94850000D01*
X133120000Y-94910504D01*
X133120000Y-94989496D01*
X133136212Y-95050000D01*
X132726178Y-95050000D01*
X132746901Y-95154181D01*
X132746901Y-95154183D01*
X132799666Y-95281571D01*
X132876271Y-95396220D01*
X132973779Y-95493728D01*
X133088428Y-95570333D01*
X133215816Y-95623098D01*
X133351055Y-95649999D01*
X133351057Y-95650000D01*
X133869999Y-95650000D01*
X133870000Y-95649999D01*
X133870000Y-95250000D01*
X134070000Y-95250000D01*
X134070000Y-95649999D01*
X134070001Y-95650000D01*
X134588943Y-95650000D01*
X134588944Y-95649999D01*
X134724183Y-95623098D01*
X134851571Y-95570333D01*
X134966220Y-95493728D01*
X135063728Y-95396220D01*
X135140333Y-95281571D01*
X135193098Y-95154183D01*
X135193098Y-95154181D01*
X135213822Y-95050000D01*
X134803788Y-95050000D01*
X134820000Y-94989496D01*
X134820000Y-94910504D01*
X134803788Y-94850000D01*
X135213822Y-94850000D01*
X137156177Y-94850000D01*
X137566212Y-94850000D01*
X137550000Y-94910504D01*
X137550000Y-94989496D01*
X137566212Y-95050000D01*
X137156178Y-95050000D01*
X137176901Y-95154181D01*
X137176901Y-95154183D01*
X137229666Y-95281571D01*
X137306271Y-95396220D01*
X137403779Y-95493728D01*
X137518428Y-95570333D01*
X137645816Y-95623098D01*
X137781055Y-95649999D01*
X137781057Y-95650000D01*
X138049999Y-95650000D01*
X138050000Y-95649999D01*
X138050000Y-95250000D01*
X138250000Y-95250000D01*
X138250000Y-95649999D01*
X138250001Y-95650000D01*
X138518943Y-95650000D01*
X138518944Y-95649999D01*
X138654183Y-95623098D01*
X138781571Y-95570333D01*
X138896220Y-95493728D01*
X138993728Y-95396220D01*
X139070333Y-95281571D01*
X139123098Y-95154183D01*
X139123098Y-95154181D01*
X139143822Y-95050000D01*
X138733788Y-95050000D01*
X138750000Y-94989496D01*
X138750000Y-94910504D01*
X138733788Y-94850000D01*
X139143822Y-94850000D01*
X139123098Y-94745818D01*
X139123098Y-94745816D01*
X139070333Y-94618428D01*
X138993728Y-94503779D01*
X138896220Y-94406271D01*
X138781571Y-94329666D01*
X138654183Y-94276901D01*
X138518944Y-94250000D01*
X138250001Y-94250000D01*
X138250000Y-94250001D01*
X138250000Y-94650000D01*
X138050000Y-94650000D01*
X138050000Y-94250001D01*
X138049999Y-94250000D01*
X137781055Y-94250000D01*
X137645816Y-94276901D01*
X137518428Y-94329666D01*
X137403779Y-94406271D01*
X137306271Y-94503779D01*
X137229666Y-94618428D01*
X137176901Y-94745816D01*
X137176901Y-94745818D01*
X137156177Y-94850000D01*
X135213822Y-94850000D01*
X135193098Y-94745818D01*
X135193098Y-94745816D01*
X135140333Y-94618428D01*
X135063728Y-94503779D01*
X134966220Y-94406271D01*
X134851571Y-94329666D01*
X134724183Y-94276901D01*
X134588944Y-94250000D01*
X134070001Y-94250000D01*
X134070000Y-94250001D01*
X134070000Y-94650000D01*
X133870000Y-94650000D01*
X133870000Y-94250001D01*
X133869999Y-94250000D01*
X133351055Y-94250000D01*
X133215816Y-94276901D01*
X133088428Y-94329666D01*
X132973779Y-94406271D01*
X132876271Y-94503779D01*
X132799666Y-94618428D01*
X132746901Y-94745816D01*
X132746901Y-94745818D01*
X132726177Y-94850000D01*
X112033505Y-94850000D01*
X111962328Y-94767857D01*
X111962327Y-94767856D01*
X111962326Y-94767855D01*
X111841257Y-94690049D01*
X111841254Y-94690047D01*
X111841253Y-94690047D01*
X111841250Y-94690046D01*
X111703164Y-94649500D01*
X111703161Y-94649500D01*
X111559239Y-94649500D01*
X111559235Y-94649500D01*
X111421143Y-94690048D01*
X111420038Y-94690553D01*
X111417668Y-94691068D01*
X111414353Y-94692042D01*
X111414283Y-94691804D01*
X111378912Y-94699500D01*
X111252288Y-94699500D01*
X111216916Y-94691804D01*
X111216847Y-94692042D01*
X111213520Y-94691065D01*
X111211157Y-94690551D01*
X111210054Y-94690047D01*
X111187719Y-94683489D01*
X111145607Y-94658503D01*
X110802349Y-94315245D01*
X110774572Y-94260728D01*
X110782301Y-94204113D01*
X110790365Y-94186457D01*
X110790365Y-94186454D01*
X110790366Y-94186453D01*
X110810847Y-94044002D01*
X110810847Y-94043997D01*
X110790365Y-93901543D01*
X110764647Y-93845229D01*
X110755700Y-93804102D01*
X110755700Y-93613897D01*
X110764646Y-93572771D01*
X110790365Y-93516457D01*
X110790365Y-93516455D01*
X110790366Y-93516454D01*
X110797910Y-93463982D01*
X134044500Y-93463982D01*
X134044500Y-93576018D01*
X134054650Y-93613897D01*
X134073498Y-93684241D01*
X134129513Y-93781260D01*
X134129515Y-93781263D01*
X134208737Y-93860485D01*
X134208739Y-93860486D01*
X134305759Y-93916501D01*
X134305757Y-93916501D01*
X134305761Y-93916502D01*
X134305763Y-93916503D01*
X134413982Y-93945500D01*
X134413984Y-93945500D01*
X134526016Y-93945500D01*
X134526018Y-93945500D01*
X134634237Y-93916503D01*
X134634239Y-93916501D01*
X134634241Y-93916501D01*
X134663064Y-93899859D01*
X134731263Y-93860485D01*
X134810485Y-93781263D01*
X134866503Y-93684237D01*
X134895500Y-93576018D01*
X134895500Y-93463982D01*
X134866503Y-93355763D01*
X134866501Y-93355760D01*
X134866501Y-93355758D01*
X134810486Y-93258739D01*
X134810485Y-93258737D01*
X134731263Y-93179515D01*
X134731260Y-93179513D01*
X134634240Y-93123498D01*
X134634242Y-93123498D01*
X134592251Y-93112247D01*
X134526018Y-93094500D01*
X134413982Y-93094500D01*
X134347748Y-93112247D01*
X134305758Y-93123498D01*
X134208739Y-93179513D01*
X134129513Y-93258739D01*
X134073498Y-93355758D01*
X134073497Y-93355763D01*
X134044500Y-93463982D01*
X110797910Y-93463982D01*
X110810847Y-93374002D01*
X110810847Y-93373997D01*
X110790365Y-93231543D01*
X110766603Y-93179513D01*
X110730577Y-93100627D01*
X110636328Y-92991857D01*
X110636327Y-92991856D01*
X110636326Y-92991855D01*
X110515257Y-92914049D01*
X110515254Y-92914048D01*
X110515253Y-92914047D01*
X110492917Y-92907488D01*
X110450807Y-92882503D01*
X110206814Y-92638511D01*
X110206809Y-92638507D01*
X110104092Y-92579203D01*
X110104089Y-92579202D01*
X110104087Y-92579201D01*
X110074976Y-92571401D01*
X109989509Y-92548500D01*
X109989508Y-92548500D01*
X105426168Y-92548500D01*
X105376780Y-92533998D01*
X105376694Y-92534189D01*
X105375370Y-92533584D01*
X105372645Y-92532784D01*
X105370253Y-92531247D01*
X105370250Y-92531246D01*
X105232164Y-92490700D01*
X105232161Y-92490700D01*
X105088239Y-92490700D01*
X105088235Y-92490700D01*
X104950149Y-92531246D01*
X104950143Y-92531249D01*
X104910362Y-92556814D01*
X104851186Y-92572367D01*
X104794170Y-92550168D01*
X104786836Y-92543533D01*
X104084696Y-91841393D01*
X104056919Y-91786876D01*
X104055700Y-91771389D01*
X104055700Y-90687708D01*
X104064647Y-90646581D01*
X104089365Y-90592457D01*
X104109847Y-90450000D01*
X104108912Y-90443500D01*
X104089365Y-90307543D01*
X104029577Y-90176628D01*
X104029577Y-90176627D01*
X103935328Y-90067857D01*
X103935327Y-90067856D01*
X103935326Y-90067855D01*
X103814257Y-89990049D01*
X103814254Y-89990047D01*
X103814253Y-89990047D01*
X103814250Y-89990046D01*
X103676164Y-89949500D01*
X103676161Y-89949500D01*
X103532239Y-89949500D01*
X103532235Y-89949500D01*
X103394149Y-89990046D01*
X103394142Y-89990049D01*
X103273073Y-90067855D01*
X103178822Y-90176628D01*
X103119034Y-90307543D01*
X103098553Y-90449997D01*
X87080500Y-90449997D01*
X87080500Y-87704089D01*
X104594353Y-87704089D01*
X104594353Y-87704094D01*
X104614834Y-87846548D01*
X104641182Y-87904241D01*
X104674623Y-87977465D01*
X104763890Y-88080485D01*
X104768873Y-88086236D01*
X104876159Y-88155184D01*
X104889947Y-88164045D01*
X104996403Y-88195303D01*
X105028035Y-88204591D01*
X105028036Y-88204591D01*
X105028039Y-88204592D01*
X105028041Y-88204592D01*
X105171959Y-88204592D01*
X105171961Y-88204592D01*
X105310053Y-88164045D01*
X105431128Y-88086235D01*
X105525377Y-87977465D01*
X105585165Y-87846549D01*
X105589444Y-87816783D01*
X105616438Y-87761878D01*
X105617355Y-87760946D01*
X105699807Y-87678496D01*
X105754324Y-87650719D01*
X105769810Y-87649500D01*
X109177912Y-87649500D01*
X109213282Y-87657193D01*
X109213352Y-87656957D01*
X109216665Y-87657929D01*
X109219034Y-87658445D01*
X109220139Y-87658949D01*
X109220142Y-87658949D01*
X109220147Y-87658953D01*
X109242481Y-87665510D01*
X109284592Y-87690495D01*
X109405704Y-87811607D01*
X109433481Y-87866124D01*
X109434700Y-87881611D01*
X109434700Y-90113311D01*
X109450797Y-90173383D01*
X109450797Y-90173385D01*
X109450798Y-90173385D01*
X109450798Y-90173386D01*
X109465401Y-90227887D01*
X109465402Y-90227889D01*
X109465403Y-90227892D01*
X109524707Y-90330609D01*
X109524708Y-90330610D01*
X109524709Y-90330611D01*
X109524711Y-90330614D01*
X109845057Y-90650960D01*
X110165375Y-90971278D01*
X110185424Y-91000155D01*
X110229823Y-91097373D01*
X110281326Y-91156811D01*
X110324073Y-91206144D01*
X110445142Y-91283950D01*
X110445147Y-91283953D01*
X110551603Y-91315211D01*
X110583235Y-91324499D01*
X110583236Y-91324499D01*
X110583239Y-91324500D01*
X110583241Y-91324500D01*
X110727159Y-91324500D01*
X110727161Y-91324500D01*
X110865253Y-91283953D01*
X110865256Y-91283950D01*
X110866362Y-91283447D01*
X110868731Y-91282931D01*
X110872047Y-91281958D01*
X110872116Y-91282195D01*
X110907488Y-91274500D01*
X112867647Y-91274500D01*
X112925838Y-91293407D01*
X112961802Y-91342907D01*
X112961802Y-91404093D01*
X112942436Y-91438366D01*
X112940939Y-91440092D01*
X112936156Y-91445227D01*
X112904700Y-91476685D01*
X112904699Y-91476686D01*
X112900372Y-91484180D01*
X112889466Y-91499496D01*
X112879822Y-91510627D01*
X112879821Y-91510628D01*
X112861791Y-91550107D01*
X112857477Y-91558475D01*
X112838808Y-91590813D01*
X112838807Y-91590813D01*
X112834707Y-91606117D01*
X112829138Y-91621608D01*
X112820035Y-91641543D01*
X112814874Y-91677430D01*
X112812510Y-91688953D01*
X112804700Y-91718104D01*
X112804700Y-91741122D01*
X112803692Y-91755211D01*
X112799553Y-91783998D01*
X112799553Y-91784001D01*
X112803692Y-91812786D01*
X112804700Y-91826876D01*
X112804700Y-91849893D01*
X112812510Y-91879042D01*
X112814875Y-91890572D01*
X112820035Y-91926457D01*
X112829137Y-91946388D01*
X112834706Y-91961881D01*
X112838808Y-91977186D01*
X112857477Y-92009523D01*
X112861792Y-92017893D01*
X112879822Y-92057373D01*
X112889459Y-92068494D01*
X112900372Y-92083820D01*
X112904697Y-92091310D01*
X112904698Y-92091311D01*
X112904700Y-92091314D01*
X112936161Y-92122775D01*
X112940964Y-92127934D01*
X112974072Y-92166143D01*
X112980386Y-92170201D01*
X112996862Y-92183476D01*
X112997886Y-92184500D01*
X113038456Y-92207923D01*
X113042592Y-92210311D01*
X113046605Y-92212756D01*
X113074043Y-92230390D01*
X113090591Y-92241025D01*
X113129322Y-92288392D01*
X113132814Y-92349477D01*
X113107071Y-92394313D01*
X113101865Y-92399519D01*
X113085394Y-92412793D01*
X113079072Y-92416856D01*
X113079071Y-92416857D01*
X113045968Y-92455059D01*
X113041156Y-92460227D01*
X113009700Y-92491685D01*
X113009699Y-92491686D01*
X113005372Y-92499180D01*
X112994466Y-92514496D01*
X112984822Y-92525627D01*
X112984821Y-92525628D01*
X112966791Y-92565107D01*
X112962477Y-92573475D01*
X112943808Y-92605813D01*
X112943807Y-92605813D01*
X112939707Y-92621117D01*
X112934138Y-92636608D01*
X112933270Y-92638511D01*
X112925035Y-92656543D01*
X112919874Y-92692430D01*
X112917510Y-92703953D01*
X112909700Y-92733104D01*
X112909700Y-92756122D01*
X112908692Y-92770211D01*
X112904553Y-92798998D01*
X112904553Y-92799001D01*
X112908692Y-92827786D01*
X112909700Y-92841876D01*
X112909700Y-92864893D01*
X112917510Y-92894042D01*
X112919875Y-92905572D01*
X112925035Y-92941457D01*
X112934137Y-92961388D01*
X112939706Y-92976881D01*
X112943719Y-92991855D01*
X112943808Y-92992186D01*
X112962477Y-93024523D01*
X112966792Y-93032893D01*
X112984822Y-93072373D01*
X112994459Y-93083494D01*
X113005372Y-93098820D01*
X113009697Y-93106310D01*
X113009698Y-93106311D01*
X113009700Y-93106314D01*
X113026883Y-93123497D01*
X113041161Y-93137775D01*
X113045964Y-93142934D01*
X113079072Y-93181143D01*
X113085386Y-93185201D01*
X113101862Y-93198476D01*
X113102886Y-93199500D01*
X113143456Y-93222923D01*
X113147592Y-93225311D01*
X113151614Y-93227763D01*
X113200147Y-93258953D01*
X113200246Y-93258982D01*
X113200415Y-93259032D01*
X113210784Y-93263474D01*
X113211019Y-93262909D01*
X113217009Y-93265389D01*
X113217014Y-93265392D01*
X113273779Y-93280601D01*
X113276013Y-93281228D01*
X113287014Y-93284458D01*
X113338233Y-93299499D01*
X113338238Y-93299499D01*
X113338239Y-93299500D01*
X113338240Y-93299500D01*
X113482158Y-93299500D01*
X113482161Y-93299500D01*
X113544390Y-93281227D01*
X113546593Y-93280608D01*
X113603386Y-93265392D01*
X113603392Y-93265388D01*
X113609388Y-93262906D01*
X113609624Y-93263476D01*
X113619992Y-93259029D01*
X113620253Y-93258953D01*
X113668805Y-93227749D01*
X113672780Y-93225326D01*
X113717514Y-93199500D01*
X113718526Y-93198487D01*
X113735008Y-93185203D01*
X113741328Y-93181143D01*
X113774436Y-93142932D01*
X113779240Y-93137773D01*
X114623519Y-92293496D01*
X114678035Y-92265719D01*
X114693522Y-92264500D01*
X120151890Y-92264500D01*
X120151892Y-92264500D01*
X120279186Y-92230392D01*
X120279188Y-92230390D01*
X120279190Y-92230390D01*
X120393309Y-92164503D01*
X120393309Y-92164502D01*
X120393314Y-92164500D01*
X120580628Y-91977186D01*
X120653319Y-91904496D01*
X120707835Y-91876719D01*
X120723322Y-91875500D01*
X130615890Y-91875500D01*
X130615892Y-91875500D01*
X130743186Y-91841392D01*
X130743188Y-91841390D01*
X130743190Y-91841390D01*
X130857309Y-91775503D01*
X130857309Y-91775502D01*
X130857314Y-91775500D01*
X130975499Y-91657315D01*
X131000452Y-91614096D01*
X131041390Y-91543190D01*
X131041390Y-91543188D01*
X131041392Y-91543186D01*
X131075500Y-91415893D01*
X131075500Y-91284108D01*
X131041392Y-91156814D01*
X130975499Y-91042686D01*
X130882314Y-90949501D01*
X130768186Y-90883608D01*
X130761112Y-90881712D01*
X130709798Y-90848390D01*
X130687870Y-90791269D01*
X130703705Y-90732168D01*
X130716726Y-90716087D01*
X130775500Y-90657314D01*
X130775503Y-90657309D01*
X130841390Y-90543190D01*
X130841390Y-90543188D01*
X130841392Y-90543186D01*
X130875500Y-90415892D01*
X130875500Y-90284108D01*
X130841392Y-90156814D01*
X130841390Y-90156811D01*
X130841390Y-90156809D01*
X130775503Y-90042690D01*
X130775501Y-90042688D01*
X130775500Y-90042686D01*
X130682314Y-89949500D01*
X130682311Y-89949498D01*
X130682309Y-89949496D01*
X130568189Y-89883609D01*
X130568191Y-89883609D01*
X130507685Y-89867397D01*
X130440892Y-89849500D01*
X120395093Y-89849500D01*
X120263308Y-89849500D01*
X120196515Y-89867397D01*
X120136009Y-89883609D01*
X120021890Y-89949496D01*
X120021885Y-89949500D01*
X119556881Y-90414504D01*
X119502365Y-90442281D01*
X119486878Y-90443500D01*
X116625404Y-90443500D01*
X116567213Y-90424593D01*
X116531249Y-90375093D01*
X116530530Y-90324663D01*
X116529158Y-90324466D01*
X116550647Y-90175002D01*
X116550647Y-90174997D01*
X116530165Y-90032543D01*
X116510758Y-89990049D01*
X116470377Y-89901627D01*
X116376128Y-89792857D01*
X116376127Y-89792856D01*
X116376126Y-89792855D01*
X116255057Y-89715049D01*
X116255054Y-89715047D01*
X116255053Y-89715047D01*
X116255050Y-89715046D01*
X116116964Y-89674500D01*
X116116961Y-89674500D01*
X115973039Y-89674500D01*
X115973035Y-89674500D01*
X115834943Y-89715048D01*
X115833838Y-89715553D01*
X115831468Y-89716068D01*
X115828153Y-89717042D01*
X115828083Y-89716804D01*
X115792712Y-89724500D01*
X115527288Y-89724500D01*
X115491916Y-89716804D01*
X115491847Y-89717042D01*
X115488531Y-89716068D01*
X115486162Y-89715553D01*
X115485056Y-89715048D01*
X115485049Y-89715046D01*
X115468605Y-89710217D01*
X115346964Y-89674500D01*
X115346961Y-89674500D01*
X115203039Y-89674500D01*
X115203035Y-89674500D01*
X115064943Y-89715048D01*
X115063838Y-89715553D01*
X115061468Y-89716068D01*
X115058153Y-89717042D01*
X115058083Y-89716804D01*
X115022712Y-89724500D01*
X114717288Y-89724500D01*
X114681916Y-89716804D01*
X114681847Y-89717042D01*
X114678531Y-89716068D01*
X114676162Y-89715553D01*
X114675056Y-89715048D01*
X114675049Y-89715046D01*
X114658605Y-89710217D01*
X114536964Y-89674500D01*
X114536961Y-89674500D01*
X114393039Y-89674500D01*
X114393035Y-89674500D01*
X114254943Y-89715048D01*
X114253838Y-89715553D01*
X114251468Y-89716068D01*
X114248153Y-89717042D01*
X114248083Y-89716804D01*
X114212712Y-89724500D01*
X113565691Y-89724500D01*
X113451114Y-89755201D01*
X113348386Y-89814510D01*
X112818393Y-90344504D01*
X112763876Y-90372281D01*
X112748389Y-90373500D01*
X110907488Y-90373500D01*
X110872115Y-90365804D01*
X110872046Y-90366042D01*
X110868728Y-90365067D01*
X110866362Y-90364553D01*
X110865257Y-90364048D01*
X110842918Y-90357489D01*
X110800806Y-90332503D01*
X110364696Y-89896393D01*
X110336919Y-89841876D01*
X110335700Y-89826389D01*
X110335700Y-89467527D01*
X110354607Y-89409336D01*
X110404107Y-89373372D01*
X110450184Y-89369746D01*
X110520000Y-89380804D01*
X110653126Y-89359719D01*
X110738360Y-89316289D01*
X110783305Y-89305500D01*
X120199799Y-89305500D01*
X120199800Y-89305500D01*
X120301058Y-89263557D01*
X120378557Y-89186058D01*
X121019814Y-88544799D01*
X121074331Y-88517023D01*
X121089818Y-88515804D01*
X121090000Y-88515804D01*
X121223126Y-88494719D01*
X121343220Y-88433528D01*
X121438528Y-88338220D01*
X121499719Y-88218126D01*
X121520804Y-88085000D01*
X121499719Y-87951874D01*
X121438528Y-87831780D01*
X121343220Y-87736472D01*
X121343217Y-87736470D01*
X121240204Y-87683982D01*
X134044500Y-87683982D01*
X134044500Y-87796018D01*
X134058040Y-87846549D01*
X134073498Y-87904241D01*
X134115773Y-87977462D01*
X134129515Y-88001263D01*
X134208737Y-88080485D01*
X134216557Y-88085000D01*
X134305759Y-88136501D01*
X134305757Y-88136501D01*
X134305761Y-88136502D01*
X134305763Y-88136503D01*
X134413982Y-88165500D01*
X134413984Y-88165500D01*
X134526016Y-88165500D01*
X134526018Y-88165500D01*
X134634237Y-88136503D01*
X134634239Y-88136501D01*
X134634241Y-88136501D01*
X134663064Y-88119859D01*
X134731263Y-88080485D01*
X134810485Y-88001263D01*
X134866503Y-87904237D01*
X134895500Y-87796018D01*
X134895500Y-87683982D01*
X134866503Y-87575763D01*
X134866501Y-87575760D01*
X134866501Y-87575758D01*
X134810486Y-87478739D01*
X134810485Y-87478737D01*
X134731263Y-87399515D01*
X134731260Y-87399513D01*
X134634240Y-87343498D01*
X134634242Y-87343498D01*
X134592251Y-87332247D01*
X134526018Y-87314500D01*
X134413982Y-87314500D01*
X134347748Y-87332247D01*
X134305758Y-87343498D01*
X134208739Y-87399513D01*
X134129513Y-87478739D01*
X134073498Y-87575758D01*
X134068425Y-87594691D01*
X134044500Y-87683982D01*
X121240204Y-87683982D01*
X121223129Y-87675282D01*
X121223127Y-87675281D01*
X121090000Y-87654196D01*
X120956872Y-87675281D01*
X120956870Y-87675282D01*
X120836782Y-87736470D01*
X120741470Y-87831782D01*
X120680282Y-87951870D01*
X120680281Y-87951872D01*
X120659196Y-88084998D01*
X120659196Y-88085180D01*
X120659139Y-88085352D01*
X120657977Y-88092695D01*
X120656814Y-88092510D01*
X120640289Y-88143371D01*
X120630200Y-88155184D01*
X120059881Y-88725504D01*
X120005364Y-88753281D01*
X119989877Y-88754500D01*
X119739123Y-88754500D01*
X119680932Y-88735593D01*
X119644968Y-88686093D01*
X119644968Y-88624907D01*
X119669119Y-88585496D01*
X120979815Y-87274800D01*
X121034332Y-87247023D01*
X121049819Y-87245804D01*
X121050000Y-87245804D01*
X121183126Y-87224719D01*
X121303220Y-87163528D01*
X121398528Y-87068220D01*
X121459719Y-86948126D01*
X121480804Y-86815000D01*
X121459719Y-86681874D01*
X121398528Y-86561780D01*
X121303220Y-86466472D01*
X121303217Y-86466470D01*
X121183129Y-86405282D01*
X121183127Y-86405281D01*
X121050000Y-86384196D01*
X120916872Y-86405281D01*
X120916870Y-86405282D01*
X120796782Y-86466470D01*
X120701470Y-86561782D01*
X120640282Y-86681870D01*
X120640281Y-86681872D01*
X120619196Y-86814998D01*
X120619196Y-86815179D01*
X120619140Y-86815350D01*
X120617977Y-86822695D01*
X120616813Y-86822510D01*
X120600289Y-86873370D01*
X120590200Y-86885183D01*
X119159881Y-88315504D01*
X119105364Y-88343281D01*
X119089877Y-88344500D01*
X111567256Y-88344500D01*
X111509065Y-88325593D01*
X111497253Y-88315504D01*
X111453221Y-88271473D01*
X111453217Y-88271470D01*
X111333129Y-88210282D01*
X111333127Y-88210281D01*
X111200000Y-88189196D01*
X111066872Y-88210281D01*
X111066870Y-88210282D01*
X110946782Y-88271470D01*
X110851470Y-88366782D01*
X110786743Y-88493816D01*
X110784336Y-88492589D01*
X110755763Y-88531914D01*
X110697572Y-88550819D01*
X110660767Y-88541981D01*
X110660538Y-88542689D01*
X110653127Y-88540281D01*
X110520000Y-88519196D01*
X110519999Y-88519196D01*
X110450187Y-88530253D01*
X110389755Y-88520682D01*
X110346490Y-88477417D01*
X110335700Y-88432472D01*
X110335700Y-87594690D01*
X110335699Y-87594688D01*
X110311486Y-87504326D01*
X110304999Y-87480113D01*
X110276482Y-87430720D01*
X110245692Y-87377390D01*
X110245688Y-87377385D01*
X109920022Y-87051718D01*
X109899976Y-87022846D01*
X109855577Y-86925627D01*
X109761328Y-86816857D01*
X109761327Y-86816856D01*
X109761326Y-86816855D01*
X109640257Y-86739049D01*
X109640254Y-86739047D01*
X109640253Y-86739047D01*
X109640250Y-86739046D01*
X109502164Y-86698500D01*
X109502161Y-86698500D01*
X109358239Y-86698500D01*
X109358235Y-86698500D01*
X109220143Y-86739048D01*
X109219038Y-86739553D01*
X109216668Y-86740068D01*
X109213353Y-86741042D01*
X109213283Y-86740804D01*
X109177912Y-86748500D01*
X105482891Y-86748500D01*
X105437708Y-86760606D01*
X105392525Y-86772713D01*
X105392524Y-86772712D01*
X105368312Y-86779201D01*
X105368309Y-86779202D01*
X105265590Y-86838507D01*
X105265585Y-86838511D01*
X104813549Y-87290546D01*
X104797073Y-87303824D01*
X104768872Y-87321949D01*
X104674622Y-87430720D01*
X104614834Y-87561635D01*
X104594353Y-87704089D01*
X87080500Y-87704089D01*
X87080500Y-85098999D01*
X94099196Y-85098999D01*
X94099196Y-85099000D01*
X94120281Y-85232127D01*
X94120282Y-85232129D01*
X94179310Y-85347977D01*
X94181472Y-85352220D01*
X94276780Y-85447528D01*
X94396874Y-85508719D01*
X94530000Y-85529804D01*
X94663126Y-85508719D01*
X94783220Y-85447528D01*
X94805237Y-85425511D01*
X94827253Y-85403496D01*
X94881770Y-85375719D01*
X94897256Y-85374500D01*
X109833878Y-85374500D01*
X109892069Y-85393407D01*
X109903874Y-85403489D01*
X110210201Y-85709817D01*
X110237977Y-85764331D01*
X110239196Y-85779818D01*
X110239196Y-85780001D01*
X110260281Y-85913127D01*
X110260282Y-85913129D01*
X110321470Y-86033217D01*
X110321472Y-86033220D01*
X110416780Y-86128528D01*
X110536874Y-86189719D01*
X110670000Y-86210804D01*
X110675076Y-86210000D01*
X132726177Y-86210000D01*
X133136212Y-86210000D01*
X133120000Y-86270504D01*
X133120000Y-86349496D01*
X133136212Y-86410000D01*
X132726178Y-86410000D01*
X132746901Y-86514181D01*
X132746901Y-86514183D01*
X132799666Y-86641571D01*
X132876271Y-86756220D01*
X132973779Y-86853728D01*
X133088428Y-86930333D01*
X133215816Y-86983098D01*
X133351055Y-87009999D01*
X133351057Y-87010000D01*
X133869999Y-87010000D01*
X133870000Y-87009999D01*
X133870000Y-86610000D01*
X134070000Y-86610000D01*
X134070000Y-87009999D01*
X134070001Y-87010000D01*
X134588943Y-87010000D01*
X134588944Y-87009999D01*
X134724183Y-86983098D01*
X134851571Y-86930333D01*
X134966220Y-86853728D01*
X135063728Y-86756220D01*
X135140333Y-86641571D01*
X135193098Y-86514183D01*
X135193098Y-86514181D01*
X135213822Y-86410000D01*
X134803788Y-86410000D01*
X134820000Y-86349496D01*
X134820000Y-86270504D01*
X134803788Y-86210000D01*
X135213822Y-86210000D01*
X137156177Y-86210000D01*
X137566212Y-86210000D01*
X137550000Y-86270504D01*
X137550000Y-86349496D01*
X137566212Y-86410000D01*
X137156178Y-86410000D01*
X137176901Y-86514181D01*
X137176901Y-86514183D01*
X137229666Y-86641571D01*
X137306271Y-86756220D01*
X137403779Y-86853728D01*
X137518428Y-86930333D01*
X137645816Y-86983098D01*
X137781055Y-87009999D01*
X137781057Y-87010000D01*
X138049999Y-87010000D01*
X138050000Y-87009999D01*
X138050000Y-86610000D01*
X138250000Y-86610000D01*
X138250000Y-87009999D01*
X138250001Y-87010000D01*
X138518943Y-87010000D01*
X138518944Y-87009999D01*
X138654183Y-86983098D01*
X138781571Y-86930333D01*
X138896220Y-86853728D01*
X138993728Y-86756220D01*
X139070333Y-86641571D01*
X139123098Y-86514183D01*
X139123098Y-86514181D01*
X139143822Y-86410000D01*
X138733788Y-86410000D01*
X138750000Y-86349496D01*
X138750000Y-86270504D01*
X138733788Y-86210000D01*
X139143822Y-86210000D01*
X139123098Y-86105818D01*
X139123098Y-86105816D01*
X139070333Y-85978428D01*
X138993728Y-85863779D01*
X138896220Y-85766271D01*
X138781571Y-85689666D01*
X138654183Y-85636901D01*
X138518944Y-85610000D01*
X138250001Y-85610000D01*
X138250000Y-85610001D01*
X138250000Y-86010000D01*
X138050000Y-86010000D01*
X138050000Y-85610001D01*
X138049999Y-85610000D01*
X137781055Y-85610000D01*
X137645816Y-85636901D01*
X137518428Y-85689666D01*
X137403779Y-85766271D01*
X137306271Y-85863779D01*
X137229666Y-85978428D01*
X137176901Y-86105816D01*
X137176901Y-86105818D01*
X137156177Y-86210000D01*
X135213822Y-86210000D01*
X135193098Y-86105818D01*
X135193098Y-86105816D01*
X135140333Y-85978428D01*
X135063728Y-85863779D01*
X134966220Y-85766271D01*
X134851571Y-85689666D01*
X134724183Y-85636901D01*
X134588944Y-85610000D01*
X134070001Y-85610000D01*
X134070000Y-85610001D01*
X134070000Y-86010000D01*
X133870000Y-86010000D01*
X133870000Y-85610001D01*
X133869999Y-85610000D01*
X133351055Y-85610000D01*
X133215816Y-85636901D01*
X133088428Y-85689666D01*
X132973779Y-85766271D01*
X132876271Y-85863779D01*
X132799666Y-85978428D01*
X132746901Y-86105816D01*
X132746901Y-86105818D01*
X132726177Y-86210000D01*
X110675076Y-86210000D01*
X110803126Y-86189719D01*
X110923220Y-86128528D01*
X111018528Y-86033220D01*
X111079719Y-85913126D01*
X111100804Y-85780000D01*
X111079719Y-85646874D01*
X111074637Y-85636901D01*
X111018529Y-85526782D01*
X111018528Y-85526780D01*
X110923220Y-85431472D01*
X110923217Y-85431470D01*
X110803129Y-85370282D01*
X110803127Y-85370281D01*
X110670001Y-85349196D01*
X110669819Y-85349196D01*
X110669645Y-85349139D01*
X110662305Y-85347977D01*
X110662489Y-85346814D01*
X110611628Y-85330289D01*
X110599816Y-85320200D01*
X110145061Y-84865446D01*
X110145058Y-84865443D01*
X110043800Y-84823500D01*
X110043799Y-84823500D01*
X94897256Y-84823500D01*
X94839065Y-84804593D01*
X94827253Y-84794504D01*
X94783221Y-84750473D01*
X94783217Y-84750470D01*
X94663129Y-84689282D01*
X94663127Y-84689281D01*
X94530000Y-84668196D01*
X94396872Y-84689281D01*
X94396870Y-84689282D01*
X94276782Y-84750470D01*
X94181470Y-84845782D01*
X94120282Y-84965870D01*
X94120281Y-84965872D01*
X94099196Y-85098999D01*
X87080500Y-85098999D01*
X87080500Y-78330253D01*
X87669500Y-78330253D01*
X87669500Y-80069746D01*
X87669501Y-80069758D01*
X87681132Y-80128227D01*
X87681134Y-80128233D01*
X87725445Y-80194548D01*
X87725448Y-80194552D01*
X87791769Y-80238867D01*
X87836231Y-80247711D01*
X87850241Y-80250498D01*
X87850246Y-80250498D01*
X87850252Y-80250500D01*
X87850253Y-80250500D01*
X89589747Y-80250500D01*
X89589748Y-80250500D01*
X89648231Y-80238867D01*
X89714552Y-80194552D01*
X89758867Y-80128231D01*
X89770500Y-80069748D01*
X89770500Y-79199996D01*
X90204417Y-79199996D01*
X90204417Y-79200003D01*
X90224698Y-79405929D01*
X90224699Y-79405934D01*
X90284768Y-79603954D01*
X90382316Y-79786452D01*
X90513585Y-79946404D01*
X90513590Y-79946410D01*
X90513595Y-79946414D01*
X90673547Y-80077683D01*
X90673548Y-80077683D01*
X90673550Y-80077685D01*
X90856046Y-80175232D01*
X90993997Y-80217078D01*
X91054065Y-80235300D01*
X91054070Y-80235301D01*
X91259997Y-80255583D01*
X91260000Y-80255583D01*
X91260003Y-80255583D01*
X91465929Y-80235301D01*
X91465934Y-80235300D01*
X91663954Y-80175232D01*
X91846450Y-80077685D01*
X92006410Y-79946410D01*
X92137685Y-79786450D01*
X92235232Y-79603954D01*
X92295300Y-79405934D01*
X92295301Y-79405929D01*
X92315583Y-79200003D01*
X92315583Y-79199996D01*
X92744417Y-79199996D01*
X92744417Y-79200003D01*
X92764698Y-79405929D01*
X92764699Y-79405934D01*
X92824768Y-79603954D01*
X92922316Y-79786452D01*
X93053585Y-79946404D01*
X93053590Y-79946410D01*
X93053595Y-79946414D01*
X93213547Y-80077683D01*
X93213548Y-80077683D01*
X93213550Y-80077685D01*
X93396046Y-80175232D01*
X93533997Y-80217078D01*
X93594065Y-80235300D01*
X93594070Y-80235301D01*
X93799997Y-80255583D01*
X93800000Y-80255583D01*
X93800003Y-80255583D01*
X94005929Y-80235301D01*
X94005934Y-80235300D01*
X94203954Y-80175232D01*
X94386450Y-80077685D01*
X94546410Y-79946410D01*
X94677685Y-79786450D01*
X94775232Y-79603954D01*
X94835300Y-79405934D01*
X94835301Y-79405929D01*
X94855583Y-79200003D01*
X94855583Y-79199996D01*
X95284417Y-79199996D01*
X95284417Y-79200003D01*
X95304698Y-79405929D01*
X95304699Y-79405934D01*
X95364768Y-79603954D01*
X95462316Y-79786452D01*
X95593585Y-79946404D01*
X95593590Y-79946410D01*
X95593595Y-79946414D01*
X95753547Y-80077683D01*
X95753548Y-80077683D01*
X95753550Y-80077685D01*
X95936046Y-80175232D01*
X96073997Y-80217078D01*
X96134065Y-80235300D01*
X96134070Y-80235301D01*
X96339997Y-80255583D01*
X96340000Y-80255583D01*
X96340003Y-80255583D01*
X96545929Y-80235301D01*
X96545934Y-80235300D01*
X96743954Y-80175232D01*
X96926450Y-80077685D01*
X97086410Y-79946410D01*
X97217685Y-79786450D01*
X97315232Y-79603954D01*
X97375300Y-79405934D01*
X97375301Y-79405929D01*
X97395583Y-79200003D01*
X97395583Y-79199996D01*
X97824417Y-79199996D01*
X97824417Y-79200003D01*
X97844698Y-79405929D01*
X97844699Y-79405934D01*
X97904768Y-79603954D01*
X98002316Y-79786452D01*
X98133585Y-79946404D01*
X98133590Y-79946410D01*
X98133595Y-79946414D01*
X98293547Y-80077683D01*
X98293548Y-80077683D01*
X98293550Y-80077685D01*
X98476046Y-80175232D01*
X98613997Y-80217078D01*
X98674065Y-80235300D01*
X98674070Y-80235301D01*
X98879997Y-80255583D01*
X98880000Y-80255583D01*
X98880003Y-80255583D01*
X99085929Y-80235301D01*
X99085934Y-80235300D01*
X99283954Y-80175232D01*
X99466450Y-80077685D01*
X99626410Y-79946410D01*
X99757685Y-79786450D01*
X99855232Y-79603954D01*
X99915300Y-79405934D01*
X99915301Y-79405929D01*
X99935583Y-79200003D01*
X99935583Y-79199996D01*
X100364417Y-79199996D01*
X100364417Y-79200003D01*
X100384698Y-79405929D01*
X100384699Y-79405934D01*
X100444768Y-79603954D01*
X100542316Y-79786452D01*
X100673585Y-79946404D01*
X100673590Y-79946410D01*
X100673595Y-79946414D01*
X100833547Y-80077683D01*
X100833548Y-80077683D01*
X100833550Y-80077685D01*
X101016046Y-80175232D01*
X101153997Y-80217078D01*
X101214065Y-80235300D01*
X101214070Y-80235301D01*
X101419997Y-80255583D01*
X101420000Y-80255583D01*
X101420003Y-80255583D01*
X101625929Y-80235301D01*
X101625934Y-80235300D01*
X101823954Y-80175232D01*
X102006450Y-80077685D01*
X102166410Y-79946410D01*
X102297685Y-79786450D01*
X102395232Y-79603954D01*
X102455300Y-79405934D01*
X102455301Y-79405929D01*
X102475583Y-79200003D01*
X102475583Y-79199996D01*
X102904417Y-79199996D01*
X102904417Y-79200003D01*
X102924698Y-79405929D01*
X102924699Y-79405934D01*
X102984768Y-79603954D01*
X103082316Y-79786452D01*
X103213585Y-79946404D01*
X103213590Y-79946410D01*
X103213595Y-79946414D01*
X103373547Y-80077683D01*
X103373548Y-80077683D01*
X103373550Y-80077685D01*
X103556046Y-80175232D01*
X103693997Y-80217078D01*
X103754065Y-80235300D01*
X103754070Y-80235301D01*
X103959997Y-80255583D01*
X103960000Y-80255583D01*
X103960003Y-80255583D01*
X104165929Y-80235301D01*
X104165934Y-80235300D01*
X104363954Y-80175232D01*
X104546450Y-80077685D01*
X104706410Y-79946410D01*
X104837685Y-79786450D01*
X104935232Y-79603954D01*
X104995300Y-79405934D01*
X104995301Y-79405929D01*
X105015583Y-79200003D01*
X105015583Y-79199996D01*
X105444417Y-79199996D01*
X105444417Y-79200003D01*
X105464698Y-79405929D01*
X105464699Y-79405934D01*
X105524768Y-79603954D01*
X105622316Y-79786452D01*
X105753585Y-79946404D01*
X105753590Y-79946410D01*
X105753595Y-79946414D01*
X105913547Y-80077683D01*
X105913548Y-80077683D01*
X105913550Y-80077685D01*
X106096046Y-80175232D01*
X106233997Y-80217078D01*
X106294065Y-80235300D01*
X106294070Y-80235301D01*
X106499997Y-80255583D01*
X106500000Y-80255583D01*
X106500003Y-80255583D01*
X106705929Y-80235301D01*
X106705934Y-80235300D01*
X106903954Y-80175232D01*
X107086450Y-80077685D01*
X107246410Y-79946410D01*
X107377685Y-79786450D01*
X107475232Y-79603954D01*
X107535300Y-79405934D01*
X107535301Y-79405929D01*
X107555583Y-79200003D01*
X107555583Y-79199996D01*
X107984417Y-79199996D01*
X107984417Y-79200003D01*
X108004698Y-79405929D01*
X108004699Y-79405934D01*
X108064768Y-79603954D01*
X108162316Y-79786452D01*
X108293585Y-79946404D01*
X108293590Y-79946410D01*
X108293595Y-79946414D01*
X108453547Y-80077683D01*
X108453548Y-80077683D01*
X108453550Y-80077685D01*
X108636046Y-80175232D01*
X108773997Y-80217078D01*
X108834065Y-80235300D01*
X108834070Y-80235301D01*
X109039997Y-80255583D01*
X109040000Y-80255583D01*
X109040003Y-80255583D01*
X109245929Y-80235301D01*
X109245934Y-80235300D01*
X109443954Y-80175232D01*
X109626450Y-80077685D01*
X109786410Y-79946410D01*
X109917685Y-79786450D01*
X110015232Y-79603954D01*
X110075300Y-79405934D01*
X110075301Y-79405929D01*
X110095583Y-79200003D01*
X110095583Y-79199996D01*
X110524417Y-79199996D01*
X110524417Y-79200003D01*
X110544698Y-79405929D01*
X110544699Y-79405934D01*
X110604768Y-79603954D01*
X110702316Y-79786452D01*
X110833585Y-79946404D01*
X110833590Y-79946410D01*
X110833595Y-79946414D01*
X110993547Y-80077683D01*
X110993548Y-80077683D01*
X110993550Y-80077685D01*
X111176046Y-80175232D01*
X111313997Y-80217078D01*
X111374065Y-80235300D01*
X111374070Y-80235301D01*
X111579997Y-80255583D01*
X111580000Y-80255583D01*
X111580003Y-80255583D01*
X111785929Y-80235301D01*
X111785934Y-80235300D01*
X111983954Y-80175232D01*
X112166450Y-80077685D01*
X112326410Y-79946410D01*
X112457685Y-79786450D01*
X112555232Y-79603954D01*
X112615300Y-79405934D01*
X112615301Y-79405929D01*
X112635583Y-79200003D01*
X112635583Y-79199996D01*
X113064417Y-79199996D01*
X113064417Y-79200003D01*
X113084698Y-79405929D01*
X113084699Y-79405934D01*
X113144768Y-79603954D01*
X113242316Y-79786452D01*
X113373585Y-79946404D01*
X113373590Y-79946410D01*
X113373595Y-79946414D01*
X113533547Y-80077683D01*
X113533548Y-80077683D01*
X113533550Y-80077685D01*
X113716046Y-80175232D01*
X113853997Y-80217078D01*
X113914065Y-80235300D01*
X113914070Y-80235301D01*
X114119997Y-80255583D01*
X114120000Y-80255583D01*
X114120003Y-80255583D01*
X114325929Y-80235301D01*
X114325934Y-80235300D01*
X114523954Y-80175232D01*
X114706450Y-80077685D01*
X114866410Y-79946410D01*
X114997685Y-79786450D01*
X115095232Y-79603954D01*
X115155300Y-79405934D01*
X115155301Y-79405929D01*
X115175583Y-79200003D01*
X115175583Y-79199996D01*
X115604417Y-79199996D01*
X115604417Y-79200003D01*
X115624698Y-79405929D01*
X115624699Y-79405934D01*
X115684768Y-79603954D01*
X115782316Y-79786452D01*
X115913585Y-79946404D01*
X115913590Y-79946410D01*
X115913595Y-79946414D01*
X116073547Y-80077683D01*
X116073548Y-80077683D01*
X116073550Y-80077685D01*
X116256046Y-80175232D01*
X116393997Y-80217078D01*
X116454065Y-80235300D01*
X116454070Y-80235301D01*
X116659997Y-80255583D01*
X116660000Y-80255583D01*
X116660003Y-80255583D01*
X116865929Y-80235301D01*
X116865934Y-80235300D01*
X117063954Y-80175232D01*
X117246450Y-80077685D01*
X117406410Y-79946410D01*
X117537685Y-79786450D01*
X117635232Y-79603954D01*
X117695300Y-79405934D01*
X117695301Y-79405929D01*
X117715583Y-79200003D01*
X117715583Y-79199996D01*
X118144417Y-79199996D01*
X118144417Y-79200003D01*
X118164698Y-79405929D01*
X118164699Y-79405934D01*
X118224768Y-79603954D01*
X118322316Y-79786452D01*
X118453585Y-79946404D01*
X118453590Y-79946410D01*
X118453595Y-79946414D01*
X118613547Y-80077683D01*
X118613548Y-80077683D01*
X118613550Y-80077685D01*
X118796046Y-80175232D01*
X118933997Y-80217078D01*
X118994065Y-80235300D01*
X118994070Y-80235301D01*
X119199997Y-80255583D01*
X119200000Y-80255583D01*
X119200003Y-80255583D01*
X119405929Y-80235301D01*
X119405934Y-80235300D01*
X119603954Y-80175232D01*
X119786450Y-80077685D01*
X119946410Y-79946410D01*
X120077685Y-79786450D01*
X120175232Y-79603954D01*
X120235300Y-79405934D01*
X120235301Y-79405929D01*
X120255583Y-79200003D01*
X120255583Y-79199996D01*
X120684417Y-79199996D01*
X120684417Y-79200003D01*
X120704698Y-79405929D01*
X120704699Y-79405934D01*
X120764768Y-79603954D01*
X120862316Y-79786452D01*
X120993585Y-79946404D01*
X120993590Y-79946410D01*
X120993595Y-79946414D01*
X121153547Y-80077683D01*
X121153548Y-80077683D01*
X121153550Y-80077685D01*
X121336046Y-80175232D01*
X121473997Y-80217078D01*
X121534065Y-80235300D01*
X121534070Y-80235301D01*
X121739997Y-80255583D01*
X121740000Y-80255583D01*
X121740003Y-80255583D01*
X121945929Y-80235301D01*
X121945934Y-80235300D01*
X122143954Y-80175232D01*
X122326450Y-80077685D01*
X122486410Y-79946410D01*
X122617685Y-79786450D01*
X122715232Y-79603954D01*
X122775300Y-79405934D01*
X122775301Y-79405929D01*
X122795583Y-79200003D01*
X122795583Y-79199996D01*
X123224417Y-79199996D01*
X123224417Y-79200003D01*
X123244698Y-79405929D01*
X123244699Y-79405934D01*
X123304768Y-79603954D01*
X123402316Y-79786452D01*
X123533585Y-79946404D01*
X123533590Y-79946410D01*
X123533595Y-79946414D01*
X123693547Y-80077683D01*
X123693548Y-80077683D01*
X123693550Y-80077685D01*
X123876046Y-80175232D01*
X124013997Y-80217078D01*
X124074065Y-80235300D01*
X124074070Y-80235301D01*
X124279997Y-80255583D01*
X124280000Y-80255583D01*
X124280003Y-80255583D01*
X124485929Y-80235301D01*
X124485934Y-80235300D01*
X124683954Y-80175232D01*
X124866450Y-80077685D01*
X125026410Y-79946410D01*
X125157685Y-79786450D01*
X125255232Y-79603954D01*
X125315300Y-79405934D01*
X125315301Y-79405929D01*
X125335583Y-79200003D01*
X125335583Y-79199996D01*
X125315301Y-78994070D01*
X125315300Y-78994065D01*
X125297078Y-78933997D01*
X125255232Y-78796046D01*
X125157685Y-78613550D01*
X125026410Y-78453590D01*
X124876123Y-78330253D01*
X124866452Y-78322316D01*
X124683954Y-78224768D01*
X124485934Y-78164699D01*
X124485929Y-78164698D01*
X124280003Y-78144417D01*
X124279997Y-78144417D01*
X124074070Y-78164698D01*
X124074065Y-78164699D01*
X123876045Y-78224768D01*
X123693547Y-78322316D01*
X123533595Y-78453585D01*
X123533585Y-78453595D01*
X123402316Y-78613547D01*
X123304768Y-78796045D01*
X123244699Y-78994065D01*
X123244698Y-78994070D01*
X123224417Y-79199996D01*
X122795583Y-79199996D01*
X122775301Y-78994070D01*
X122775300Y-78994065D01*
X122757078Y-78933997D01*
X122715232Y-78796046D01*
X122617685Y-78613550D01*
X122486410Y-78453590D01*
X122336123Y-78330253D01*
X122326452Y-78322316D01*
X122143954Y-78224768D01*
X121945934Y-78164699D01*
X121945929Y-78164698D01*
X121740003Y-78144417D01*
X121739997Y-78144417D01*
X121534070Y-78164698D01*
X121534065Y-78164699D01*
X121336045Y-78224768D01*
X121153547Y-78322316D01*
X120993595Y-78453585D01*
X120993585Y-78453595D01*
X120862316Y-78613547D01*
X120764768Y-78796045D01*
X120704699Y-78994065D01*
X120704698Y-78994070D01*
X120684417Y-79199996D01*
X120255583Y-79199996D01*
X120235301Y-78994070D01*
X120235300Y-78994065D01*
X120217078Y-78933997D01*
X120175232Y-78796046D01*
X120077685Y-78613550D01*
X119946410Y-78453590D01*
X119796123Y-78330253D01*
X119786452Y-78322316D01*
X119603954Y-78224768D01*
X119405934Y-78164699D01*
X119405929Y-78164698D01*
X119200003Y-78144417D01*
X119199997Y-78144417D01*
X118994070Y-78164698D01*
X118994065Y-78164699D01*
X118796045Y-78224768D01*
X118613547Y-78322316D01*
X118453595Y-78453585D01*
X118453585Y-78453595D01*
X118322316Y-78613547D01*
X118224768Y-78796045D01*
X118164699Y-78994065D01*
X118164698Y-78994070D01*
X118144417Y-79199996D01*
X117715583Y-79199996D01*
X117695301Y-78994070D01*
X117695300Y-78994065D01*
X117677078Y-78933997D01*
X117635232Y-78796046D01*
X117537685Y-78613550D01*
X117406410Y-78453590D01*
X117256123Y-78330253D01*
X117246452Y-78322316D01*
X117063954Y-78224768D01*
X116865934Y-78164699D01*
X116865929Y-78164698D01*
X116660003Y-78144417D01*
X116659997Y-78144417D01*
X116454070Y-78164698D01*
X116454065Y-78164699D01*
X116256045Y-78224768D01*
X116073547Y-78322316D01*
X115913595Y-78453585D01*
X115913585Y-78453595D01*
X115782316Y-78613547D01*
X115684768Y-78796045D01*
X115624699Y-78994065D01*
X115624698Y-78994070D01*
X115604417Y-79199996D01*
X115175583Y-79199996D01*
X115155301Y-78994070D01*
X115155300Y-78994065D01*
X115137078Y-78933997D01*
X115095232Y-78796046D01*
X114997685Y-78613550D01*
X114866410Y-78453590D01*
X114716123Y-78330253D01*
X114706452Y-78322316D01*
X114523954Y-78224768D01*
X114325934Y-78164699D01*
X114325929Y-78164698D01*
X114120003Y-78144417D01*
X114119997Y-78144417D01*
X113914070Y-78164698D01*
X113914065Y-78164699D01*
X113716045Y-78224768D01*
X113533547Y-78322316D01*
X113373595Y-78453585D01*
X113373585Y-78453595D01*
X113242316Y-78613547D01*
X113144768Y-78796045D01*
X113084699Y-78994065D01*
X113084698Y-78994070D01*
X113064417Y-79199996D01*
X112635583Y-79199996D01*
X112615301Y-78994070D01*
X112615300Y-78994065D01*
X112597078Y-78933997D01*
X112555232Y-78796046D01*
X112457685Y-78613550D01*
X112326410Y-78453590D01*
X112176123Y-78330253D01*
X112166452Y-78322316D01*
X111983954Y-78224768D01*
X111785934Y-78164699D01*
X111785929Y-78164698D01*
X111580003Y-78144417D01*
X111579997Y-78144417D01*
X111374070Y-78164698D01*
X111374065Y-78164699D01*
X111176045Y-78224768D01*
X110993547Y-78322316D01*
X110833595Y-78453585D01*
X110833585Y-78453595D01*
X110702316Y-78613547D01*
X110604768Y-78796045D01*
X110544699Y-78994065D01*
X110544698Y-78994070D01*
X110524417Y-79199996D01*
X110095583Y-79199996D01*
X110075301Y-78994070D01*
X110075300Y-78994065D01*
X110057078Y-78933997D01*
X110015232Y-78796046D01*
X109917685Y-78613550D01*
X109786410Y-78453590D01*
X109636123Y-78330253D01*
X109626452Y-78322316D01*
X109443954Y-78224768D01*
X109245934Y-78164699D01*
X109245929Y-78164698D01*
X109040003Y-78144417D01*
X109039997Y-78144417D01*
X108834070Y-78164698D01*
X108834065Y-78164699D01*
X108636045Y-78224768D01*
X108453547Y-78322316D01*
X108293595Y-78453585D01*
X108293585Y-78453595D01*
X108162316Y-78613547D01*
X108064768Y-78796045D01*
X108004699Y-78994065D01*
X108004698Y-78994070D01*
X107984417Y-79199996D01*
X107555583Y-79199996D01*
X107535301Y-78994070D01*
X107535300Y-78994065D01*
X107517078Y-78933997D01*
X107475232Y-78796046D01*
X107377685Y-78613550D01*
X107246410Y-78453590D01*
X107096123Y-78330253D01*
X107086452Y-78322316D01*
X106903954Y-78224768D01*
X106705934Y-78164699D01*
X106705929Y-78164698D01*
X106500003Y-78144417D01*
X106499997Y-78144417D01*
X106294070Y-78164698D01*
X106294065Y-78164699D01*
X106096045Y-78224768D01*
X105913547Y-78322316D01*
X105753595Y-78453585D01*
X105753585Y-78453595D01*
X105622316Y-78613547D01*
X105524768Y-78796045D01*
X105464699Y-78994065D01*
X105464698Y-78994070D01*
X105444417Y-79199996D01*
X105015583Y-79199996D01*
X104995301Y-78994070D01*
X104995300Y-78994065D01*
X104977078Y-78933997D01*
X104935232Y-78796046D01*
X104837685Y-78613550D01*
X104706410Y-78453590D01*
X104556123Y-78330253D01*
X104546452Y-78322316D01*
X104363954Y-78224768D01*
X104165934Y-78164699D01*
X104165929Y-78164698D01*
X103960003Y-78144417D01*
X103959997Y-78144417D01*
X103754070Y-78164698D01*
X103754065Y-78164699D01*
X103556045Y-78224768D01*
X103373547Y-78322316D01*
X103213595Y-78453585D01*
X103213585Y-78453595D01*
X103082316Y-78613547D01*
X102984768Y-78796045D01*
X102924699Y-78994065D01*
X102924698Y-78994070D01*
X102904417Y-79199996D01*
X102475583Y-79199996D01*
X102455301Y-78994070D01*
X102455300Y-78994065D01*
X102437078Y-78933997D01*
X102395232Y-78796046D01*
X102297685Y-78613550D01*
X102166410Y-78453590D01*
X102016123Y-78330253D01*
X102006452Y-78322316D01*
X101823954Y-78224768D01*
X101625934Y-78164699D01*
X101625929Y-78164698D01*
X101420003Y-78144417D01*
X101419997Y-78144417D01*
X101214070Y-78164698D01*
X101214065Y-78164699D01*
X101016045Y-78224768D01*
X100833547Y-78322316D01*
X100673595Y-78453585D01*
X100673585Y-78453595D01*
X100542316Y-78613547D01*
X100444768Y-78796045D01*
X100384699Y-78994065D01*
X100384698Y-78994070D01*
X100364417Y-79199996D01*
X99935583Y-79199996D01*
X99915301Y-78994070D01*
X99915300Y-78994065D01*
X99897078Y-78933997D01*
X99855232Y-78796046D01*
X99757685Y-78613550D01*
X99626410Y-78453590D01*
X99476123Y-78330253D01*
X99466452Y-78322316D01*
X99283954Y-78224768D01*
X99085934Y-78164699D01*
X99085929Y-78164698D01*
X98880003Y-78144417D01*
X98879997Y-78144417D01*
X98674070Y-78164698D01*
X98674065Y-78164699D01*
X98476045Y-78224768D01*
X98293547Y-78322316D01*
X98133595Y-78453585D01*
X98133585Y-78453595D01*
X98002316Y-78613547D01*
X97904768Y-78796045D01*
X97844699Y-78994065D01*
X97844698Y-78994070D01*
X97824417Y-79199996D01*
X97395583Y-79199996D01*
X97375301Y-78994070D01*
X97375300Y-78994065D01*
X97357078Y-78933997D01*
X97315232Y-78796046D01*
X97217685Y-78613550D01*
X97086410Y-78453590D01*
X96936123Y-78330253D01*
X96926452Y-78322316D01*
X96743954Y-78224768D01*
X96545934Y-78164699D01*
X96545929Y-78164698D01*
X96340003Y-78144417D01*
X96339997Y-78144417D01*
X96134070Y-78164698D01*
X96134065Y-78164699D01*
X95936045Y-78224768D01*
X95753547Y-78322316D01*
X95593595Y-78453585D01*
X95593585Y-78453595D01*
X95462316Y-78613547D01*
X95364768Y-78796045D01*
X95304699Y-78994065D01*
X95304698Y-78994070D01*
X95284417Y-79199996D01*
X94855583Y-79199996D01*
X94835301Y-78994070D01*
X94835300Y-78994065D01*
X94817078Y-78933997D01*
X94775232Y-78796046D01*
X94677685Y-78613550D01*
X94546410Y-78453590D01*
X94396123Y-78330253D01*
X94386452Y-78322316D01*
X94203954Y-78224768D01*
X94005934Y-78164699D01*
X94005929Y-78164698D01*
X93800003Y-78144417D01*
X93799997Y-78144417D01*
X93594070Y-78164698D01*
X93594065Y-78164699D01*
X93396045Y-78224768D01*
X93213547Y-78322316D01*
X93053595Y-78453585D01*
X93053585Y-78453595D01*
X92922316Y-78613547D01*
X92824768Y-78796045D01*
X92764699Y-78994065D01*
X92764698Y-78994070D01*
X92744417Y-79199996D01*
X92315583Y-79199996D01*
X92295301Y-78994070D01*
X92295300Y-78994065D01*
X92277078Y-78933997D01*
X92235232Y-78796046D01*
X92137685Y-78613550D01*
X92006410Y-78453590D01*
X91856123Y-78330253D01*
X91846452Y-78322316D01*
X91663954Y-78224768D01*
X91465934Y-78164699D01*
X91465929Y-78164698D01*
X91260003Y-78144417D01*
X91259997Y-78144417D01*
X91054070Y-78164698D01*
X91054065Y-78164699D01*
X90856045Y-78224768D01*
X90673547Y-78322316D01*
X90513595Y-78453585D01*
X90513585Y-78453595D01*
X90382316Y-78613547D01*
X90284768Y-78796045D01*
X90224699Y-78994065D01*
X90224698Y-78994070D01*
X90204417Y-79199996D01*
X89770500Y-79199996D01*
X89770500Y-78330252D01*
X89768921Y-78322316D01*
X89767711Y-78316231D01*
X89758867Y-78271769D01*
X89714552Y-78205448D01*
X89714548Y-78205445D01*
X89648233Y-78161134D01*
X89648231Y-78161133D01*
X89648228Y-78161132D01*
X89648227Y-78161132D01*
X89589758Y-78149501D01*
X89589748Y-78149500D01*
X87850252Y-78149500D01*
X87850251Y-78149500D01*
X87850241Y-78149501D01*
X87791772Y-78161132D01*
X87791766Y-78161134D01*
X87725451Y-78205445D01*
X87725445Y-78205451D01*
X87681134Y-78271766D01*
X87681132Y-78271772D01*
X87669501Y-78330241D01*
X87669500Y-78330253D01*
X87080500Y-78330253D01*
X87080500Y-77379500D01*
X87099407Y-77321309D01*
X87148907Y-77285345D01*
X87179500Y-77280500D01*
X140580500Y-77280500D01*
X140638691Y-77299407D01*
G37*
%TD.AperFunction*%
%TD*%
M02*
