%TF.GenerationSoftware,KiCad,Pcbnew,8.0.8*%
%TF.CreationDate,2025-01-31T11:20:25+01:00*%
%TF.ProjectId,RP2040_Template,52503230-3430-45f5-9465-6d706c617465,rev?*%
%TF.SameCoordinates,Original*%
%TF.FileFunction,Legend,Bot*%
%TF.FilePolarity,Positive*%
%FSLAX46Y46*%
G04 Gerber Fmt 4.6, Leading zero omitted, Abs format (unit mm)*
G04 Created by KiCad (PCBNEW 8.0.8) date 2025-01-31 11:20:25*
%MOMM*%
%LPD*%
G01*
G04 APERTURE LIST*
%ADD10C,0.120000*%
%ADD11C,0.650000*%
%ADD12O,2.100000X1.000000*%
%ADD13O,1.600000X1.000000*%
%ADD14R,1.700000X1.700000*%
%ADD15O,1.700000X1.700000*%
G04 APERTURE END LIST*
D10*
%TO.C,J5*%
X128610000Y-98540000D02*
X129940000Y-98540000D01*
X128610000Y-99870000D02*
X128610000Y-98540000D01*
X131210000Y-101200000D02*
X131210000Y-98540000D01*
X138890000Y-98540000D02*
X131210000Y-98540000D01*
X138890000Y-101200000D02*
X131210000Y-101200000D01*
X138890000Y-101200000D02*
X138890000Y-98540000D01*
%TO.C,J2*%
X87380000Y-98470000D02*
X87380000Y-101130000D01*
X87380000Y-98470000D02*
X123000000Y-98470000D01*
X87380000Y-101130000D02*
X123000000Y-101130000D01*
X123000000Y-98470000D02*
X123000000Y-101130000D01*
X125600000Y-99800000D02*
X125600000Y-101130000D01*
X125600000Y-101130000D02*
X124270000Y-101130000D01*
%TO.C,J1*%
X87390000Y-77870000D02*
X88720000Y-77870000D01*
X87390000Y-79200000D02*
X87390000Y-77870000D01*
X89990000Y-80530000D02*
X89990000Y-77870000D01*
X125610000Y-77870000D02*
X89990000Y-77870000D01*
X125610000Y-80530000D02*
X89990000Y-80530000D01*
X125610000Y-80530000D02*
X125610000Y-77870000D01*
%TD*%
%LPC*%
D11*
%TO.C,J3*%
X134470000Y-93520000D03*
X134470000Y-87740000D03*
D12*
X133970000Y-94950000D03*
D13*
X138150000Y-94950000D03*
D12*
X133970000Y-86310000D03*
D13*
X138150000Y-86310000D03*
%TD*%
D14*
%TO.C,J5*%
X129940000Y-99870000D03*
D15*
X132480000Y-99870000D03*
X135020000Y-99870000D03*
X137560000Y-99870000D03*
%TD*%
D14*
%TO.C,J2*%
X124270000Y-99800000D03*
D15*
X121730000Y-99800000D03*
X119190000Y-99800000D03*
X116650000Y-99800000D03*
X114110000Y-99800000D03*
X111570000Y-99800000D03*
X109030000Y-99800000D03*
X106490000Y-99800000D03*
X103950000Y-99800000D03*
X101410000Y-99800000D03*
X98870000Y-99800000D03*
X96330000Y-99800000D03*
X93790000Y-99800000D03*
X91250000Y-99800000D03*
X88710000Y-99800000D03*
%TD*%
D14*
%TO.C,J1*%
X88720000Y-79200000D03*
D15*
X91260000Y-79200000D03*
X93800000Y-79200000D03*
X96340000Y-79200000D03*
X98880000Y-79200000D03*
X101420000Y-79200000D03*
X103960000Y-79200000D03*
X106500000Y-79200000D03*
X109040000Y-79200000D03*
X111580000Y-79200000D03*
X114120000Y-79200000D03*
X116660000Y-79200000D03*
X119200000Y-79200000D03*
X121740000Y-79200000D03*
X124280000Y-79200000D03*
%TD*%
%LPD*%
M02*
