M48
; DRILL file {KiCad 8.0.8} date 2025-01-31T11:20:25+0100
; FORMAT={-:-/ absolute / inch / decimal}
; #@! TF.CreationDate,2025-01-31T11:20:25+01:00
; #@! TF.GenerationSoftware,Kicad,Pcbnew,8.0.8
; #@! TF.FileFunction,Plated,1,2,PTH
FMAT,2
INCH
; #@! TA.AperFunction,Plated,PTH,ViaDrill
T1C0.0118
; #@! TA.AperFunction,Plated,PTH,ViaDrill
T2C0.0138
; #@! TA.AperFunction,Plated,PTH,ComponentDrill
T3C0.0236
; #@! TA.AperFunction,Plated,PTH,ComponentDrill
T4C0.0394
%
G90
G05
T1
X3.7217Y-3.3504
X3.8534Y-3.6423
X4.0864Y-3.5234
X4.0931Y-3.3293
X4.1766Y-3.4738
X4.264Y-3.4734
X4.2644Y-3.5297
X4.3512Y-3.502
X4.3571Y-3.3772
X4.378Y-3.489
X4.4597Y-3.6911
X4.463Y-3.402
X4.7657Y-3.4179
X4.7673Y-3.4679
X5.1329Y-3.5571
X5.1407Y-3.5965
T2
X4.0789Y-3.561
X4.0888Y-3.4691
X4.1378Y-3.4529
X4.1402Y-3.6611
X4.3083Y-3.433
X4.3427Y-3.6761
X4.3427Y-3.7025
X4.3565Y-3.5757
X4.3701Y-3.7461
X4.3949Y-3.7461
X4.4608Y-3.6135
X4.465Y-3.6535
X4.5065Y-3.5502
X4.5384Y-3.5502
X4.5687Y-3.5502
T4
X3.4925Y-3.9291
X3.4929Y-3.1181
X3.5925Y-3.9291
X3.5929Y-3.1181
X3.6925Y-3.9291
X3.6929Y-3.1181
X3.7925Y-3.9291
X3.7929Y-3.1181
X3.8925Y-3.9291
X3.8929Y-3.1181
X3.9925Y-3.9291
X3.9929Y-3.1181
X4.0925Y-3.9291
X4.0929Y-3.1181
X4.1925Y-3.9291
X4.1929Y-3.1181
X4.2925Y-3.9291
X4.2929Y-3.1181
X4.3925Y-3.9291
X4.3929Y-3.1181
X4.4925Y-3.9291
X4.4929Y-3.1181
X4.5925Y-3.9291
X4.5929Y-3.1181
X4.6925Y-3.9291
X4.6929Y-3.1181
X4.7925Y-3.9291
X4.7929Y-3.1181
X4.8925Y-3.9291
X4.8929Y-3.1181
X5.1157Y-3.9319
X5.2157Y-3.9319
X5.3157Y-3.9319
X5.4157Y-3.9319
T3
G00X5.2528Y-3.398
M15
G01X5.2961Y-3.398
M16
G05
G00X5.2528Y-3.7382
M15
G01X5.2961Y-3.7382
M16
G05
G00X5.4272Y-3.398
M15
G01X5.4508Y-3.398
M16
G05
G00X5.4272Y-3.7382
M15
G01X5.4508Y-3.7382
M16
G05
M30
