%TF.GenerationSoftware,KiCad,Pcbnew,8.0.8*%
%TF.CreationDate,2025-01-31T11:20:25+01:00*%
%TF.ProjectId,RP2040_Template,52503230-3430-45f5-9465-6d706c617465,rev?*%
%TF.SameCoordinates,Original*%
%TF.FileFunction,Legend,Top*%
%TF.FilePolarity,Positive*%
%FSLAX46Y46*%
G04 Gerber Fmt 4.6, Leading zero omitted, Abs format (unit mm)*
G04 Created by KiCad (PCBNEW 8.0.8) date 2025-01-31 11:20:25*
%MOMM*%
%LPD*%
G01*
G04 APERTURE LIST*
G04 Aperture macros list*
%AMRoundRect*
0 Rectangle with rounded corners*
0 $1 Rounding radius*
0 $2 $3 $4 $5 $6 $7 $8 $9 X,Y pos of 4 corners*
0 Add a 4 corners polygon primitive as box body*
4,1,4,$2,$3,$4,$5,$6,$7,$8,$9,$2,$3,0*
0 Add four circle primitives for the rounded corners*
1,1,$1+$1,$2,$3*
1,1,$1+$1,$4,$5*
1,1,$1+$1,$6,$7*
1,1,$1+$1,$8,$9*
0 Add four rect primitives between the rounded corners*
20,1,$1+$1,$2,$3,$4,$5,0*
20,1,$1+$1,$4,$5,$6,$7,0*
20,1,$1+$1,$6,$7,$8,$9,0*
20,1,$1+$1,$8,$9,$2,$3,0*%
G04 Aperture macros list end*
%ADD10C,0.153000*%
%ADD11C,0.120000*%
%ADD12RoundRect,0.140000X-0.170000X0.140000X-0.170000X-0.140000X0.170000X-0.140000X0.170000X0.140000X0*%
%ADD13RoundRect,0.135000X0.135000X0.185000X-0.135000X0.185000X-0.135000X-0.185000X0.135000X-0.185000X0*%
%ADD14RoundRect,0.140000X0.140000X0.170000X-0.140000X0.170000X-0.140000X-0.170000X0.140000X-0.170000X0*%
%ADD15RoundRect,0.225000X0.375000X-0.225000X0.375000X0.225000X-0.375000X0.225000X-0.375000X-0.225000X0*%
%ADD16RoundRect,0.140000X-0.140000X-0.170000X0.140000X-0.170000X0.140000X0.170000X-0.140000X0.170000X0*%
%ADD17RoundRect,0.250000X0.350000X0.450000X-0.350000X0.450000X-0.350000X-0.450000X0.350000X-0.450000X0*%
%ADD18R,1.000000X0.750000*%
%ADD19R,1.400000X1.200000*%
%ADD20RoundRect,0.140000X0.170000X-0.140000X0.170000X0.140000X-0.170000X0.140000X-0.170000X-0.140000X0*%
%ADD21RoundRect,0.375000X0.625000X0.375000X-0.625000X0.375000X-0.625000X-0.375000X0.625000X-0.375000X0*%
%ADD22RoundRect,0.500000X0.500000X1.400000X-0.500000X1.400000X-0.500000X-1.400000X0.500000X-1.400000X0*%
%ADD23RoundRect,0.135000X0.185000X-0.135000X0.185000X0.135000X-0.185000X0.135000X-0.185000X-0.135000X0*%
%ADD24RoundRect,0.050000X-0.050000X0.330000X-0.050000X-0.330000X0.050000X-0.330000X0.050000X0.330000X0*%
%ADD25RoundRect,0.050000X0.330000X0.050000X-0.330000X0.050000X-0.330000X-0.050000X0.330000X-0.050000X0*%
%ADD26RoundRect,0.135000X-0.135000X-0.185000X0.135000X-0.185000X0.135000X0.185000X-0.135000X0.185000X0*%
%ADD27RoundRect,0.150000X-0.650000X-0.150000X0.650000X-0.150000X0.650000X0.150000X-0.650000X0.150000X0*%
%ADD28RoundRect,0.135000X-0.185000X0.135000X-0.185000X-0.135000X0.185000X-0.135000X0.185000X0.135000X0*%
%ADD29C,0.650000*%
%ADD30RoundRect,0.150000X0.500000X-0.150000X0.500000X0.150000X-0.500000X0.150000X-0.500000X-0.150000X0*%
%ADD31RoundRect,0.075000X0.575000X-0.075000X0.575000X0.075000X-0.575000X0.075000X-0.575000X-0.075000X0*%
%ADD32O,2.100000X1.000000*%
%ADD33O,1.600000X1.000000*%
%ADD34R,1.700000X1.700000*%
%ADD35O,1.700000X1.700000*%
G04 APERTURE END LIST*
D10*
X109680199Y-86494336D02*
X109680199Y-86256241D01*
X109918294Y-86351479D02*
X109680199Y-86256241D01*
X109680199Y-86256241D02*
X109442104Y-86351479D01*
X109823056Y-86065765D02*
X109680199Y-86256241D01*
X109680199Y-86256241D02*
X109537342Y-86065765D01*
D11*
%TO.C,C11*%
X104740000Y-95462164D02*
X104740000Y-95677836D01*
X105460000Y-95462164D02*
X105460000Y-95677836D01*
%TO.C,R2*%
X101108841Y-89499000D02*
X100801559Y-89499000D01*
X101108841Y-90259000D02*
X100801559Y-90259000D01*
%TO.C,C12*%
X101043036Y-90519000D02*
X100827364Y-90519000D01*
X101043036Y-91239000D02*
X100827364Y-91239000D01*
%TO.C,R4*%
X112093841Y-92394000D02*
X111786559Y-92394000D01*
X112093841Y-93154000D02*
X111786559Y-93154000D01*
%TO.C,D1*%
X123950000Y-88060000D02*
X123950000Y-84050000D01*
X123950000Y-88060000D02*
X125950000Y-88060000D01*
X125950000Y-88060000D02*
X125950000Y-84050000D01*
%TO.C,C14*%
X111872164Y-86390000D02*
X112087836Y-86390000D01*
X111872164Y-87110000D02*
X112087836Y-87110000D01*
%TO.C,R5*%
X112597064Y-83525000D02*
X112142936Y-83525000D01*
X112597064Y-84995000D02*
X112142936Y-84995000D01*
%TO.C,SW2*%
X88770000Y-92760000D02*
X88770000Y-90760000D01*
X89770000Y-89460000D02*
X90220000Y-89010000D01*
X89770000Y-94060000D02*
X90220000Y-94510000D01*
X92820000Y-89010000D02*
X90220000Y-89010000D01*
X92820000Y-94510000D02*
X90220000Y-94510000D01*
X93270000Y-89460000D02*
X92820000Y-89010000D01*
X93270000Y-94060000D02*
X92820000Y-94510000D01*
X94270000Y-92760000D02*
X94270000Y-90760000D01*
%TO.C,C9*%
X108620200Y-95566164D02*
X108620200Y-95781836D01*
X109340200Y-95566164D02*
X109340200Y-95781836D01*
%TO.C,C6*%
X111842364Y-89439000D02*
X112058036Y-89439000D01*
X111842364Y-90159000D02*
X112058036Y-90159000D01*
%TO.C,Y1*%
X95805200Y-93284000D02*
X95805200Y-89984000D01*
X99805200Y-93284000D02*
X95805200Y-93284000D01*
%TO.C,C10*%
X109665200Y-95572164D02*
X109665200Y-95787836D01*
X110385200Y-95572164D02*
X110385200Y-95787836D01*
%TO.C,C13*%
X104555200Y-85306836D02*
X104555200Y-85091164D01*
X105275200Y-85306836D02*
X105275200Y-85091164D01*
%TO.C,U2*%
X117310000Y-89382500D02*
X117310000Y-90642500D01*
X117310000Y-96202500D02*
X117310000Y-94942500D01*
X121070000Y-89382500D02*
X117310000Y-89382500D01*
X121070000Y-96202500D02*
X117310000Y-96202500D01*
X122590000Y-96432500D02*
X122110000Y-96432500D01*
X122350000Y-96102500D01*
X122590000Y-96432500D01*
G36*
X122590000Y-96432500D02*
G01*
X122110000Y-96432500D01*
X122350000Y-96102500D01*
X122590000Y-96432500D01*
G37*
%TO.C,R7*%
X130820000Y-92633641D02*
X130820000Y-92326359D01*
X131580000Y-92633641D02*
X131580000Y-92326359D01*
%TO.C,C2*%
X113790000Y-95532164D02*
X113790000Y-95747836D01*
X114510000Y-95532164D02*
X114510000Y-95747836D01*
%TO.C,SW1*%
X88710000Y-84980000D02*
X88710000Y-86980000D01*
X89710000Y-83680000D02*
X90160000Y-83230000D01*
X89710000Y-88280000D02*
X90160000Y-88730000D01*
X90160000Y-83230000D02*
X92760000Y-83230000D01*
X90160000Y-88730000D02*
X92760000Y-88730000D01*
X93210000Y-83680000D02*
X92760000Y-83230000D01*
X93210000Y-88280000D02*
X92760000Y-88730000D01*
X94210000Y-84980000D02*
X94210000Y-86980000D01*
%TO.C,U1*%
X102550000Y-86825000D02*
X102550000Y-87495000D01*
X102550000Y-93925000D02*
X102550000Y-93255000D01*
X103220000Y-86825000D02*
X102550000Y-86825000D01*
X103220000Y-93925000D02*
X102550000Y-93925000D01*
X108980000Y-86825000D02*
X109650000Y-86825000D01*
X108980000Y-93925000D02*
X109650000Y-93925000D01*
X109650000Y-86825000D02*
X109650000Y-87495000D01*
X109650000Y-93925000D02*
X109650000Y-93255000D01*
%TO.C,C5*%
X96747364Y-89034000D02*
X96963036Y-89034000D01*
X96747364Y-89754000D02*
X96963036Y-89754000D01*
%TO.C,C8*%
X111847364Y-93414000D02*
X112063036Y-93414000D01*
X111847364Y-94134000D02*
X112063036Y-94134000D01*
%TO.C,C4*%
X98893036Y-89044000D02*
X98677364Y-89044000D01*
X98893036Y-89764000D02*
X98677364Y-89764000D01*
%TO.C,R6*%
X100771559Y-92474000D02*
X101078841Y-92474000D01*
X100771559Y-93234000D02*
X101078841Y-93234000D01*
%TO.C,C1*%
X124702164Y-88440000D02*
X124917836Y-88440000D01*
X124702164Y-89160000D02*
X124917836Y-89160000D01*
%TO.C,R3*%
X112093841Y-91394000D02*
X111786559Y-91394000D01*
X112093841Y-92154000D02*
X111786559Y-92154000D01*
%TO.C,U4*%
X116255000Y-83455000D02*
X116255000Y-83715000D01*
X116255000Y-88905000D02*
X116255000Y-88645000D01*
X118980000Y-83455000D02*
X116255000Y-83455000D01*
X118980000Y-83455000D02*
X121705000Y-83455000D01*
X118980000Y-88905000D02*
X116255000Y-88905000D01*
X118980000Y-88905000D02*
X121705000Y-88905000D01*
X121705000Y-83455000D02*
X121705000Y-83715000D01*
X121705000Y-88905000D02*
X121705000Y-88645000D01*
X115472500Y-83715000D02*
X115232500Y-83385000D01*
X115712500Y-83385000D01*
X115472500Y-83715000D01*
G36*
X115472500Y-83715000D02*
G01*
X115232500Y-83385000D01*
X115712500Y-83385000D01*
X115472500Y-83715000D01*
G37*
%TO.C,C15*%
X111847364Y-90414000D02*
X112063036Y-90414000D01*
X111847364Y-91134000D02*
X112063036Y-91134000D01*
%TO.C,R1*%
X112163641Y-85360000D02*
X111856359Y-85360000D01*
X112163641Y-86120000D02*
X111856359Y-86120000D01*
%TO.C,C7*%
X101043036Y-91494000D02*
X100827364Y-91494000D01*
X101043036Y-92214000D02*
X100827364Y-92214000D01*
%TO.C,C3*%
X112800000Y-95522164D02*
X112800000Y-95737836D01*
X113520000Y-95522164D02*
X113520000Y-95737836D01*
%TO.C,R8*%
X130795000Y-88546359D02*
X130795000Y-88853641D01*
X131555000Y-88546359D02*
X131555000Y-88853641D01*
%TO.C,J3*%
X132375000Y-93430000D02*
X132375000Y-94230000D01*
X135295000Y-85930000D02*
X137075000Y-85930000D01*
X135295000Y-95330000D02*
X137075000Y-95330000D01*
%TD*%
%LPC*%
%TO.C,U1*%
X105875000Y-90150000D02*
X104775000Y-90150000D01*
X104775000Y-89050000D01*
X105875000Y-89050000D01*
X105875000Y-90150000D01*
G36*
X105875000Y-90150000D02*
G01*
X104775000Y-90150000D01*
X104775000Y-89050000D01*
X105875000Y-89050000D01*
X105875000Y-90150000D01*
G37*
X105875000Y-91700000D02*
X104775000Y-91700000D01*
X104775000Y-90600000D01*
X105875000Y-90600000D01*
X105875000Y-91700000D01*
G36*
X105875000Y-91700000D02*
G01*
X104775000Y-91700000D01*
X104775000Y-90600000D01*
X105875000Y-90600000D01*
X105875000Y-91700000D01*
G37*
X107425000Y-90150000D02*
X106325000Y-90150000D01*
X106325000Y-89050000D01*
X107425000Y-89050000D01*
X107425000Y-90150000D01*
G36*
X107425000Y-90150000D02*
G01*
X106325000Y-90150000D01*
X106325000Y-89050000D01*
X107425000Y-89050000D01*
X107425000Y-90150000D01*
G37*
X107425000Y-91700000D02*
X106325000Y-91700000D01*
X106325000Y-90600000D01*
X107425000Y-90600000D01*
X107425000Y-91700000D01*
G36*
X107425000Y-91700000D02*
G01*
X106325000Y-91700000D01*
X106325000Y-90600000D01*
X107425000Y-90600000D01*
X107425000Y-91700000D01*
G37*
%TD*%
D12*
%TO.C,C11*%
X105100000Y-95090000D03*
X105100000Y-96050000D03*
%TD*%
D13*
%TO.C,R2*%
X101465200Y-89879000D03*
X100445200Y-89879000D03*
%TD*%
D14*
%TO.C,C12*%
X101415200Y-90879000D03*
X100455200Y-90879000D03*
%TD*%
D13*
%TO.C,R4*%
X112450200Y-92774000D03*
X111430200Y-92774000D03*
%TD*%
D15*
%TO.C,D1*%
X124950000Y-87350000D03*
X124950000Y-84050000D03*
%TD*%
D16*
%TO.C,C14*%
X111500000Y-86750000D03*
X112460000Y-86750000D03*
%TD*%
D17*
%TO.C,R5*%
X113370000Y-84260000D03*
X111370000Y-84260000D03*
%TD*%
D18*
%TO.C,SW2*%
X94520000Y-93635000D03*
X88520000Y-93635000D03*
X94520000Y-89885000D03*
X88520000Y-89885000D03*
%TD*%
D12*
%TO.C,C9*%
X108980200Y-95194000D03*
X108980200Y-96154000D03*
%TD*%
D16*
%TO.C,C6*%
X111470200Y-89799000D03*
X112430200Y-89799000D03*
%TD*%
D19*
%TO.C,Y1*%
X96705200Y-92484000D03*
X98905200Y-92484000D03*
X98905200Y-90784000D03*
X96705200Y-90784000D03*
%TD*%
D12*
%TO.C,C10*%
X110025200Y-95200000D03*
X110025200Y-96160000D03*
%TD*%
D20*
%TO.C,C13*%
X104915200Y-85679000D03*
X104915200Y-84719000D03*
%TD*%
D21*
%TO.C,U2*%
X122370000Y-95092500D03*
X122370000Y-92792500D03*
D22*
X116070000Y-92792500D03*
D21*
X122370000Y-90492500D03*
%TD*%
D23*
%TO.C,R7*%
X131200000Y-92990000D03*
X131200000Y-91970000D03*
%TD*%
D12*
%TO.C,C2*%
X114150000Y-95160000D03*
X114150000Y-96120000D03*
%TD*%
D18*
%TO.C,SW1*%
X88460000Y-84105000D03*
X94460000Y-84105000D03*
X88460000Y-87855000D03*
X94460000Y-87855000D03*
%TD*%
D24*
%TO.C,U1*%
X108700000Y-86990000D03*
X108300000Y-86990000D03*
X107900000Y-86990000D03*
X107500000Y-86990000D03*
X107100000Y-86990000D03*
X106700000Y-86990000D03*
X106300000Y-86990000D03*
X105900000Y-86990000D03*
X105500000Y-86990000D03*
X105100000Y-86990000D03*
X104700000Y-86990000D03*
X104300000Y-86990000D03*
X103900000Y-86990000D03*
X103500000Y-86990000D03*
D25*
X102715000Y-87775000D03*
X102715000Y-88175000D03*
X102715000Y-88575000D03*
X102715000Y-88975000D03*
X102715000Y-89375000D03*
X102715000Y-89775000D03*
X102715000Y-90175000D03*
X102715000Y-90575000D03*
X102715000Y-90975000D03*
X102715000Y-91375000D03*
X102715000Y-91775000D03*
X102715000Y-92175000D03*
X102715000Y-92575000D03*
X102715000Y-92975000D03*
D24*
X103500000Y-93760000D03*
X103900000Y-93760000D03*
X104300000Y-93760000D03*
X104700000Y-93760000D03*
X105100000Y-93760000D03*
X105500000Y-93760000D03*
X105900000Y-93760000D03*
X106300000Y-93760000D03*
X106700000Y-93760000D03*
X107100000Y-93760000D03*
X107500000Y-93760000D03*
X107900000Y-93760000D03*
X108300000Y-93760000D03*
X108700000Y-93760000D03*
D25*
X109485000Y-92975000D03*
X109485000Y-92575000D03*
X109485000Y-92175000D03*
X109485000Y-91775000D03*
X109485000Y-91375000D03*
X109485000Y-90975000D03*
X109485000Y-90575000D03*
X109485000Y-90175000D03*
X109485000Y-89775000D03*
X109485000Y-89375000D03*
X109485000Y-88975000D03*
X109485000Y-88575000D03*
X109485000Y-88175000D03*
X109485000Y-87775000D03*
%TD*%
D16*
%TO.C,C5*%
X96375200Y-89394000D03*
X97335200Y-89394000D03*
%TD*%
%TO.C,C8*%
X111475200Y-93774000D03*
X112435200Y-93774000D03*
%TD*%
D14*
%TO.C,C4*%
X99265200Y-89404000D03*
X98305200Y-89404000D03*
%TD*%
D26*
%TO.C,R6*%
X100415200Y-92854000D03*
X101435200Y-92854000D03*
%TD*%
D16*
%TO.C,C1*%
X124330000Y-88800000D03*
X125290000Y-88800000D03*
%TD*%
D13*
%TO.C,R3*%
X112450200Y-91774000D03*
X111430200Y-91774000D03*
%TD*%
D27*
%TO.C,U4*%
X115380000Y-84275000D03*
X115380000Y-85545000D03*
X115380000Y-86815000D03*
X115380000Y-88085000D03*
X122580000Y-88085000D03*
X122580000Y-86815000D03*
X122580000Y-85545000D03*
X122580000Y-84275000D03*
%TD*%
D16*
%TO.C,C15*%
X111475200Y-90774000D03*
X112435200Y-90774000D03*
%TD*%
D13*
%TO.C,R1*%
X112520000Y-85740000D03*
X111500000Y-85740000D03*
%TD*%
D14*
%TO.C,C7*%
X101415200Y-91854000D03*
X100455200Y-91854000D03*
%TD*%
D12*
%TO.C,C3*%
X113160000Y-95150000D03*
X113160000Y-96110000D03*
%TD*%
D28*
%TO.C,R8*%
X131175000Y-88190000D03*
X131175000Y-89210000D03*
%TD*%
D29*
%TO.C,J3*%
X134470000Y-93520000D03*
X134470000Y-87740000D03*
D30*
X133330000Y-93830000D03*
X133330000Y-93030000D03*
D31*
X133330000Y-91880000D03*
X133330000Y-90880000D03*
X133330000Y-90380000D03*
X133330000Y-89380000D03*
D30*
X133330000Y-88230000D03*
X133330000Y-87430000D03*
X133330000Y-87430000D03*
X133330000Y-88230000D03*
D31*
X133330000Y-88880000D03*
X133330000Y-89880000D03*
X133330000Y-91380000D03*
X133330000Y-92380000D03*
D30*
X133330000Y-93030000D03*
X133330000Y-93830000D03*
D32*
X133970000Y-94950000D03*
D33*
X138150000Y-94950000D03*
D32*
X133970000Y-86310000D03*
D33*
X138150000Y-86310000D03*
%TD*%
D34*
%TO.C,J5*%
X129940000Y-99870000D03*
D35*
X132480000Y-99870000D03*
X135020000Y-99870000D03*
X137560000Y-99870000D03*
%TD*%
D34*
%TO.C,J2*%
X124270000Y-99800000D03*
D35*
X121730000Y-99800000D03*
X119190000Y-99800000D03*
X116650000Y-99800000D03*
X114110000Y-99800000D03*
X111570000Y-99800000D03*
X109030000Y-99800000D03*
X106490000Y-99800000D03*
X103950000Y-99800000D03*
X101410000Y-99800000D03*
X98870000Y-99800000D03*
X96330000Y-99800000D03*
X93790000Y-99800000D03*
X91250000Y-99800000D03*
X88710000Y-99800000D03*
%TD*%
D34*
%TO.C,J1*%
X88720000Y-79200000D03*
D35*
X91260000Y-79200000D03*
X93800000Y-79200000D03*
X96340000Y-79200000D03*
X98880000Y-79200000D03*
X101420000Y-79200000D03*
X103960000Y-79200000D03*
X106500000Y-79200000D03*
X109040000Y-79200000D03*
X111580000Y-79200000D03*
X114120000Y-79200000D03*
X116660000Y-79200000D03*
X119200000Y-79200000D03*
X121740000Y-79200000D03*
X124280000Y-79200000D03*
%TD*%
%LPD*%
M02*
